<?xml version="1.0" encoding="UTF-8"?>
<svg id="Layer_2" xmlns="http://www.w3.org/2000/svg" version="1.1" viewBox="0 0 35.8 14">
  <!-- Generator: Adobe Illustrator 29.8.2, SVG Export Plug-In . SVG Version: 2.1.1 Build 3)  -->
  <defs>
    <style>
      .st0 {
        fill: none;
        stroke: #231f20;
        stroke-linecap: round;
        stroke-linejoin: round;
        stroke-width: .8px;
      }
    </style>
  </defs>
  <g id="Layer_1-2">
    <g>
      <g>
        <rect class="st0" x=".4" y=".4" width="6.3" height="13.2" rx="2.6" ry="2.6"/>
        <g>
          <path class="st0" d="M1.9,13.6c.1-.2.3-.3.3-.7s-.4-.5-.4-.9.4-.5.4-.9-.4-.5-.4-.9.4-.5.4-.9-.4-.5-.4-.9.4-.5.4-.9-.4-.5-.4-.9.4-.5.4-.9-.4-.5-.4-.9.4-.5.4-.9-.4-.5-.4-.9.4-.5.4-.9-.4-.5-.4-.9.2-.4.3-.7"/>
          <path class="st0" d="M3.4,13.6c0-.2.3-.3.3-.7s-.4-.5-.4-.9.4-.5.4-.9-.4-.5-.4-.9.4-.5.4-.9-.4-.5-.4-.9.4-.5.4-.9-.4-.5-.4-.9.4-.5.4-.9-.4-.5-.4-.9.4-.5.4-.9-.4-.5-.4-.9.4-.5.4-.9-.4-.5-.4-.9.2-.4.3-.7"/>
          <path class="st0" d="M4.9,13.6c0-.2.3-.3.3-.7s-.4-.5-.4-.9.4-.5.4-.9-.4-.5-.4-.9.4-.5.4-.9-.4-.5-.4-.9.4-.5.4-.9-.4-.5-.4-.9.4-.5.4-.9-.4-.5-.4-.9.4-.5.4-.9-.4-.5-.4-.9.4-.5.4-.9-.4-.5-.4-.9.2-.4.3-.7"/>
        </g>
      </g>
      <g>
        <rect class="st0" x="29.1" y=".4" width="6.3" height="13.2" rx="2.6" ry="2.6"/>
        <g>
          <path class="st0" d="M30.6,13.6c.1-.2.3-.3.3-.7s-.4-.5-.4-.9.4-.5.4-.9-.4-.5-.4-.9.4-.5.4-.9-.4-.5-.4-.9.4-.5.4-.9-.4-.5-.4-.9.4-.5.4-.9-.4-.5-.4-.9.4-.5.4-.9-.4-.5-.4-.9.4-.5.4-.9-.4-.5-.4-.9.2-.4.3-.7"/>
          <path class="st0" d="M32.1,13.6c0-.2.3-.3.3-.7s-.4-.5-.4-.9.4-.5.4-.9-.4-.5-.4-.9.4-.5.4-.9-.4-.5-.4-.9.4-.5.4-.9-.4-.5-.4-.9.4-.5.4-.9-.4-.5-.4-.9.4-.5.4-.9-.4-.5-.4-.9.4-.5.4-.9-.4-.5-.4-.9.2-.4.3-.7"/>
          <path class="st0" d="M33.5,13.6c0-.2.3-.3.3-.7s-.4-.5-.4-.9.4-.5.4-.9-.4-.5-.4-.9.4-.5.4-.9-.4-.5-.4-.9.4-.5.4-.9-.4-.5-.4-.9.4-.5.4-.9-.4-.5-.4-.9.4-.5.4-.9-.4-.5-.4-.9.4-.5.4-.9-.4-.5-.4-.9.2-.4.3-.7"/>
        </g>
      </g>
      <g>
        <polyline class="st0" points="20 6 29.1 6 29.1 8 20.1 8"/>
        <polyline class="st0" points="15.7 8 6.7 8 6.7 6 15.7 6"/>
      </g>
      <circle class="st0" cx="17.9" cy="7" r="2.4"/>
    </g>
  </g>
</svg>