<?xml version="1.0" encoding="UTF-8"?>
<svg id="Layer_2" data-name="Layer 2" xmlns="http://www.w3.org/2000/svg" viewBox="0 0 543.6 194.55">
  <defs>
    <style>
      .cls-1 {
        fill: #ea0029;
      }

      .cls-2 {
        fill: #fff;
      }

      .cls-3 {
        fill: #f5ce3e;
      }

      .cls-4 {
        fill: #a7a8a9;
      }

      .cls-5 {
        fill: #f0bb92;
      }

      .cls-6 {
        fill: #fdc99a;
      }

      .cls-7 {
        fill: #0082ca;
      }
    </style>
  </defs>
  <g id="Layer_1-2" data-name="Layer 1">
    <rect x="167.67" y="106.45" width="359.22" height="26.36"/>
    <g>
      <path class="cls-2" d="m173.7,120.59c-.6-.6-.9-1.41-.9-2.42v-2.15c0-1.01.3-1.82.9-2.42.6-.6,1.41-.9,2.42-.9h3.92c1.01,0,1.82.3,2.42.9.6.6.9,1.41.9,2.42v1h-3.23v-.5c0-.25-.06-.43-.17-.54s-.29-.16-.54-.16h-2.71c-.25,0-.42.05-.54.16-.11.11-.17.29-.17.54v1.23c0,.25.06.43.17.54.11.11.29.16.54.16h3.31c1.01,0,1.82.3,2.42.9s.9,1.41.9,2.42v2.21c0,1.01-.3,1.82-.9,2.42s-1.41.9-2.42.9h-3.92c-1.01,0-1.82-.3-2.42-.9s-.9-1.41-.9-2.42v-1.04h3.23v.54c0,.25.06.43.17.54.11.11.29.16.54.16h2.71c.25,0,.42-.05.54-.16s.17-.29.17-.54v-1.3c0-.25-.06-.43-.17-.54s-.29-.16-.54-.16h-3.31c-1.01,0-1.82-.3-2.42-.9Z"/>
      <path class="cls-2" d="m186.28,112.69h3.23v5.76h4.83v-5.76h3.23v14.63h-3.23v-5.83h-4.83v5.83h-3.23v-14.63Z"/>
      <path class="cls-2" d="m200.77,112.69h3.23v14.63h-3.23v-14.63Z"/>
      <path class="cls-2" d="m207.2,112.69h9.75v3.12h-6.52v2.64h5.16v3.03h-5.16v2.71h6.52v3.12h-9.75v-14.63Z"/>
      <path class="cls-2" d="m219.75,112.69h3.23v11.49h6.16v3.13h-9.39v-14.63Z"/>
      <path class="cls-2" d="m242.22,123.99c0,1.01-.3,1.82-.9,2.42s-1.4.9-2.42.9h-7.07v-14.63h7.07c1.01,0,1.82.3,2.42.9.6.6.9,1.41.9,2.42v7.97Zm-3.93.2c.25,0,.43-.06.54-.17s.16-.29.16-.54v-6.96c0-.25-.05-.42-.16-.54s-.29-.17-.54-.17h-3.23v8.36h3.23Z"/>
      <path class="cls-2" d="m245.42,112.69h3.23v14.63h-3.23v-14.63Z"/>
      <path class="cls-2" d="m251.85,112.69h3.34l4.47,9.05v-9.05h3.23v14.63h-3.34l-4.47-9.04v9.04h-3.23v-14.63Z"/>
      <path class="cls-2" d="m269.03,123.49c0,.25.06.42.17.54.11.11.29.17.54.17h3.42v-2.31h-2.18v-2.98h5.36v5.09c0,1.01-.3,1.82-.9,2.42s-1.41.9-2.42.9h-3.9c-1.01,0-1.82-.3-2.42-.9s-.9-1.41-.9-2.42v-7.97c0-1.01.3-1.82.9-2.42.6-.6,1.41-.9,2.42-.9h3.9c1.01,0,1.82.3,2.42.9.6.6.9,1.41.9,2.42v1.59h-3.23v-1.08c0-.25-.05-.42-.16-.54s-.29-.17-.54-.17h-2.68c-.25,0-.42.06-.54.17-.11.11-.17.29-.17.54v6.96Z"/>
      <path class="cls-2" d="m288.74,121.57l-4.89-8.87h3.61l2.89,5.68,2.89-5.68h3.61l-4.89,8.87v5.75h-3.23v-5.75Z"/>
      <path class="cls-2" d="m309.05,123.99c0,1.01-.3,1.82-.9,2.42s-1.4.9-2.42.9h-3.79c-1.01,0-1.82-.3-2.42-.9-.6-.6-.9-1.41-.9-2.42v-7.97c0-1.01.3-1.82.9-2.42.6-.6,1.41-.9,2.42-.9h3.79c1.01,0,1.82.3,2.42.9.6.6.9,1.41.9,2.42v7.97Zm-7.2-.51c0,.25.06.42.17.54.11.11.29.17.54.17h2.57c.25,0,.43-.06.54-.17s.16-.29.16-.54v-6.96c0-.25-.05-.42-.16-.54s-.29-.17-.54-.17h-2.57c-.25,0-.42.06-.54.17-.11.11-.17.29-.17.54v6.96Z"/>
      <path class="cls-2" d="m322.35,123.99c0,1.01-.3,1.82-.91,2.42-.6.6-1.41.9-2.42.9h-3.73c-1.01,0-1.82-.3-2.42-.9-.6-.6-.9-1.41-.9-2.42v-11.3h3.23v10.79c0,.25.06.42.17.54.11.11.29.17.54.17h2.5c.25,0,.44-.05.55-.16.11-.11.17-.29.17-.54v-10.79h3.23v11.3Z"/>
      <path class="cls-2" d="m331,112.69h9.87v3.12h-6.64v2.64h5v3.03h-5v5.83h-3.23v-14.63Z"/>
      <path class="cls-2" d="m353.5,120.92c-.35.54-.85.93-1.47,1.16l2.65,5.24h-3.53l-2.44-5.03h-1.92v5.03h-3.23v-14.63h7.14c1.01,0,1.82.3,2.42.9.6.6.9,1.41.9,2.42v2.95c0,.76-.18,1.41-.53,1.95Zm-6.71-1.52h3.3c.25,0,.42-.06.54-.17.11-.11.17-.29.17-.54v-2.17c0-.25-.06-.42-.17-.54-.11-.11-.29-.17-.54-.17h-3.3v3.58Z"/>
      <path class="cls-2" d="m367.37,123.99c0,1.01-.3,1.82-.9,2.42s-1.4.9-2.42.9h-3.79c-1.01,0-1.82-.3-2.42-.9-.6-.6-.9-1.41-.9-2.42v-7.97c0-1.01.3-1.82.9-2.42.6-.6,1.41-.9,2.42-.9h3.79c1.01,0,1.82.3,2.42.9.6.6.9,1.41.9,2.42v7.97Zm-7.2-.51c0,.25.06.42.17.54.11.11.29.17.54.17h2.57c.25,0,.43-.06.54-.17s.16-.29.16-.54v-6.96c0-.25-.05-.42-.16-.54s-.29-.17-.54-.17h-2.57c-.25,0-.42.06-.54.17-.11.11-.17.29-.17.54v6.96Z"/>
      <path class="cls-2" d="m370.28,112.69h3.22l2.88,4.52,2.89-4.52h3.22v14.63h-3.23v-9.24l-2.87,4.3-2.88-4.3v9.24h-3.23v-14.63Z"/>
      <path class="cls-2" d="m391.14,112.69h3.23v5.76h4.83v-5.76h3.23v14.63h-3.23v-5.83h-4.83v5.83h-3.23v-14.63Z"/>
      <path class="cls-2" d="m405.62,112.69h3.23v14.63h-3.23v-14.63Z"/>
      <path class="cls-2" d="m415.28,123.49c0,.25.06.42.17.54.11.11.29.17.54.17h3.42v-2.31h-2.18v-2.98h5.36v5.09c0,1.01-.3,1.82-.9,2.42s-1.4.9-2.42.9h-3.9c-1.01,0-1.82-.3-2.42-.9-.6-.6-.9-1.41-.9-2.42v-7.97c0-1.01.3-1.82.9-2.42.6-.6,1.41-.9,2.42-.9h3.9c1.01,0,1.82.3,2.42.9.6.6.9,1.41.9,2.42v1.59h-3.23v-1.08c0-.25-.05-.42-.16-.54s-.29-.17-.54-.17h-2.68c-.25,0-.42.06-.54.17-.11.11-.17.29-.17.54v6.96Z"/>
      <path class="cls-2" d="m425.51,112.69h3.23v5.76h4.83v-5.76h3.23v14.63h-3.23v-5.83h-4.83v5.83h-3.23v-14.63Z"/>
      <path class="cls-2" d="m448.68,122v5.32h-3.23v-14.63h7.07c1.01,0,1.82.3,2.42.9.6.6.91,1.41.91,2.42v2.65c0,1.01-.3,1.82-.91,2.42-.6.6-1.41.9-2.42.9h-3.85Zm0-3.03h3.23c.25,0,.43-.05.55-.16.11-.11.17-.29.17-.54v-1.73c0-.25-.06-.43-.17-.54s-.29-.16-.55-.16h-3.23v3.14Z"/>
      <path class="cls-2" d="m468.6,120.92c-.35.54-.85.93-1.47,1.16l2.65,5.24h-3.53l-2.44-5.03h-1.92v5.03h-3.23v-14.63h7.14c1.01,0,1.82.3,2.42.9.6.6.9,1.41.9,2.42v2.95c0,.76-.18,1.41-.53,1.95Zm-6.71-1.52h3.3c.25,0,.42-.06.54-.17.11-.11.17-.29.17-.54v-2.17c0-.25-.06-.42-.17-.54-.11-.11-.29-.17-.54-.17h-3.3v3.58Z"/>
      <path class="cls-2" d="m472.32,112.69h3.23v14.63h-3.23v-14.63Z"/>
      <path class="cls-2" d="m481.98,123.49c0,.25.06.42.17.54.11.11.29.17.54.17h2.52c.25,0,.43-.05.55-.16s.17-.29.17-.54v-1.33h3.23v1.84c0,1.01-.3,1.82-.91,2.42-.6.6-1.41.9-2.42.9h-3.75c-1.01,0-1.82-.3-2.42-.9-.6-.6-.9-1.41-.9-2.42v-7.97c0-1.01.3-1.82.9-2.42.6-.6,1.41-.9,2.42-.9h3.75c1.01,0,1.82.3,2.42.9.6.6.91,1.41.91,2.42v1.84h-3.23v-1.33c0-.25-.06-.43-.17-.54s-.29-.16-.55-.16h-2.52c-.25,0-.42.06-.54.17-.11.11-.17.29-.17.54v6.96Z"/>
      <path class="cls-2" d="m492.06,112.69h9.75v3.12h-6.52v2.64h5.16v3.03h-5.16v2.71h6.52v3.12h-9.75v-14.63Z"/>
      <path class="cls-2" d="m505.52,120.59c-.6-.6-.9-1.41-.9-2.42v-2.15c0-1.01.3-1.82.9-2.42.6-.6,1.41-.9,2.42-.9h3.92c1.01,0,1.82.3,2.42.9.6.6.9,1.41.9,2.42v1h-3.23v-.5c0-.25-.06-.43-.17-.54-.11-.11-.29-.16-.54-.16h-2.71c-.25,0-.42.05-.54.16-.11.11-.17.29-.17.54v1.23c0,.25.06.43.17.54.11.11.29.16.54.16h3.31c1.01,0,1.82.3,2.42.9s.9,1.41.9,2.42v2.21c0,1.01-.3,1.82-.9,2.42s-1.41.9-2.42.9h-3.92c-1.01,0-1.82-.3-2.42-.9-.6-.6-.9-1.41-.9-2.42v-1.04h3.23v.54c0,.25.06.43.17.54.11.11.29.16.54.16h2.71c.25,0,.42-.05.54-.16.11-.11.17-.29.17-.54v-1.3c0-.25-.06-.43-.17-.54-.11-.11-.29-.16-.54-.16h-3.31c-1.01,0-1.82-.3-2.42-.9Z"/>
      <path class="cls-2" d="m517.91,123.33h3.55v3.99h-3.55v-3.99Zm.15-5.95v-4.69h3.25v4.69l-.39,4.76h-2.46l-.4-4.76Z"/>
    </g>
    <g>
      <g>
        <path class="cls-3" d="m61.28,95.53l.85.6s-8.17,2.9-8.45,3.02c-.28.12-.76.13-.76.92.06.8.08,1.89.08,1.89,0,0-5.61-2.18-6.22-2.43-.53-.24-1.17-.2-1.36.25-.2.5-1.93,5.51-1.93,5.51l-1.66-.36s2.31-4.88,2.51-5.39c.18-.44-.32-.73-1.02-.76-.62-.02-6.96-.42-6.96-.42,0,0,.84-.9,1.5-1.55.58-.66.19-.86.04-1.08-.14-.21-4.8-5.88-4.8-5.88l1.16-.17c.77-.14.85-.54.82-.85.05-.3.07-3.43.07-3.43,0,0,2.68,1.12,3.3,1.32.46.22.77.04,1.03-.21.25-.25,1.4-1.33,1.4-1.33,0,0,2.28,3.64,2.33,3.71.47.59,1.25.39,1.34-.19.05-.53.84-6.66.84-6.66,0,0,1.45,1.23,1.91,1.63.47.4.85.42,1.32.04.54-.36,4.11-3.34,4.11-3.34,0,0,.83,3.93,1.01,4.45.11.51.44.64,1.13.48.69-.15,2.84-.59,2.84-.59,0,0-4.03,5.42-4.31,5.9-.36.53.15,1.01.98.7.09-.04,4.73-2.18,4.73-2.18,0,0,.15,1.36.18,1.67.03.31.16.58.71.58.67.08,3.68.19,3.68.19,0,0-2.25,2.65-2.52,2.9-.18.26-.42.64.12,1.06Z"/>
        <path class="cls-3" d="m143.27,63.51c-.95-.82-2.73-2.44-6.09-4.16-2.06-1.12-5.18-2.26-7.84-2.78-.66-.11-1.29-.24-1.86-.33-.58-.06-1.09-.11-1.52-.16s-.78-.07-1.02-.07c-.24-.01-.37-.02-.37-.02,0,0-.63-.04-1.65-.04-.5.02-1.11.03-1.77.06-.67.06-1.4.11-2.16.22-.75.09-1.54.24-2.32.41-.83-.24-1.67-.43-2.53-.55-1.85-.23-3.86-.23-6.34.28-.83.18-2.19.51-3.83,1.1.07-.28.1-.57.1-.9.01-.75-.11-3-.53-5.02-.2-1.01-.44-1.97-.64-2.67-.22-.69-.36-1.14-.36-1.14,0,0-.57-1.79-1.47-3.64-.29-.64-.63-1.27-.96-1.85.1-.22.2-.45.3-.69.19-.48.41-1,.58-1.51.11-.3.21-.6.31-.91.2-.62.37-1.3.52-2.02.12-.58.27-1.42.39-2.44.07-.5.12-1.06.15-1.65.02-.29.03-.6.05-.91,0-.31.01-.63.02-.95-.01-.36-.02-.73-.02-1.11-.1-2.98-.66-6.17-1.76-9.22-.54-1.52-1.21-3-1.98-4.41-.18-.33-.37-.66-.57-.98,21.99,7.42,39.1,25.49,45.17,48.06Z"/>
        <path class="cls-3" d="m68.17,23.92c-2.2,2.56-3.69,4.84-5.21,8.85-.4,1.14-1.22,3.31-2.16,6.93-.8,3.05-1.58,7.18-2,10.99-.69-.44-1.47-.7-2.52-.72-.24.01-.61.02-1.06.04-.23.01-.48.02-.75.03-.26.04-.55.08-.84.12-.3.04-.61.08-.93.13-.31.07-.63.14-.96.22-.66.13-1.31.35-1.95.57-1.27.44-2.43,1.03-3.25,1.51-.42.21-.73.46-.96.6-.23.15-.35.24-.35.24,0,0-.52.32-1.25.93-.38.29-.8.66-1.23,1.09-.45.41-.89.91-1.33,1.42-.12.13-.23.27-.34.41-1.34-.46-2.64-.77-4-.87-.93-.06-1.9-.19-2.94-.06-1.03.1-2.16.18-3.38.53-.6.18-1.51.32-2.66.78-.58.22-1.24.44-1.97.74-.71.34-1.5.72-2.37,1.14-.58.31-1.19.71-1.84,1.1-.67.37-1.31.85-1.96,1.34-1.34.93-2.55,2.11-3.63,3.16-1.02,1.11-1.94,2.1-2.48,2.91-.58.78-.94,1.26-.94,1.26,0,0-.1.14-.27.41-.16.27-.4.67-.7,1.15-.63.95-1.29,2.38-2,3.93-.3.81-.61,1.65-.92,2.49-.24.87-.45,1.74-.67,2.58-.22.84-.29,1.68-.42,2.43-.05.38-.11.75-.16,1.09-.02.34-.03.67-.05.97-.21,2.88,0,4.28.06,5.13.26,2.51.87,4.43,1.67,6.11.63,1.3,1.39,2.46,2.33,3.62-.48.81-.89,1.68-1.18,2.62-.32,1.01-.51,2.06-.57,3.14-.02-.06-.05-.12-.06-.18-.19-.51-.36-1.02-.53-1.54-.37-1.15-.72-2.32-1.04-3.49-.16-.59-.32-1.18-.46-1.78-.11-.48-.22-.96-.33-1.44-.1-.48-.2-.96-.3-1.44-.09-.49-.19-.97-.27-1.46-.17-.98-.32-1.96-.45-2.95-.06-.48-.12-.96-.17-1.45-.01-.02-.01-.04-.01-.06-.04-.32-.07-.65-.1-.98-.03-.26-.05-.52-.07-.78-.03-.38-.06-.76-.08-1.14-.01-.06-.01-.11-.01-.17-.04-.47-.06-.95-.08-1.43-.03-.5-.04-1.01-.05-1.52s-.02-1.02-.02-1.53C6,47.34,30.85,18.75,63.49,12.9c-.16,1.57-.08,3.9,1.12,6.51.65,1.4,1.64,2.85,3.05,4.11.16.14.34.27.51.4Z"/>
      </g>
      <path class="cls-1" d="m61.28,95.53l.85.6s-8.17,2.9-8.45,3.02c-.28.12-.76.13-.76.92.06.8.08,1.89.08,1.89,0,0-5.61-2.18-6.22-2.43-.53-.24-1.17-.2-1.36.25-.2.5-1.93,5.51-1.93,5.51l-1.66-.36s2.31-4.88,2.51-5.39c.18-.44-.32-.73-1.02-.76-.62-.02-6.96-.42-6.96-.42,0,0,.84-.9,1.5-1.55.58-.66.19-.86.04-1.08-.14-.21-4.8-5.88-4.8-5.88l1.16-.17c.77-.14.85-.54.82-.85.05-.3.07-3.43.07-3.43,0,0,2.68,1.12,3.3,1.32.46.22.77.04,1.03-.21.25-.25,1.4-1.33,1.4-1.33,0,0,2.28,3.64,2.33,3.71.47.59,1.25.39,1.34-.19.05-.53.84-6.66.84-6.66,0,0,1.45,1.23,1.91,1.63.47.4.85.42,1.32.04.54-.36,4.11-3.34,4.11-3.34,0,0,.83,3.93,1.01,4.45.11.51.44.64,1.13.48.69-.15,2.84-.59,2.84-.59,0,0-4.03,5.42-4.31,5.9-.36.53.15,1.01.98.7.09-.04,4.73-2.18,4.73-2.18,0,0,.15,1.36.18,1.67.03.31.16.58.71.58.67.08,3.68.19,3.68.19,0,0-2.25,2.65-2.52,2.9-.18.26-.42.64.12,1.06Z"/>
      <path class="cls-4" d="m95.94,125.08c-.05-.4-.1-.81-.15-1.23-.52-3.28-2.22-6.72-4.97-9.27-1.36-1.28-2.96-2.34-4.72-3.07-.87-.39-1.78-.67-2.7-.89-.46-.13-.93-.18-1.4-.27l-1.19-.13c.17.33.33.66.5.99.91,1.77,1.79,3.5,2.63,5.16.85,1.66,1.66,3.25,2.43,4.75.19.38.38.75.56,1.11l.28.56c.1.22.2.45.3.67.35.9.53,1.83.56,2.72.08,1.79-.44,3.41-1.18,4.63-.74,1.24-1.68,2.11-2.53,2.67-.86.55-1.6.87-2.12,1.02-.25.09-.46.14-.59.17-.14.03-.21.05-.21.05,0,0-.28.08-.82.13-.54.07-1.35.1-2.36-.07-1-.17-2.21-.57-3.39-1.39-.59-.42-1.17-.92-1.68-1.55-.25-.32-.51-.65-.72-1.02-.1-.18-.2-.37-.31-.55-.08-.16-.16-.32-.24-.48-1.32-2.59-2.88-5.64-4.57-8.96-.43-.83-.86-1.67-1.3-2.53l-.17-.33-.05-.11-.12.21c-.47.8-.91,1.63-1.23,2.51-1.42,3.5-1.48,7.58-.28,11.12.6,1.77,1.5,3.41,2.59,4.83.28.35.55.7.86,1.01.3.33.6.65.93.93.31.31.64.58.98.84l.5.39.47.31c2.4,1.64,4.75,2.25,5.9,2.49.53.12,1.05.18,1.54.27.49.05.96.13,1.41.17.46.02.9.09,1.33.09.39,0,.78-.01,1.16-.01h.58s.08.02.1.07l.06.14.13.28.48,1.05c.1.26.16.44.23.66.14.42.28.85.42,1.28.11.34.22.69.32,1.05.15-.16.31-.33.46-.48,1.94-1.95,4.14-3.21,5.78-3.95.83-.35,1.52-.61,2.01-.75.48-.16.76-.23.76-.23,0,0,.16-.04.47-.11.05-.02.13-.04.19-.05-.24-.31-.48-.62-.71-.92-.27-.37-.53-.74-.8-1.1l-.56-.95-.3-.51.32-.44c.22-.31.45-.62.67-.93.12-.17.23-.36.34-.55.2-.38.46-.74.65-1.16.44-.8.88-1.67,1.29-2.69.23-.54.53-1.39.79-2.46.12-.53.25-1.13.32-1.77l.05-.48c.02-.18.05-.37.05-.57.01-.38.04-.77.03-1.17-.02-.39-.02-.8-.06-1.2Zm0,0c-.05-.4-.1-.81-.15-1.23-.52-3.28-2.22-6.72-4.97-9.27-1.36-1.28-2.96-2.34-4.72-3.07-.87-.39-1.78-.67-2.7-.89-.46-.13-.93-.18-1.4-.27l-1.19-.13c.17.33.33.66.5.99.91,1.77,1.79,3.5,2.63,5.16.85,1.66,1.66,3.25,2.43,4.75.19.38.38.75.56,1.11l.28.56c.1.22.2.45.3.67.35.9.53,1.83.56,2.72.08,1.79-.44,3.41-1.18,4.63-.74,1.24-1.68,2.11-2.53,2.67-.86.55-1.6.87-2.12,1.02-.25.09-.46.14-.59.17-.14.03-.21.05-.21.05,0,0-.28.08-.82.13-.54.07-1.35.1-2.36-.07-1-.17-2.21-.57-3.39-1.39-.59-.42-1.17-.92-1.68-1.55-.25-.32-.51-.65-.72-1.02-.1-.18-.2-.37-.31-.55-.08-.16-.16-.32-.24-.48-1.32-2.59-2.88-5.64-4.57-8.96-.43-.83-.86-1.67-1.3-2.53l-.17-.33-.05-.11-.12.21c-.47.8-.91,1.63-1.23,2.51-1.42,3.5-1.48,7.58-.28,11.12.6,1.77,1.5,3.41,2.59,4.83.28.35.55.7.86,1.01.3.33.6.65.93.93.31.31.64.58.98.84l.5.39.47.31c2.4,1.64,4.75,2.25,5.9,2.49.53.12,1.05.18,1.54.27.49.05.96.13,1.41.17.46.02.9.09,1.33.09.39,0,.78-.01,1.16-.01h.58s.08.02.1.07l.06.14.13.28.48,1.05c.1.26.16.44.23.66.14.42.28.85.42,1.28.11.34.22.69.32,1.05.15-.16.31-.33.46-.48,1.94-1.95,4.14-3.21,5.78-3.95.83-.35,1.52-.61,2.01-.75.48-.16.76-.23.76-.23,0,0,.16-.04.47-.11.05-.02.13-.04.19-.05-.24-.31-.48-.62-.71-.92-.27-.37-.53-.74-.8-1.1l-.56-.95-.3-.51.32-.44c.22-.31.45-.62.67-.93.12-.17.23-.36.34-.55.2-.38.46-.74.65-1.16.44-.8.88-1.67,1.29-2.69.23-.54.53-1.39.79-2.46.12-.53.25-1.13.32-1.77l.05-.48c.02-.18.05-.37.05-.57.01-.38.04-.77.03-1.17-.02-.39-.02-.8-.06-1.2Zm20.96,60.03l-.2.49c-.03.09-.06.17-.1.25-.02.04-.05.1-.07.13,0-.01-.01-.04-.04-.08l-.27-.54c-.37-.72-.73-1.42-1.08-2.11-.7-1.37-1.37-2.67-1.97-3.85-.35-.73-.93-1.47-1.55-1.96-.62-.5-1.3-.84-1.95-1.04-1.3-.4-2.44-.26-3.16-.07-.72.19-1.09.4-1.09.4,0,0-.11.05-.31.17-.21.11-.5.29-.85.58-.67.56-1.58,1.58-1.94,3.14-.18.77-.21,1.66-.01,2.57.1.46.27.91.49,1.36.16.32.33.65.5.99.69,1.36,1.45,2.85,2.25,4.41.2.39.4.78.6,1.18l.06.12c-.1-.02-.2-.03-.29-.06l-.57-.14c-.75-.22-1.46-.52-2.12-.9-2.67-1.51-4.15-4.18-4.54-6.21-.25-1.15-.24-2.03-.2-2.7.05-.66.15-1.11.22-1.45.23-1.01.55-1.87.92-2.66l.15-.28.07-.15c.03-.06.02-.05.12-.21.24-.37.47-.73.7-1.09l.08-.14s.07-.08.02-.13l-.18-.27-.35-.53c-.22-.34-.48-.74-.58-.85-.83-1.07-1.69-2.05-2.67-3.11.65.17,1.33.32,2.05.44,1.97-.61,3.59-1.47,5.06-2.69.41-.34.8-.71,1.18-1.12.07.34.14.68.21,1,.11.45.21.89.32,1.32l.17.65.09.32.04.16.1.28.42,1.14c.05.08.05.24.14.26l.3.02.62.04.67.05.32.05c.21.03.42.08.63.13.84.19,1.73.47,2.66.9.46.23,1.13.56,1.91,1.19.78.63,1.7,1.55,2.45,2.94.55,1.01.93,2.24,1.08,3.56.12,1.33-.04,2.75-.51,4.1Z"/>
      <path class="cls-5" d="m100.78,58.81c-.06.03-.14.07-.22.11-.12.05-.22.12-.22.12,0,0-.3.15-.43.22-2.55,1.38-3.61,2.3-4.31,2.8-.55.45-1.06.9-1.51,1.33-2.37,2.26-3.59,4.41-4.54,7.06-1.95-.44-3.91-.76-5.87-.95-4.16-.42-8.23-.25-11.91.29-.92.14-1.82.29-2.68.48-.44.09-.86.18-1.28.27h0c.38-.4.69-.76.83-.93.25-.32.31-.67.25-1.1.9.03,1.81.05,2.69.03,2.54-.04,4.89-.3,6.62-.57,2.8-.46,4.12-.84,4.93-1.05.34-.09.66-.19.96-.28.38-.12.74-.23,1.06-.34.45-.32.57-.41.77-.56.18-.15.36-.3.54-.44.35-.3.67-.59.98-.9.46-.45.87-.91,1.25-1.37.13-.16.25-.31.37-.47.97-1.27,1.74-2.64,2.44-4.27-1.38,1.11-2.61,1.95-3.85,2.78-.64.42-1.26.83-1.9,1.25-.22.14-.44.28-.66.43h-.01c-.11.07-.23.15-.34.22-.18.11-.36.22-.54.33-.14.08-.32.2-.37.22h-.01s-.12.03-.16.04c-.14.03-.28.07-.42.11-.29.08-.59.16-.91.24-.76.19-1.99.53-4.61.96-1.62.25-3.82.49-6.2.53-2.38.05-4.94-.11-7.27-.44-.58-.09-1.15-.18-1.69-.28-.29-.05-.57-.1-.84-.15v-.03c-.02-.42-.03-.81-.05-1.16-.07-1.58-.11-2.57-.11-2.57v-.03c-.01-.07-.01-.26-.03-.55,0-.37-.07-.91-.04-1.59.02-1.35.06-3.23.23-5.32.29-4.2,1.21-9.26,2.13-12.79.9-3.48,1.68-5.56,2.05-6.66,1.4-3.8,2.07-6.26,2.87-9.44,1.22.87,2.68,1.58,4.33,1.97,2.16.55,4.64.5,7.07-.32.3-.11.6-.22.9-.35t.03,0l-.08.36c-.13.56-.32,1.14-.58,1.71l-.17.37c-.08.17-.18.34-.28.5-.21.34-.38.67-.7,1.03l-.42.54-.5.59c-.35.4-.7.81-1.05,1.22l-.53.62c-.13.17-.52.5-.17.39l.78-.03c.69-.03,1.39-.07,2.1-.1.68-.04,1.32-.02,2.07-.16l1.1-.16,1.12-.31.54-.16c.16-.05.23-.09.34-.13l.63-.27c.41-.2.82-.4,1.21-.64.78-.48,1.52-1.03,2.17-1.66,1.34-1.24,2.33-2.77,2.98-4.33.23-.54.16-.38.19-.46h.01s.06.03.06.03c.1.07.2.15.3.22.12.09.23.18.33.26.15.12.28.24.4.35.18.17.41.4.47.47l-.02.14-.04.2c-.03.13-.06.25-.08.37-.07.24-.13.47-.2.67-.27.83-.58,1.39-.79,1.77-.17.28-.33.54-.5.79l-.17.24c-.1.14-.21.27-.32.4-.21.22-.41.44-.61.66-.46.15-.79.49-1,.98-.18.17-.38.36-.56.54-.45.43-.89.86-1.11,1.14.87.03,2.96.38,3.17.38.25,0,1.01.07,1.58.48.58.38.86.96.86.96,0,0,.3.56.29,1.26.01.7-.37,1.37-.52,1.56-.27.37-.04.91-.05,2.08.47.25.91.39,1.31.39.31,0,.6-.08.86-.26.1.29.24.58.44.87.39.55,1.51,2.24,2.29,3.91.82,1.66,1.34,3.27,1.34,3.27,0,0,.12.4.31,1.02.18.63.39,1.48.57,2.39.37,1.81.48,3.84.49,4.51.04.72.22,1.27.55,1.83-.24.11-.47.21-.72.33Z"/>
      <path class="cls-7" d="m132.78,62.68h-.02c-.79-.15-1.56-.27-2.29-.35-.75-.04-1.47-.08-2.15-.12-.34-.01-.68-.03-1-.04-.32.01-.63.01-.94.02-1.21.01-2.25.16-3.11.24-.86.14-1.52.25-1.97.32-.45.11-.69.16-.69.16,0,0-.24.06-.68.16-.46.09-1.1.3-1.93.54-1.64.53-3.98,1.42-6.55,2.99-1.31.77-2.63,1.75-3.97,2.86-1.33,1.14-2.63,2.47-3.87,3.95-.3.39-.59.77-.89,1.17l-.23.29-.07.1-.09.13-.08.13s-.03-.01-.05-.01l-.58-.31c-1.78-.95-3.68-1.81-5.64-2.55-1.81-.68-3.69-1.25-5.59-1.71,2.27-2.17,4.15-3.73,7.13-6.12.39-.28.91-.71,1.8-1.29.54-.34,1.21-.75,2.07-1.21.12-.05.38-.22.38-.22,0,0,.09-.04.2-.09.07-.03.14-.06.2-.09,2.7-1.33,5.1-1.94,6.29-2.21.33-.07.63-.13.94-.19-.72.37-1.31.69-1.78.98-.71.41-1.17.73-1.52.97-.86.61-1.61,1.21-2.27,1.81-2.51,2.28-3.75,4.6-4.9,7.63,1.53-1.39,2.87-2.4,4.23-3.47,1.38-1.04,2.81-2.11,4.69-3.38.31-.22.73-.51,1.37-.87.11-.07.23-.14.35-.21.58-.33,1.33-.72,2.3-1.17,1.73-.82,4.82-1.83,7.55-2.19.68-.09,1.34-.13,1.93-.2.6-.02,1.14-.04,1.6-.06.91.01,1.48.04,1.48.04,0,0,.12,0,.33.01.22,0,.53.02.92.07.38.05.85.1,1.36.15.52.08,1.08.2,1.67.3,2.39.47,5.18,1.5,7.03,2.5,2.2,1.13,3.64,2.2,4.6,2.99-2.59-1.23-5.18-2-7.56-2.45Z"/>
      <path class="cls-7" d="m64.62,69.3c-.7.68-1.37,1.26-1.37,1.26,0,0-.68.57-1.47,1.15-.31.22-.62.44-.91.63-1.03-.99-2.02-1.86-3.13-2.66-.78-.53-1.51-1.04-2.61-1.51-.92-.39-1.98-.77-3.17-1.1-1.18-.31-3.45-.95-7.21-1.39-1.46-.17-3.06-.27-4.73-.3.39-.5.7-1.02.99-1.73.08-.19.18-.48.33-.83.17-.34.37-.75.59-1.2.27-.43.53-.91.85-1.37.29-.36.53-.77.84-1.13.06-.08.13-.16.2-.23.37-.42.73-.85,1.11-1.19.36-.36.71-.68,1.03-.91.61-.52,1.04-.8,1.04-.8,0,0,.11-.07.3-.19s.45-.33.81-.51c.69-.39,1.66-.88,2.73-1.25.53-.18,1.08-.37,1.63-.48.28-.06.55-.12.81-.18.26-.04.52-.08.77-.11.25-.04.49-.07.71-.1.22-.01.43-.02.62-.03.39-.02.7-.04.9-.05.92,0,1.6-.16,2.34-.44,0,.13-.02.26-.03.38-.18,2.19-.22,4.14-.23,5.55-.03.7.03,1.27.04,1.66,0,.08.01.16.01.22.01.25.02.38.02.38,0,0,.04,1.03.11,2.67.02.45.04.95.06,1.47.02.47.05.94.07,1.43l.02.38v.19s0,.07.02.1l.09.02c.25.05.51.11.77.17.49.1,1,.21,1.52.33.3.05.59.11.9.17.58.1,1.19.2,1.81.29.59.09,1.2.16,1.81.22-.29.32-.64.68-.99,1.02Z"/>
      <path class="cls-2" d="m61.28,95.53l.85.6s-8.17,2.9-8.45,3.02c-.28.12-.76.13-.76.92.06.8.08,1.89.08,1.89,0,0-5.61-2.18-6.22-2.43-.53-.24-1.17-.2-1.36.25-.2.5-1.93,5.51-1.93,5.51l-1.66-.36s2.31-4.88,2.51-5.39c.18-.44-.32-.73-1.02-.76-.62-.02-6.96-.42-6.96-.42,0,0,.84-.9,1.5-1.55.58-.66.19-.86.04-1.08-.14-.21-4.8-5.88-4.8-5.88l1.16-.17c.77-.14.85-.54.82-.85.05-.3.07-3.43.07-3.43,0,0,2.68,1.12,3.3,1.32.46.22.77.04,1.03-.21.25-.25,1.4-1.33,1.4-1.33,0,0,2.28,3.64,2.33,3.71.47.59,1.25.39,1.34-.19.05-.53.84-6.66.84-6.66,0,0,1.45,1.23,1.91,1.63.47.4.85.42,1.32.04.54-.36,4.11-3.34,4.11-3.34,0,0,.83,3.93,1.01,4.45.11.51.44.64,1.13.48.69-.15,2.84-.59,2.84-.59,0,0-4.03,5.42-4.31,5.9-.36.53.15,1.01.98.7.09-.04,4.73-2.18,4.73-2.18,0,0,.15,1.36.18,1.67.03.31.16.58.71.58.67.08,3.68.19,3.68.19,0,0-2.25,2.65-2.52,2.9-.18.26-.42.64.12,1.06Z"/>
    </g>
    <g>
      <path d="m527.46,40.87c-.08-.09-.16-.18-.25-.27-.16-.19-.46-.43-.91-.73-.45-.3-1-.53-1.64-.69-.25-.03-.49-.04-.73-.04-1.9,0-3.85,1.03-5.87,3.08-2.01,2.06-3.77,4.66-5.27,7.81-1.5,3.15-2.48,6.14-2.94,8.95-.06.38-.1.74-.13,1.09-.4,3.2.09,5.64,1.47,7.35.27.28.55.53.84.73.54.4,1.12.66,1.73.79.93.2,1.75.3,2.46.3.19,0,.55-.02,1.09-.06.54-.04.92-.09,1.14-.14,2.7-.59,4.97-2.09,6.79-4.48,1.83-2.4,3.01-4.61,3.53-6.64.53-2.02.86-3.49,1-4.38.35-2.19.4-4.51.14-6.96-.25-2.3-1.06-4.21-2.45-5.71Zm-5.4,19.28c-.19,1.08-.43,2.15-.71,3.21-.29,1.06-.66,2.06-1.12,3-.54.27-1.12.48-1.75.63-.62.15-1.27.22-1.95.22-2.16,0-3.58-.72-4.26-2.15-.68-1.43-.81-3.42-.41-5.96.22-1.38.55-2.75.99-4.12.45-1.37.98-2.71,1.6-4.04.19-.38.39-.78.61-1.2.22-.42.45-.86.69-1.32.78-.41,1.49-.61,2.11-.61.76,0,1.43.31,2.03.93.62.65,1.12,1.4,1.48,2.25s.63,1.78.79,2.78c.16,1,.22,2.04.18,3.12-.04,1.08-.14,2.16-.3,3.25Z"/>
      <path d="m543.2,42.81c-.32-2.29-.91-4.47-1.74-6.55-.84-2.08-2.02-3.89-3.53-5.44-.89-.92-1.88-1.76-2.96-2.52s-2.24-1.4-3.47-1.93-2.52-.93-3.85-1.22c-1.34-.28-2.7-.43-4.08-.43-2.06,0-4.07.39-6.04,1.16-1.97.77-3.86,1.8-5.64,3.08s-3.44,2.75-4.97,4.38c-1.53,1.64-2.89,3.31-4.08,5.01-.29.27-.56.55-.84.83-.1-.46-.21-.91-.35-1.34-.74-2.15-1.86-4.01-3.35-5.58-1.49-1.57-3.25-2.87-5.28-3.92-2.03-1.04-4.1-1.86-6.21-2.45-2.22-.62-4.48-1.07-6.79-1.34-2.31-.27-4.66-.41-7.04-.41-1.38,0-2.76.04-4.14.12-1.27.07-2.55.18-3.84.3.09-.38.18-.77.27-1.15l.49-2.31-2.31.16c-3.79.27-7.56.51-11.32.71-3.76.2-7.52.36-11.28.47-2.65.05-5.29.12-7.93.2-2.64.08-5.27.16-7.89.24l-1.95.08-.27,1.62-17.62.29-.4,1.87c-.19.78-.36,1.57-.51,2.35-.15.79-.3,1.57-.47,2.35l-4.34.08-.4,1.87c-.6,2.87-1.2,5.73-1.81,8.58-.61,2.85-1.21,5.71-1.8,8.58-.65.03-1.3.04-1.97.04s-1.32.01-1.97.04c1.97-7.98,4.27-15.86,6.9-23.65l.81-2.43-2.47.04c-2.6.05-5.18.1-7.75.12-2.57.03-5.17.07-7.79.12l-1.87.04-.41,1.87c-.19.78-.36,1.57-.51,2.35-.15.79-.3,1.57-.47,2.35h-1.22c-.41,0-.83.01-1.26.04l-1.87.04-.41,1.87c-.16.78-.33,1.56-.49,2.34,0,0,0,0,0-.01-.01-.07-.03-.13-.05-.2-.45-1.53-1.05-2.98-1.81-4.34-.76-1.37-1.7-2.57-2.84-3.61-1.14-1.04-2.47-1.86-3.99-2.46-1.53-.59-3.29-.89-5.26-.89h-.53c-.16,0-.34.01-.52.04-1.9.19-3.66.59-5.3,1.22-1.63.62-3.18,1.43-4.62,2.43-1.45,1-2.78,2.17-3.98,3.51-.55.61-1.08,1.25-1.6,1.92.02-.16.05-.32.08-.48.4-2.38.81-4.76,1.21-7.14l.37-2.11-2.11.04c-7.01.11-13.97.21-20.89.3-6.93.1-13.9.19-20.9.27l-1.78.04-.49,1.78c-.22.79-.43,1.59-.65,2.4-.22.81-.41,1.61-.57,2.39-.38,0-.74.01-1.1.02-.35.02-.71.02-1.09.02h-1.59c-1.14-.97-2.41-1.81-3.81-2.53-2.03-1.04-4.1-1.86-6.2-2.46-2.22-.62-4.49-1.07-6.8-1.34-2.31-.27-4.66-.4-7.04-.4-1.38,0-2.76.04-4.14.12s-2.77.19-4.18.32l-1.78.21-.33,1.74c-.16.76-.31,1.5-.44,2.23-.14.73-.3,1.48-.49,2.23-.46.06-.9.1-1.32.13-.42.02-.87.06-1.36.12l-1.74.2-.37,1.75c-.67,3.39-1.36,6.78-2.07,10.17.35-2.92.76-5.84,1.22-8.75.21-1.33.44-2.66.67-3.98.23-1.33.48-2.65.75-3.98l.45-2.15-2.2.04c-3.38.08-6.73.16-10.06.23-3.32.06-6.66.14-10.02.22l-1.66.04-.57,1.62c-.3.81-.59,1.63-.87,2.46-.29.82-.56,1.65-.83,2.49h-.9c-.29,0-.59.02-.89.04l-1.62.04-.56,1.48c-.77-1.19-1.71-2.23-2.83-3.12-1.34-1.07-2.86-1.95-4.55-2.64s-3.42-1.23-5.21-1.62c-1.78-.39-3.54-.66-5.25-.81-1.72-.15-3.3-.22-4.73-.22-2.25,0-4.48.12-6.71.36-2.24.24-4.49.58-6.76,1.02l-1.58.32-.33,1.54c-.16.71-.32,1.42-.46,2.13-.15.72-.29,1.43-.43,2.13-.46.08-.93.16-1.42.25-.49.08-.97.17-1.46.28l-1.62.28-.33,1.59c-2.22,10.52-4.53,21.03-6.94,31.54-2.4,10.51-4.9,21.01-7.5,31.5l-.61,2.44,2.48-.2c2.08-.22,4.16-.42,6.24-.61,2.09-.19,4.17-.37,6.25-.53l1.83-.16.32-1.83c.16-.73.31-1.47.43-2.21s.27-1.49.46-2.25c.44-.06.87-.09,1.3-.1.43-.02.9-.05,1.38-.1l1.83-.17.32-1.82c.6-3.14,1.22-6.27,1.87-9.39.65-3.13,1.38-6.27,2.19-9.44,1.27-.35,2.53-.74,3.77-1.17,1.25-.44,2.49-.92,3.74-1.46,1.54-.71,3.25-1.56,5.13-2.56s3.72-2.13,5.54-3.39c1.55-1.08,2.98-2.23,4.3-3.47-.59,1.61-1.19,3.22-1.79,4.83-3.84,10.25-7.81,20.48-11.93,30.67l-1.05,2.56,2.64-.04c3.05-.08,6.09-.16,9.11-.22,3.01-.07,6.03-.12,9.06-.15l1.75-.04.53-1.74c.24-.81.47-1.62.69-2.42.21-.79.45-1.6.73-2.41.21-.03.44-.04.69-.04h.73l-.61,3.25c-.11.54-.22,1.06-.33,1.56s-.2,1.02-.28,1.56l-.37,2.39,2.11-.08c2.57-.13,5.1-.26,7.59-.38,1.49-.07,2.99-.15,4.5-.23l-.48,1.83,2.47-.24c2.11-.22,4.21-.42,6.29-.61,2.08-.19,4.18-.38,6.29-.57l1.87-.2.28-1.83c.14-.73.26-1.46.39-2.19.12-.73.26-1.46.42-2.19.46-.06.91-.1,1.36-.12.45-.03.91-.07,1.4-.12l1.79-.17.32-1.82c.08-.41.16-.81.24-1.22.08-.41.15-.81.21-1.22.54,1.49,1.08,2.98,1.62,4.47.54,1.48,1.05,3,1.54,4.54l.45,1.38,1.58-.28c2.68-.46,5.34-.92,7.99-1.36,2.65-.45,5.33-.9,8.03-1.36l3.41-.57-1.62-2.68c-.27-.4-.53-.82-.79-1.24s-.5-.83-.71-1.23c.87-.17,1.76-.32,2.68-.47.92-.15,1.82-.3,2.71-.47l3.41-.56-1.58-2.68c-1.81-2.92-3.55-5.86-5.21-8.81-1.67-2.94-3.31-5.93-4.93-8.96,1.11-.62,2.17-1.27,3.18-1.95,1.02-.68,1.98-1.41,2.9-2.21.92-.8,1.78-1.68,2.56-2.64.78-.96,1.51-2.03,2.19-3.22.95-.73,1.85-1.57,2.72-2.5.86-.93,1.64-1.91,2.31-2.94.68-1.03,1.25-2.1,1.73-3.23.1-.25.2-.49.28-.74,1.33-.04,2.66-.07,4-.09-1.87,8.23-3.71,16.4-5.52,24.53s-3.66,16.29-5.56,24.48l-.49,2.23,2.2-.04c2.21-.05,4.41-.09,6.59-.12,2.18-.02,4.36-.05,6.55-.08l1.95-.04.36-1.95c.19-.78.35-1.55.49-2.31s.28-1.53.45-2.31c.4,0,.81-.01,1.21-.02.41-.02.83-.02,1.26-.02l1.91-.04.4-1.91c1.36-7.09,2.87-14.12,4.53-21.1,1.66-6.98,3.49-13.98,5.5-21.01,1.65.05,3.28.12,4.91.22,1.28.07,2.54.15,3.79.24-.46,1.36-.8,2.75-1.03,4.16-.6,3.76-.25,7.09,1.05,9.98,1.3,2.9,3.33,5.33,6.09,7.3l-2.44,2.85-13.14,15.37.73,1.18c.92,1.46,2.01,2.8,3.28,4.01,1.28,1.22,2.68,2.26,4.2,3.13,1.53.86,3.17,1.53,4.93,2.01,1.76.47,3.61.71,5.56.71,2.22,0,4.44-.29,6.66-.87,2.21-.59,4.35-1.43,6.41-2.54,2.05-1.11,3.96-2.48,5.74-4.12.44-.41.87-.83,1.28-1.27,0,0,0,0,0,0-.53,2.5-1.06,4.99-1.59,7.5l-.49,2.31,2.31-.16c2.43-.16,4.86-.33,7.28-.51,2.42-.18,4.86-.34,7.32-.51l1.99-.12.2-1.99c.11-.73.21-1.45.3-2.17.09-.72.2-1.44.3-2.17.49-.05.97-.09,1.46-.12.49-.03.96-.05,1.42-.08l1.99-.12.24-1.95c.21-1.7.45-3.39.69-5.07.24-1.68.5-3.37.77-5.07.43-2.79.9-5.56,1.42-8.32.7,0,1.4,0,2.09.02.69.01,1.39.03,2.09.06l-6.04,28.28,2.31-.16c2.43-.16,4.86-.33,7.28-.51,2.42-.18,4.86-.34,7.32-.51l1.99-.12.2-1.99c.11-.73.21-1.45.3-2.17.09-.72.2-1.44.3-2.17.33-.04.66-.06.98-.08-.25,1.16-.49,2.33-.74,3.49l-.45,2.19,2.19-.04c2.05-.05,4.1-.1,6.12-.12,2.03-.03,4.08-.07,6.17-.12,1.3-.05,2.6-.09,3.89-.12,1.3-.03,2.6-.04,3.89-.04,2.79,0,5.54.04,8.26.12,2.38.07,4.77.19,7.16.35l-.49,1.85,2.47-.24c2.11-.22,4.21-.42,6.29-.61,2.08-.19,4.18-.38,6.29-.57l1.87-.2.29-1.83c.13-.73.26-1.46.38-2.19.12-.73.26-1.46.43-2.19.46-.05.91-.09,1.36-.12.45-.03.91-.07,1.4-.12l1.79-.16.32-1.83c.08-.41.16-.81.24-1.22.08-.41.15-.81.2-1.22.54,1.49,1.08,2.98,1.62,4.46.54,1.49,1.05,3,1.54,4.54l.45,1.38,1.58-.28c2.68-.46,5.34-.91,7.99-1.36,2.65-.45,5.33-.9,8.03-1.36l3.41-.57-1.62-2.68c-.27-.41-.54-.82-.79-1.24-.26-.42-.49-.83-.71-1.24.87-.16,1.76-.32,2.68-.47.37-.06.73-.13,1.1-.19.36.62.74,1.22,1.17,1.79.87,1.16,1.86,2.22,2.98,3.19,1.12.96,2.35,1.78,3.67,2.45,1.32.68,2.73,1.2,4.22,1.56s3.02.55,4.59.55c2.24,0,4.39-.39,6.43-1.18,2.04-.78,3.98-1.83,5.8-3.14,1.82-1.31,3.54-2.82,5.13-4.52s3.07-3.46,4.42-5.27c2-1.89,3.8-3.94,5.4-6.15s2.99-4.5,4.18-6.88c1.19-2.38,2.18-4.82,2.98-7.32.8-2.5,1.4-5.01,1.8-7.53.32-2.03.52-4.21.59-6.53.07-2.33-.06-4.63-.38-6.92Zm-330.6,12.96c-2.02,1.41-4.78,2.9-8.27,4.47s-7.75,2.84-12.78,3.81l-.77,2.84c-2.06,8.09-3.78,15.84-5.16,23.25-1.02.08-2.07.17-3.12.28-2.72.24-5.45.49-8.18.74-.4.04-.79.07-1.19.11,3.22-12.93,6.29-25.92,9.21-38.99,1.81-8.03,3.57-16.08,5.27-24.14,4.68-.89,9.02-1.34,13.03-1.34,3.19,0,7.03.47,11.54,1.4,3.2.67,5.79,1.99,7.78,3.98.81.8,1.53,1.71,2.14,2.74.17.35.33.69.47,1.03.51,1.24.8,2.43.85,3.55.06,1.44.06,2.37-.02,2.8v.12c-.03.19-.06.37-.08.53-.49,2.95-1.75,5.42-3.78,7.41-.95.93-1.97,1.82-3.05,2.67-1.21.97-2.51,1.88-3.89,2.74Zm83.3-10.42c-.13.85-.39,1.75-.78,2.7-.09.22-.19.44-.29.66-.56,1.19-1.16,2.21-1.81,3.05-.43.78-1.39,1.88-2.88,3.28-1.49,1.41-3.95,3.02-7.38,4.83-2.09,1.11-4.76,2.25-8.04,3.41.54,1.03,1.1,2.07,1.67,3.12,3.7,7.12,7.47,13.8,11.31,20.05-5.14.86-10.3,1.72-15.44,2.6-.21.04-.41.07-.62.11-2.08-6.37-4.6-13.01-7.59-19.92-.23-.56-.48-1.13-.73-1.7-2.11,7.92-3.76,15.44-4.95,22.56-3.1.28-6.21.57-9.31.87-.69.06-1.38.12-2.07.19-.4.03-.79.07-1.19.11.07-.26.13-.52.19-.78.08-.31.16-.61.23-.92l-6.14.32-.78.04c-2.13.12-4.25.22-6.35.32-.37.02-.74.03-1.11.05l.04-.28c.6-3.12,1.2-6.25,1.8-9.39.05-.27.1-.53.15-.8-1.71-.11-3.4-.23-5.08-.36-.24.89-.48,1.77-.73,2.63l-1.78,6.17c-2.44.03-4.87.07-7.31.12-3.18.07-6.37.15-9.56.22-.44.01-.87.02-1.31.03,5.3-13.12,10.39-26.35,15.26-39.68.11-.31.22-.61.34-.92h0c.5-1.37.99-2.72,1.48-4.08.01,0,.01-.02.01-.03,2.04-5.61,4.04-11.24,6-16.88,3.22-.08,6.46-.15,9.73-.2,3.44-.09,6.9-.17,10.39-.25-.06.3-.12.6-.18.9-.47,2.32-.9,4.7-1.28,7.14-1.19,7.6-2.1,15.89-2.72,24.87-.01.15-.02.31-.03.46v.03c-.54,9.75-.62,18.81-.24,27.16.28-1.07.54-2.14.8-3.21h0c.36-1.41.7-2.81,1.03-4.22,2.23-9.11,4.34-18.26,6.35-27.45,1.9-8.52,3.7-17.06,5.4-25.64,2.84-.29,5.55-.44,8.12-.44,4.89,0,9.85.7,14.89,2.11,3.46.96,6.29,2.53,8.49,4.7.01,0,.02.02.03.03.99.98,1.85,2.08,2.59,3.3.51.97.89,1.92,1.12,2.84s.36,1.69.38,2.31l.08.93c.03,1.06-.04,2.03-.2,2.93Zm27.79-6.01c-3.43,11.17-6.46,22.48-9.08,33.92-1.3,5.63-2.49,11.28-3.57,16.96-4.01.05-8,.11-12,.18-.38.01-.77.01-1.15.02,3.27-14.28,6.51-28.59,9.7-42.92l1.66-7.41.2-.87c-4.1.03-8.09.12-11.97.28-.39.01-.78.02-1.17.04.54-2.24,1.09-4.47,1.66-6.69l1.71-6.57c6.95-.08,13.91-.18,20.89-.29,6.95-.08,13.92-.17,20.89-.28-.05.29-.1.59-.15.88-.76,4.5-1.53,8.97-2.32,13.44-4.95-.32-10.05-.55-15.3-.69Zm36.89,47.31c-3.57,2.24-6.57,3.47-8.99,3.69-2.42.22-3.96.33-4.6.33-3.41,0-6.63-.84-9.66-2.52-1.01-.6-1.92-1.25-2.74-1.94,0,0,0,0-.01,0-.49-.42-.95-.85-1.37-1.3-1.12-1.19-2.01-2.29-2.66-3.32l10.27-12.01c.26.36.53.71.8,1.03.66.81,1.33,1.49,2.01,2.05.83.69,1.67,1.2,2.52,1.52,1.83.69,3.34,1.04,4.53,1.04,1.02,0,2.02-.18,3-.53,1.62-.68,2.81-1.54,3.55-2.6.74-1.05,1.17-1.94,1.28-2.67.1-.6.05-1.19-.16-1.79-.09-.19-.19-.36-.31-.53-.38-.52-.93-.93-1.66-1.23-.96-.4-2.12-.74-3.47-1.04-1.68-.35-3.47-.91-5.38-1.68-1.35-.55-2.66-1.37-3.91-2.45-.51-.43-1.01-.91-1.5-1.43-.19-.19-.54-.62-1.06-1.3-.51-.67-1.01-1.51-1.5-2.51-1.24-2.92-1.61-6.02-1.1-9.29.17-.98.65-2.8,1.47-5.48.81-2.68,2.86-5.65,6.16-8.91,3.3-3.25,7.13-5.07,11.48-5.45.25-.03.53-.04.86-.04.59,0,1.42.06,2.49.18,1.07.12,2.36.62,3.88,1.48.79.5,1.51,1.09,2.17,1.78,1.33,1.34,2.38,3.03,3.18,5.08,1.19,3.05,1.65,6.52,1.38,10.38-3.32-.02-6.65-.04-9.96-.04h-1.07c.02-.1.05-.23.08-.36.02-.25.06-.6.1-1.06.04-.46-.02-1.02-.16-1.7-.1-.45-.28-.86-.54-1.23-.13-.2-.29-.38-.46-.56l-.85-.52c-.22-.11-.45-.17-.69-.17-.11,0-.28.02-.51.07-.23.04-.49.12-.79.26-.3.13-.49.23-.57.28-.51.25-1.35.88-2.51,1.89-1.16,1.01-2.07,2.06-2.7,3.12-.63,1.07-1.01,1.96-1.12,2.66-.13.76-.08,1.52.17,2.27.34.93.91,1.68,1.73,2.25.35.26.75.48,1.19.67,1.46.63,3.14,1.17,5.03,1.63,2.11.46,4.2,1.13,6.27,2.01,1.49.63,2.8,1.52,3.94,2.68.45.45.87.94,1.27,1.47,1.43,2.25,2.12,4.25,2.05,6.01-.07,1.76-.18,3.14-.34,4.14-.2,1.19-.55,2.51-1.06,3.95-.51,1.45-.92,2.44-1.22,2.98-1.92,3.6-4.66,6.52-8.23,8.77Zm7.26-39.48c.54.03,1.1.04,1.66.04h.8c-.66,3.15-1.33,6.28-1.99,9.41-.11-.09-.23-.18-.35-.26-1.46-1.01-3.18-1.86-5.15-2.53.46.02.9.04,1.34.04h3.57l.16-2.24c.08-1.43.07-2.92-.04-4.46Zm41.14,34.45c-.49,2.97-.92,5.93-1.3,8.88l-7.3.49c-2.06.16-4.11.31-6.16.45-.38.03-.76.05-1.14.08,1.94-9.05,3.88-18.13,5.82-27.21.06-.28.12-.55.18-.83-3.65-.13-7.38-.2-11.2-.2h-1.42c-.86,4.22-1.69,8.53-2.47,12.94-.25,1.38-.47,2.75-.69,4.1-.54,3.43-1.03,6.83-1.46,10.18l-7.31.49c-2.05.16-4.09.31-6.15.45-.38.03-.77.05-1.15.08,3.06-14.31,6.1-28.63,9.13-42.97l4.54-21.66c1.33-.03,2.64-.04,3.94-.04,3.87-.09,7.74-.15,11.6-.21-.1.3-.2.59-.29.89-2.64,7.94-5.05,16.33-7.21,25.2.4,0,.79-.01,1.16-.02,3.12-.04,5.46-.1,7.03-.14,1.41-.06,2.83-.1,4.26-.12.11-.54.22-1.07.33-1.59.16-.78.32-1.55.48-2.31l4.55-21.66,15.54-.25c-.1.29-.2.59-.3.89-4.92,14.67-8.96,30.9-12.12,48.69-.32,1.81-.62,3.61-.89,5.4Zm23.74,7.62h-3.49c-.11,0-.27.01-.47.03-.2.01-.49.02-.87.02-.62,0-1.64.02-3.04.08-1.76.02-3.83.06-6.19.12-1.86.04-3.51.07-4.94.1-.39.01-.77.01-1.13.02,2.79-13.01,5.37-26.03,7.75-39.07,1.54-8.52,3.02-17.05,4.43-25.6l2.59-.08c.7-.03,1.41-.04,2.11-.04l.04-.04h1.22c.13-.03.28-.04.45-.04,1.73-.06,3.46-.1,5.19-.13,1.41-.05,2.8-.09,4.18-.12,4-.13,8-.31,12.01-.53,3.57-.18,7.12-.4,10.67-.64-.06.31-.13.62-.2.93-.13.61-.27,1.22-.41,1.82l-2.44,10.15c-3.62-.14-7.35-.21-11.19-.21-2.55,0-5.16.03-7.83.09-1.41.05-2.79.1-4.14.16-1.16,4.06-2.26,8.21-3.29,12.45.4,0,.79-.02,1.17-.03,2.65-.07,4.69-.12,6.13-.17,4.52-.19,9.02-.42,13.51-.69-.07.31-.15.62-.22.94-.46,1.96-.9,3.94-1.32,5.92-.38,1.76-.78,3.5-1.22,5.23-5.27-.32-10.76-.5-16.47-.53-1.19.03-2.36.04-3.53.04-.08,0-.16.02-.24.05h-.2c-1.03,4.95-1.95,10.04-2.76,15.29l-.24,1.54c.36-.01.72-.02,1.08-.04,3.26-.09,6.66-.31,10.19-.65,4.52-.46,8.71-1.04,12.58-1.74-.06.35-.13.7-.19,1.06-.53,2.92-1.06,5.86-1.59,8.8l-1.14,6c-5.3-.32-10.82-.49-16.55-.49Zm21.69-44.33c-.06.3-.12.6-.19.91-2.91.18-5.81.33-8.71.46-3.07.14-6.15.24-9.23.32.08-.3.16-.6.22-.91.07-.31.16-.63.26-.95,1.03-.03,2.06-.05,3.08-.06,1.03-.01,2.05-.02,3.08-.02,3.76,0,7.46.08,11.12.24h.36Zm-3.67,16.99c-.27,1.2-.52,2.39-.79,3.59-.53,2.34-1.09,4.67-1.63,7.01-2.31.36-4.63.68-6.93.92-3.57.38-7.14.64-10.71.77.16-1.03.32-2.04.49-3.04.16-1,.34-2.01.53-3.04,2.35.03,4.69.07,7,.14,2.31.07,4.63.18,6.96.34l1.95.12.49-1.99c.19-.84.38-1.66.57-2.48s.38-1.62.57-2.43c.35.03.7.05,1.05.06.15,0,.31.02.46.03Zm43.52-6.86c-1.49,1.41-3.95,3.02-7.39,4.83-2.08,1.11-4.76,2.25-8.03,3.41.54,1.03,1.09,2.07,1.66,3.12,3.71,7.12,7.48,13.8,11.32,20.05-5.15.86-10.3,1.72-15.45,2.61-.2.03-.41.07-.61.1-2.08-6.37-4.6-13.01-7.59-19.92-.23-.56-.48-1.13-.73-1.7-2.11,7.92-3.76,15.44-4.95,22.56-3.8.34-7.6.7-11.39,1.06-.4.03-.79.07-1.19.11,3.27-12.93,6.34-25.92,9.21-38.99,1.89-8.52,3.69-17.06,5.4-25.64,2.84-.29,5.54-.44,8.11-.44,4.9,0,9.86.7,14.89,2.11,3.46.96,6.29,2.53,8.5,4.7.01,0,.02.02.03.03.99.98,1.85,2.08,2.59,3.3.51.97.88,1.92,1.11,2.84.23.92.36,1.69.39,2.31l.08.93c.03,1.06-.04,2.03-.2,2.93-.17,1.05-.52,2.17-1.08,3.36-.55,1.19-1.15,2.21-1.8,3.05-.44.78-1.4,1.88-2.88,3.28Zm-5.69,9.05c-.35,1.44-.64,2.85-.85,4.22-.3,1.87-.49,3.79-.57,5.76,0,0,0,.01,0,.02-1.23-2.21-2.45-4.43-3.65-6.68,1.11-.62,2.17-1.27,3.18-1.95.65-.43,1.27-.9,1.88-1.38Zm52.36-7.81c-.77,4.83-2.16,9.34-4.19,13.53-1.47,3.06-3.56,6.26-6.27,9.6-2.72,3.34-5.62,5.87-8.7,7.58-3.09,1.72-6.05,2.58-8.89,2.58-1.24,0-2.53-.14-3.86-.41-1.05-.19-2.57-.77-4.56-1.76-.95-.47-1.88-1.1-2.79-1.87-.98-.83-1.94-1.84-2.87-3.02-2.3-3.25-3.56-6.76-3.77-10.53-.22-3.77-.08-7.19.4-10.24.3-1.84.71-3.7,1.22-5.56,1.38-5.03,3.39-9.75,6.03-14.16,2.63-4.41,5.72-8.01,9.25-10.79,3.53-2.79,7.29-4.28,11.3-4.47,1.37,0,2.61.13,3.69.37,1.08.24,1.96.5,2.63.77l1.14.49c.7.32,1.57.82,2.6,1.48.96.62,1.91,1.38,2.84,2.3.07.06.13.12.2.19,2.41,2.55,3.97,5.96,4.69,10.25.71,4.29.69,8.84-.09,13.67Z"/>
      <path d="m486.22,40.47c-1.41-1.64-3.98-2.47-7.74-2.47-.67,0-1.39.03-2.15.08-1.24,4.98-2.39,10.31-3.45,15.99.38-.09.77-.19,1.17-.31,1.71-.49,3.58-1.27,5.59-2.33,2.47-1.3,4.5-3.22,6.06-5.76.41-.65.7-1.22.88-1.72.17-.5.28-.85.3-1.04.11-.65,0-1.31-.32-1.99-.11-.16-.22-.31-.34-.45Zm-7.09,9.1c-.05.03-.09.05-.1.06-.01.01-.06.03-.14.06-1.16.62-2.31,1.15-3.45,1.58.13-.7.27-1.4.4-2.09.14-.69.29-1.39.45-2.09.46.14.88.3,1.28.49.39.19.72.42.99.69.05.05.13.13.22.22.09.1.15.17.18.22.16.27.22.55.16.85Z"/>
      <path d="m246.82,87.17c-.19.8-.39,1.6-.6,2.4l.71-.04c-.04-.78-.08-1.57-.11-2.36Z"/>
      <path d="m210,41.67c-.53-.86-1.6-1.32-3.22-1.42-1.66-.09-3.01-.14-4.03-.14-1.25,0-2.51.04-3.78.12-1.43,4.06-2.84,8.31-4.22,12.74.41-.2.89-.44,1.46-.73.96-.5,2.15-1.14,3.57-1.9,2.25-1.22,4.39-2.53,6.41-3.94,2.03-1.4,3.3-2.66,3.82-3.77.05-.14.08-.26.08-.37.03-.08.03-.17.02-.28-.02-.11-.03-.19-.06-.24-.01-.02-.03-.05-.05-.07Z"/>
      <path d="m282.09,40.47c-1.41-1.64-3.98-2.47-7.73-2.47-.68,0-1.4.03-2.15.08-1.25,4.98-2.4,10.31-3.45,15.99.38-.09.77-.19,1.17-.31,1.72-.5,3.58-1.27,5.58-2.33,2.48-1.3,4.5-3.22,6.07-5.76.4-.65.7-1.22.87-1.72.18-.5.28-.85.31-1.04.1-.65,0-1.31-.33-1.99-.11-.16-.22-.31-.34-.45Zm-7.18,9.16s-.07.03-.15.06c-1.16.62-2.31,1.15-3.45,1.58.14-.7.28-1.4.41-2.09.14-.69.28-1.39.45-2.09.46.14.88.3,1.27.49.4.19.73.42,1,.69l.22.22c.1.1.16.17.18.22.17.27.22.56.17.86-.06.02-.09.04-.1.06Z"/>
      <path d="m230.46,69.41l1.16.08,3.34.24c.51-3.52,1-7.03,1.46-10.55l1.84-12.76h0s1.2-8.34,1.2-8.34l-1.66,5.76c-2.46,8.53-4.91,17.05-7.34,25.57Z"/>
    </g>
    <path d="m158.57,120.52c-.02-1.42-.16-2.46-.2-3.26-.1-.8-.17-1.35-.22-1.76-.33-2.46-.9-4.33-1.62-6.02-.52-1.22-1.14-2.34-1.88-3.5.49-.88.96-1.86,1.38-3,.46-1.28,1.31-3.92,1.64-7.25.03-.45.07-.9.1-1.36.03-.48.03-.97.05-1.46-.02-.99-.09-1.99-.14-3.01-.09-1.02-.29-2.04-.43-3.07-.21-1.02-.51-2.04-.77-3.07-1.07-3.57-2.89-6.99-5.22-9.94-.12-1.19-.27-2.38-.45-3.56-.16-1.08-.35-2.16-.56-3.23-.13-.67-.27-1.34-.42-2-.09-.42-.19-.84-.29-1.26-.08-.35-.17-.7-.26-1.04,0-.03-.01-.05-.02-.08-.14-.56-.29-1.12-.46-1.68-.2-.74-.42-1.48-.66-2.22-.1-.33-.2-.65-.31-.97-.1-.3-.2-.59-.3-.88-.17-.5-.35-.99-.53-1.49-.15-.41-.31-.82-.47-1.23-1.42-3.66-3.12-7.19-5.08-10.55-.25-.44-.51-.88-.77-1.31-.32-.52-.64-1.04-.97-1.55-.25-.4-.5-.79-.77-1.18-.25-.38-.5-.75-.76-1.12-.24-.35-.49-.71-.75-1.06-.27-.38-.55-.76-.84-1.14-.25-.34-.51-.68-.78-1.02-.21-.28-.43-.57-.65-.84-.46-.58-.93-1.16-1.42-1.72-.31-.38-.64-.75-.96-1.12-.83-.95-1.69-1.87-2.57-2.77-.31-.33-.63-.65-.95-.96-2.01-2.01-4.14-3.9-6.37-5.66-.31-.25-.62-.49-.94-.73-.62-.49-1.26-.96-1.9-1.41-.32-.24-.64-.46-.96-.68-.16-.12-.33-.24-.5-.35-.31-.21-.62-.42-.93-.62-.9-.61-1.81-1.19-2.75-1.74-.33-.2-.66-.4-.99-.59-.35-.21-.7-.41-1.06-.6-.42-.25-.85-.48-1.28-.71-4.25-2.28-8.75-4.16-13.44-5.6-.51-.16-1.03-.32-1.55-.46-.6-.17-1.2-.34-1.81-.49-.47-.13-.95-.24-1.43-.35-.38-.1-.77-.18-1.16-.27-.16-.04-.32-.07-.49-.1-.5-.11-1.01-.22-1.52-.31-.5-.1-1.01-.19-1.51-.28-.19-.03-.38-.06-.57-.09-.43-.07-.86-.14-1.28-.2-.15-.02-.29-.04-.43-.06-.48-.07-.96-.13-1.44-.18-.51-.07-1.02-.12-1.53-.17-.58-.06-1.17-.11-1.76-.16-.48-.04-.97-.07-1.46-.09-1.45-.09-2.9-.13-4.37-.13-.68,0-1.37,0-2.05.02.02-.09.08-.19.11-.28l.07-.18.04-.08.1-.12c.13-.16.25-.31.38-.47l.09-.11s.16-.14.23-.2l.54-.45c1.06-.89,2.1-1.77,3.1-2.61.33-.28.65-.55.98-.82l.6-.51-.24.06c-.32.09-.64.17-.95.25-.43.12-.84.22-1.24.33-.39.1-.76.2-1.1.29-.23.06-.42.11-.57.15t-.02.01c-.86.23-1.68.44-2.45.64-.43.11-.87.25-1.29.38-.21.07-.41.13-.62.2-.21.08-.43.2-.64.29-.43.22-.84.37-1.24.61-.2.11-.4.25-.6.38-.16.11-.31.21-.46.31-.4.32-.79.6-1.11.92-.61.57-1.09,1.12-1.47,1.62-.03,0-.07.01-.1.01-1.13.15-2.25.32-3.37.52-.37.07-.74.13-1.11.21-.77.14-1.54.3-2.3.48-.42.09-.83.19-1.24.29-.28.06-.57.13-.85.21-.77.19-1.53.4-2.28.62-.4.11-.8.23-1.2.35-.45.14-.89.28-1.33.43-.46.15-.92.3-1.37.46-.54.19-1.08.38-1.61.58-1.6.59-3.17,1.24-4.72,1.95-1.03.47-2.05.96-3.05,1.47-.51.25-1,.51-1.5.78-.49.27-.99.54-1.48.82-.38.21-.76.43-1.13.65-1.19.69-2.34,1.42-3.48,2.18-.37.24-.73.49-1.09.74-.46.32-.92.64-1.37.97-.33.23-.66.48-.98.72-.35.26-.7.53-1.05.79-2.1,1.63-4.11,3.36-6.02,5.2-.4.38-.79.76-1.18,1.15-.43.43-.85.86-1.27,1.3-.42.44-.83.88-1.24,1.33-.35.39-.7.79-1.05,1.18-.1.12-.21.24-.31.36-.35.4-.69.81-1.02,1.21-.37.44-.72.89-1.08,1.33-.03.04-.07.09-.1.13-.71.92-1.41,1.84-2.08,2.79-.38.53-.75,1.06-1.11,1.59-.65.96-1.27,1.94-1.88,2.93-.03.05-.07.1-.09.15-.63,1.04-1.24,2.1-1.83,3.17-.29.54-.57,1.08-.85,1.63-.27.52-.53,1.04-.79,1.57-.02.04-.04.09-.06.14-.26.53-.51,1.07-.75,1.6-.23.52-.46,1.04-.68,1.56-.17.38-.32.76-.47,1.14-.16.36-.3.72-.43,1.08-.64,1.62-1.21,3.26-1.73,4.93-.17.58-.35,1.16-.51,1.74-.64,2.24-1.17,4.52-1.6,6.83-.1.52-.19,1.03-.27,1.55-.08.46-.15.93-.22,1.4-.04.28-.08.57-.12.85-.12.87-.22,1.76-.3,2.64-.04.35-.07.71-.1,1.07-.03.31-.05.62-.07.92-.04.53-.07,1.06-.1,1.6-.02.41-.04.83-.05,1.25-.01.28-.02.56-.03.85-.01.6-.02,1.2-.02,1.8,0,22.69,9.96,43.05,25.75,56.94,0,.01.01.01.01.01.3.26.6.52.9.78.6.51,1.2,1.01,1.81,1.49.38.31.76.61,1.15.9.31.24.62.48.93.7.29.23.58.44.87.64.29.22.59.43.89.64.45.32.91.64,1.38.95.42.28.84.56,1.27.83.51.33,1.03.65,1.55.97.96.58,1.93,1.14,2.91,1.68.39.21.78.42,1.17.63.67.35,1.35.7,2.03,1.02.36.18.72.35,1.08.52.12.06.23.12.35.16.47.22.94.43,1.42.64.51.23,1.03.45,1.55.66.53.22,1.05.43,1.58.63.53.2,1.06.4,1.59.59.96.35,1.93.68,2.91.98,2.28.72,4.62,1.33,6.99,1.83.57.12,1.13.24,1.7.34.57.11,1.14.21,1.71.3.58.1,1.15.18,1.73.26.43.06.85.12,1.28.17.36.05.73.09,1.1.13.29.03.58.06.88.09.2.02.4.04.6.05.46.04.92.08,1.38.11.48.04.97.07,1.46.09.4.02.8.04,1.2.05.3.01.6.02.91.03.6.01,1.19.02,1.79.02s1.16-.01,1.73-.02c.12,0,.25-.01.37-.01.07,0,.13,0,.2,0,.1,0,.2-.01.3-.01h.04c.13-.01.26-.01.39-.02.26,0,.52-.01.78-.03.14,0,.28-.01.42-.02.1,0,.19-.01.28-.01.07-.01.15-.01.22-.02.13,0,.26-.02.4-.03.15,0,.29-.01.44-.03h.01s.02.01.03,0c.31-.02.61-.04.91-.07.12,0,.25-.02.37-.03.81,1.71,1.7,3.19,2.49,4.31,1.67,2.37,2.7,3.34,3.27,3.96,1.78,1.8,3.45,2.91,5.13,3.73.85.4,1.71.73,2.61,1.01.46,1.6.9,3.02,1.44,4.44.12.27.08.26.08.32-.02.05,0,.09-.05.11-.05.03-.09.05-.13.06-.03.02-.06.06-.07.09l-.12.16-.24.34c-.62.94-1.14,2.06-1.46,3.39-.1.45-.23,1.05-.3,1.93-.06.88-.08,2.06.25,3.6.29,1.36.87,2.91,1.87,4.39.99,1.48,2.42,2.88,4.18,3.88.87.5,1.82.9,2.82,1.19l.75.19c.13.03.26.05.39.08.16.02.44.08.65.11.88.06,1.79.14,2.58.08l1.25-.06.64-.03h.32c.09.01.01-.07.01-.11l-.06-.14c-.31-.75-.54-1.44-.92-2.22-.6-1.17-1.18-2.32-1.76-3.45-.79-1.55-1.55-3.04-2.25-4.4-.17-.34-.34-.67-.5-.99-.1-.21-.19-.41-.22-.62-.1-.42-.09-.83,0-1.18.16-.73.58-1.19.89-1.45.32-.25.53-.35.53-.35-.01.04.72-.49,1.96-.14.6.2,1.23.59,1.63,1.43.6,1.18,1.27,2.48,1.97,3.85.35.69.71,1.4,1.07,2.12.26.5.52,1.02.79,1.53.37.71.74,1.54,1.13,2.09l.58.91.28.46c.03.08.06-.01.09-.04l.09-.11.18-.23,1.42-1.79c.44-.66.91-1.28,1.28-2.05l.2-.41c.05-.11.1-.22.14-.33l.26-.66c.63-1.79.84-3.68.68-5.45-.19-1.77-.71-3.4-1.44-4.74-.99-1.85-2.23-3.08-3.26-3.91-1.06-.84-1.95-1.28-2.56-1.57-1.24-.56-2.45-.84-3.56-.93-.28-.03-.56-.04-.83-.03h-.38s-.02.03-.04.04c-.03.01-.11.08-.14.05-.04-.01-.09-.04-.14-.07l-.04-.03-.1-.14-.18-.28-.38-.55c-.26-.36-.52-.72-.79-1.1-.28-.36-.56-.73-.85-1.11.76-.95,1.46-2.08,2.07-3.47.12-.3.26-.67.43-1.11.13-.46.33-.98.47-1.6.17-.66.33-1.43.43-2.31.01-.03.02-.07.02-.11.12.07.23.14.35.2,2.69,1.53,5.22,2.46,9.24,2.9,1.22.1,3.57.34,7.35.13,2.46-.13,5.64-.54,8.57-1.26,2.93-.71,5.6-1.68,7.18-2.35.46-.22,1.02-.39,1.28-.64l.12-.09s.03-.03.07-.04h.18c.24-.02.42-.16.61-.27l.03-.02s-.04-.08-.04-.09h.02s.08-.04.08-.04l.14-.09c.11-.04.18-.13.25-.21l.23-.25c.58-.65,1.1-1.23,1.58-1.77.95-1.08,1.69-1.96,2.25-2.69.59-.74.91-1.26,1.16-1.6.24-.34.35-.5.35-.5,0,0,.75-1.09,1.83-2.93,1.09-1.83,2.41-4.46,3.53-7.48s2-6.42,2.46-9.65c.48-3.22.57-6.24.48-8.48Zm-15.3-57.01c-.95-.82-2.73-2.44-6.09-4.16-2.06-1.12-5.18-2.26-7.84-2.78-.66-.11-1.29-.24-1.86-.33-.58-.06-1.09-.11-1.52-.16s-.78-.07-1.02-.07c-.24-.01-.37-.02-.37-.02,0,0-.63-.04-1.65-.04-.5.02-1.11.03-1.77.06-.67.06-1.4.11-2.16.22-.75.09-1.54.24-2.32.41-.83-.24-1.67-.43-2.53-.55-1.85-.23-3.86-.23-6.34.28-.83.18-2.19.51-3.83,1.1.07-.28.1-.57.1-.9.01-.75-.11-3-.53-5.02-.2-1.01-.44-1.97-.64-2.67-.22-.69-.36-1.14-.36-1.14,0,0-.57-1.79-1.47-3.64-.29-.64-.63-1.27-.96-1.85.1-.22.2-.45.3-.69.19-.48.41-1,.58-1.51.11-.3.21-.6.31-.91.2-.62.37-1.3.52-2.02.12-.58.27-1.42.39-2.44.07-.5.12-1.06.15-1.65.02-.29.03-.6.05-.91,0-.31.01-.63.02-.95-.01-.36-.02-.73-.02-1.11-.1-2.98-.66-6.17-1.76-9.22-.54-1.52-1.21-3-1.98-4.41-.18-.33-.37-.66-.57-.98,21.99,7.42,39.1,25.49,45.17,48.06Zm-74.39,5c.9.03,1.81.05,2.69.03,2.54-.04,4.89-.3,6.62-.57,2.8-.46,4.12-.84,4.93-1.05.34-.09.66-.19.96-.28.38-.12.74-.23,1.06-.34.45-.32.57-.41.77-.56.18-.15.36-.3.54-.44.35-.3.67-.59.98-.9.46-.45.87-.91,1.25-1.37.13-.16.25-.31.37-.47.97-1.27,1.74-2.64,2.44-4.27-1.38,1.11-2.61,1.95-3.85,2.78-.64.42-1.26.83-1.9,1.25-.22.14-.44.28-.66.43h-.01c-.11.07-.23.15-.34.22-.18.11-.36.22-.54.33-.14.08-.32.2-.37.22h-.01s-.12.03-.16.04c-.14.03-.28.07-.42.11-.29.08-.59.16-.91.24-.76.19-1.99.53-4.61.96-1.62.25-3.82.49-6.2.53-2.38.05-4.94-.11-7.27-.44-.58-.09-1.15-.18-1.69-.28-.29-.05-.57-.1-.84-.15v-.03c-.02-.42-.03-.81-.05-1.16-.07-1.58-.11-2.57-.11-2.57v-.03c-.01-.07-.01-.26-.03-.55,0-.37-.07-.91-.04-1.59.02-1.35.06-3.23.23-5.32.29-4.2,1.21-9.26,2.13-12.79.9-3.48,1.68-5.56,2.05-6.66,1.4-3.8,2.07-6.26,2.87-9.44,1.22.87,2.68,1.58,4.33,1.97,2.16.55,4.64.5,7.07-.32.3-.11.6-.22.9-.35t.03,0l-.08.36c-.13.56-.32,1.14-.58,1.71l-.17.37c-.08.17-.18.34-.28.5-.21.34-.38.67-.7,1.03l-.42.54-.5.59c-.35.4-.7.81-1.05,1.22l-.53.62c-.13.17-.52.5-.17.39l.78-.03c.69-.03,1.39-.07,2.1-.1.68-.04,1.32-.02,2.07-.16l1.1-.16,1.12-.31.54-.16c.16-.05.23-.09.34-.13l.63-.27c.41-.2.82-.4,1.21-.64.78-.48,1.52-1.03,2.17-1.66,1.34-1.24,2.33-2.77,2.98-4.33.23-.54.16-.38.19-.46h.01s.06.03.06.03c.1.07.2.15.3.22.12.09.23.18.33.26.15.12.28.24.4.35.18.17.41.4.47.47l-.02.14-.04.2c-.03.13-.06.25-.08.37-.07.24-.13.47-.2.67-.27.83-.58,1.39-.79,1.77-.17.28-.33.54-.5.79l-.17.24c-.1.14-.21.27-.32.4-.21.22-.41.44-.61.66-.46.15-.79.49-1,.98-.18.17-.38.36-.56.54-.45.43-.89.86-1.11,1.14.87.03,2.96.38,3.17.38.25,0,1.01.07,1.58.48.58.38.86.96.86.96,0,0,.3.56.29,1.26.01.7-.37,1.37-.52,1.56-.27.37-.65,1.47-.05,2.08.47.25.91.39,1.31.39.31,0,.6-.08.86-.26.1.29.24.58.44.87.39.55,1.51,2.24,2.29,3.91.82,1.66,1.34,3.27,1.34,3.27,0,0,.12.4.31,1.02.18.63.39,1.48.57,2.39.37,1.81.48,3.84.49,4.51.04.72.22,1.27.55,1.83-.24.11-.47.21-.72.33-.06.03-.14.07-.22.11-.12.05-.22.12-.22.12,0,0-.3.15-.43.22-2.55,1.38-3.61,2.3-4.31,2.8-.55.45-1.06.9-1.51,1.33-2.37,2.26-3.59,4.41-4.54,7.06-1.95-.44-3.91-.76-5.87-.95-4.16-.42-8.23-.25-11.91.29-.92.14-1.82.29-2.68.48-.44.09-.86.18-1.28.27h0c.38-.4.69-.76.83-.93.25-.32.31-.67.25-1.1Zm-10.48-8.27c0,.08.01.16.01.22.01.25.02.38.02.38,0,0,.04,1.03.11,2.67.02.45.04.95.06,1.47.02.47.05.94.07,1.43l.02.38v.19s0,.07.02.1l.09.02c.25.05.51.11.77.17.49.1,1,.21,1.52.33.3.05.59.11.9.17.58.1,1.19.2,1.81.29.59.09,1.2.16,1.81.22-.29.32-.64.68-.99,1.02-.7.68-1.37,1.26-1.37,1.26,0,0-.68.57-1.47,1.15-.31.22-.62.44-.91.63-1.03-.99-2.02-1.86-3.13-2.66-.78-.53-1.51-1.04-2.61-1.51-.92-.39-1.98-.77-3.17-1.1-1.18-.31-3.45-.95-7.21-1.39-1.46-.17-3.06-.27-4.73-.3.39-.5.7-1.02.99-1.73.08-.19.18-.48.33-.83.17-.34.37-.75.59-1.2.27-.43.53-.91.85-1.37.29-.36.53-.77.84-1.13.06-.08.13-.16.2-.23.37-.42.73-.85,1.11-1.19.36-.36.71-.68,1.03-.91.61-.52,1.04-.8,1.04-.8,0,0,.11-.07.3-.19s.45-.33.81-.51c.69-.39,1.66-.88,2.73-1.25.53-.18,1.08-.37,1.63-.48.28-.06.55-.12.81-.18.26-.04.52-.08.77-.11.25-.04.49-.07.71-.1.22-.01.43-.02.62-.03.39-.02.7-.04.9-.05.92,0,1.6-.16,2.34-.44,0,.13-.02.26-.03.38-.18,2.19-.22,4.14-.23,5.55-.03.7.03,1.27.04,1.66Zm39.12,4.29c.39-.28.91-.71,1.8-1.29.54-.34,1.21-.75,2.07-1.21.12-.05.38-.22.38-.22,0,0,.09-.04.2-.09.07-.03.14-.06.2-.09,2.7-1.33,5.1-1.94,6.29-2.21.33-.07.63-.13.94-.19-.72.37-1.31.69-1.78.98-.71.41-1.17.73-1.52.97-.86.61-1.61,1.21-2.27,1.81-2.51,2.28-3.75,4.6-4.9,7.63,1.53-1.39,2.87-2.4,4.23-3.47,1.38-1.04,2.81-2.11,4.69-3.38.31-.22.73-.51,1.37-.87.11-.07.23-.14.35-.21.58-.33,1.33-.72,2.3-1.17,1.73-.82,4.82-1.83,7.55-2.19.68-.09,1.34-.13,1.93-.2.6-.02,1.14-.04,1.6-.06.91.01,1.48.04,1.48.04,0,0,.12,0,.33.01.22,0,.53.02.92.07.38.05.85.1,1.36.15.52.08,1.08.2,1.67.3,2.39.47,5.18,1.5,7.03,2.5,2.2,1.13,3.64,2.2,4.6,2.99-2.59-1.23-5.18-2-7.56-2.45h-.02c-.79-.15-1.56-.27-2.29-.35-.75-.04-1.47-.08-2.15-.12-.34-.01-.68-.03-1-.04-.32.01-.63.01-.94.02-1.21.01-2.25.16-3.11.24-.86.14-1.52.25-1.97.32-.45.11-.69.16-.69.16,0,0-.24.06-.68.16-.46.09-1.1.3-1.93.54-1.64.53-3.98,1.42-6.55,2.99-1.31.77-2.63,1.75-3.97,2.86-1.33,1.14-2.63,2.47-3.87,3.95-.3.39-.59.77-.89,1.17l-.23.29-.07.1-.09.13-.08.13s-.03-.01-.05-.01l-.58-.31c-1.78-.95-3.68-1.81-5.64-2.55-1.81-.68-3.69-1.25-5.59-1.71,2.27-2.17,4.15-3.73,7.13-6.12Zm-30.89-51.62c.02-.19.04-.35.08-.51.06-.35.14-.62.18-.83.09-.29.14-.44.14-.44,0,0,.02-.08.11-.33.1-.24.25-.66.59-1.29.36-.62.89-1.47,1.88-2.39.24-.25.54-.45.84-.7l.09-.06v.07c-.01.62.06,1.31.3,2.02.43,1.31,1.47,2.66,3.05,3.39.09.05.18.09.28.13.85.33,1.86.5,2.82.37l.36-.04.23-.03.53-.06c.36-.04.72-.08,1.09-.1.78-.06,1.59-.08,2.42-.06,2.15.18,4.27.45,6.36.82,1.99.5,3.98,1.23,5.88,2.22l.4.21h0s.25.36.25.36c.1.14.2.29.29.44.39.6.77,1.21,1.11,1.84.7,1.27,1.3,2.6,1.78,3.96.98,2.73,1.49,5.59,1.58,8.27,0,.33.01.67.02,1-.01.28-.02.57-.02.85-.01.28-.03.55-.04.82-.03.53-.07,1.02-.13,1.48-.11.91-.23,1.67-.34,2.19-.12.65-.25,1.26-.39,1.83-.06.29-.13.57-.19.84,0,.06.02.06.03.12,0,.03.01.07.01.11-.41-.45-.87-.73-1.4-.91.14-.49.22-1.03.23-1.55,0-.75-.15-1.45-.32-1.94-.17-.5-.34-.8-.34-.8,0,0-.15-.3-.45-.73-.3-.43-.79-.95-1.4-1.38-.13-.08-.26-.16-.39-.24l.04-.06.09-.12c.24-.31.47-.66.69-1.02.3-.52.7-1.25,1.07-2.35.1-.28.18-.58.27-.9.03-.16.07-.33.11-.5l.05-.27c.02-.11.04-.22.06-.34.03-.63.42-1.42-.3-1.92-.57-.67-.8-.88-1.16-1.23-.15-.14-.32-.29-.52-.46-.14-.11-.29-.23-.44-.35-.13-.09-.27-.19-.4-.29l-.3-.2-.38-.24c-.52-.32-1.08-.59-1.63-.83-.28-.13-.56-.26-.84-.38l-.44-.2-.22-.1c-.07-.03-.16-.1-.15.03-.17.68-.32,1.43-.51,2.08-.17.63-.39,1.54-.49,1.65-.49,1.16-1.23,2.32-2.24,3.25-.49.48-1.05.89-1.63,1.25-.3.17-.61.33-.91.48l-.47.2-.21.09h-.02s-.01.01-.01.01c0,0,0,.01-.01.01h0s.05-.12.05-.12c.34-.76.59-1.53.77-2.28l.11-.55c.06-.3.08-.61.13-.91.04-.31.06-.6.06-.89.01-.3.03-.59.01-.86-.06-1.09-.11-2.17-.17-3.24v-.34s0-.08-.03-.06l-.1.07-.22.16-.85.63c-.58.42-1.14.86-1.68,1.22-.51.34-1.08.63-1.52.83-.22.1-.44.19-.67.27-1.81.61-3.7.65-5.32.24-1.63-.39-3.02-1.18-4.08-2.14-1.06-.95-1.81-2.04-2.3-3.09-.97-2.12-.96-4-.81-5.18ZM10.6,101.84c-.32,1.01-.51,2.06-.57,3.14-.02-.06-.05-.12-.06-.18-.19-.51-.37-1.02-.53-1.54-.37-1.15-.72-2.32-1.04-3.49-.16-.59-.32-1.18-.46-1.78-.11-.48-.22-.96-.33-1.44-.1-.48-.2-.96-.3-1.44-.09-.49-.19-.97-.27-1.46-.17-.98-.32-1.96-.45-2.95-.07-.48-.13-.96-.17-1.45-.01-.02-.01-.04-.01-.06-.04-.32-.07-.65-.1-.98-.03-.26-.05-.52-.07-.78-.03-.38-.06-.76-.08-1.14-.01-.06-.01-.11-.01-.17-.04-.47-.06-.95-.08-1.43-.03-.5-.04-1.01-.05-1.52s-.02-1.02-.02-1.53C6,47.34,30.85,18.75,63.49,12.9c-.16,1.57-.08,3.9,1.12,6.51.65,1.4,1.64,2.85,3.05,4.11.16.14.34.27.51.4-2.2,2.56-3.69,4.84-5.21,8.85-.4,1.14-1.22,3.31-2.16,6.93-.8,3.05-1.58,7.18-2,10.99-.69-.44-1.47-.7-2.52-.72-.24.01-.61.02-1.06.04-.23.01-.48.02-.75.03-.26.04-.55.08-.84.12-.3.04-.61.08-.93.13-.31.07-.63.14-.96.22-.66.13-1.31.35-1.95.57-1.27.44-2.43,1.03-3.25,1.51-.42.21-.73.46-.96.6-.23.15-.35.24-.35.24,0,0-.52.32-1.25.93-.38.29-.8.66-1.23,1.09-.45.41-.89.91-1.33,1.42-.12.13-.23.27-.34.41-1.34-.46-2.64-.77-4-.87-.93-.06-1.9-.19-2.94-.06-1.03.1-2.16.18-3.38.53-.6.18-1.51.32-2.66.78-.58.22-1.24.44-1.97.74-.71.34-1.5.72-2.37,1.14-.58.31-1.19.71-1.84,1.1-.67.37-1.31.85-1.96,1.34-1.34.93-2.55,2.11-3.63,3.16-1.02,1.11-1.94,2.1-2.48,2.91-.58.78-.94,1.26-.94,1.26,0,0-.1.14-.27.41-.16.27-.4.67-.7,1.15-.63.95-1.29,2.38-2,3.93-.3.81-.61,1.65-.92,2.49-.24.87-.45,1.74-.67,2.58-.22.84-.29,1.68-.42,2.43-.05.38-.11.75-.16,1.09-.02.34-.03.67-.05.97-.21,2.88,0,4.28.06,5.13.26,2.51.87,4.43,1.67,6.11.63,1.3,1.39,2.46,2.33,3.62-.48.81-.89,1.68-1.18,2.62Zm1.04-6.93c-.26-1.71-.54-3.47-.76-5.73-.04-.76-.23-2.01-.03-4.61.13-2.13.74-5.74,1.99-8.57.64-1.39,1.21-2.68,1.79-3.53.26-.43.47-.79.62-1.03.15-.25.24-.38.24-.38,0,0,.32-.42.84-1.12.49-.73,1.32-1.61,2.24-2.61,1.9-1.96,4.6-3.9,6.67-5.02.78-.38,1.49-.72,2.13-1.02.65-.27,1.25-.47,1.76-.67,1.03-.42,1.85-.55,2.38-.71,1.09-.34,2.09-.47,3.01-.69.92-.26,1.79-.32,2.64-.52,1.08-.24,2.14-.44,3.3-.6-.09.13-.18.26-.28.38-.37.55-.69,1.12-1,1.63-.27.54-.5,1.03-.7,1.44-.19.41-.3.76-.39.99-.4,1.08-.4,1.97-.16,2.85-1.75.05-3.56.18-5.38.44-.54.07-1.09.16-1.64.25l-1,.19c-.26.06-.54.08-.78.17l-.5.62-.62.76c-.17.22-.35.43-.51.66l-.98,1.33c-1.28,1.79-2.4,3.64-3.36,5.45-1.93,3.61-3.12,7.09-3.83,9.62-.34,1.26-.59,2.29-.73,3.01-.14.71-.22,1.11-.22,1.11,0,0-.09.47-.22,1.32-.15.85-.31,2.09-.43,3.62-.01.07-.01.09-.01.09h-.01s-.14.07-.42.2c-.91.43-1.83.97-2.68,1.69-.85.7-1.65,1.56-2.34,2.54-.26-1.24-.45-2.39-.63-3.55Zm94.56,62.13c-.09.91-.25,1.7-.42,2.35-.11.52-.28.96-.39,1.34-.14.37-.25.68-.35.94-.29.68-.58,1.29-.87,1.86h0c-.57,1.15-1.15,2.12-1.77,3.06-.93,1.41-1.9,2.75-3.36,4.22,1.97-.61,3.59-1.47,5.06-2.69.41-.34.8-.71,1.18-1.12.07.34.14.68.21,1,.11.45.21.89.32,1.32l.17.65.09.32.04.16.1.28.42,1.14c.05.08.05.24.14.26l.3.02.62.04.67.05.32.05c.21.03.42.08.63.13.84.19,1.73.47,2.66.9.46.23,1.13.56,1.91,1.19.78.63,1.7,1.55,2.45,2.94.55,1.01.93,2.24,1.08,3.56.12,1.33-.04,2.75-.51,4.1l-.2.49c-.03.09-.06.17-.1.25-.02.04-.05.1-.07.13,0-.01-.01-.04-.04-.08l-.27-.54c-.37-.72-.73-1.42-1.08-2.11-.7-1.37-1.37-2.67-1.97-3.85-.35-.73-.93-1.47-1.55-1.96-.62-.5-1.3-.84-1.95-1.04-1.3-.4-2.44-.26-3.16-.07-.72.19-1.09.4-1.09.4,0,0-.11.05-.31.17-.21.11-.5.29-.85.58-.67.56-1.58,1.58-1.94,3.14-.18.77-.21,1.66-.01,2.57.1.46.27.91.49,1.36.16.32.33.65.5.99.69,1.36,1.45,2.85,2.25,4.41.2.39.4.78.6,1.18l.06.12c-.1-.02-.2-.03-.29-.06l-.57-.14c-.75-.22-1.46-.52-2.12-.9-2.67-1.51-4.15-4.18-4.54-6.21-.25-1.15-.24-2.03-.2-2.7.05-.66.15-1.11.22-1.45.23-1.01.55-1.87.92-2.66l.15-.28.07-.15c.03-.06.02-.05.12-.21.24-.37.47-.73.7-1.09l.08-.14s.07-.08.02-.13l-.18-.27-.35-.53c-.22-.34-.48-.74-.58-.85-.83-1.07-1.69-2.05-2.67-3.11.65.17,1.33.32,2.05.44-1.64-1.25-2.88-2.39-4.15-3.56-.05-.05-.09-.08-.14-.12h0c-1.22-1.14-2.5-2.31-4.02-3.88-.52-.56-1.43-1.43-2.93-3.56-.55-.79-1.16-1.78-1.75-2.91-.42-.8-.83-1.69-1.19-2.62-.11-.28-.23-.56-.33-.85l-.24-.72.11-.17c.07-.14.15-.26.23-.38.28-.44.58-.86.9-1.25h.01c.42-.55.87-1.03,1.33-1.49,1.62-1.64,3.46-2.7,4.84-3.32.7-.3,1.27-.52,1.68-.63.41-.14.64-.2.64-.2,0,0,.14-.03.39-.09.26-.07.64-.16,1.12-.24.03,0,.05,0,.08,0,.46-.09,1.02-.13,1.65-.2.25,0,.52-.01.8-.02l.27.1c.17.08.36.15.54.23.91.41,1.86.94,2.78,1.6.58.4,1.16.86,1.7,1.37.71.65,1.36,1.39,1.95,2.17.08.15.38.88.38.93.03.11.06.23.09.34.09.36.17.71.24,1.06.24,1.27.27,2.53.27,2.94,0,.61-.03,1.19-.08,1.71Zm-8.72-47.41c.16,1.1.95,4.37,2.28,7.15,1.28,2.79,2.97,5.03,2.97,5.03,0,0,1.6,2.3,3.85,4.39,2.22,2.13,5.08,3.9,6.07,4.42.74.38,1.4.6,2.05.71-.12.1-.23.19-.33.28-1.53,1.28-2.58,2.52-3.33,3.55-.74,1.04-1.19,1.86-1.5,2.44-.13.27-.26.52-.38.78-.1.23-.23.42-.34.64-.23.4-.47.78-.72,1.13-.5.71-1.03,1.33-1.6,1.9-.78.78-1.65,1.51-2.73,2.14-1.2-.88-2.44-1.61-3.62-2.13-.22-.09-.44-.18-.66-.27-.3-.12-.6-.24-.9-.35-.53.02-1.05.04-1.53.05-.79.08-1.49.14-2.06.26-.14.02-.24.04-.36.06-.1-.44-.19-.88-.29-1.31-.1-.44-.21-.87-.31-1.3,0-.1,0-.18.01-.25l.02-.09.12-.06.2-.09c.18-.16.36-.34.52-.52.33-.38.69-.75.99-1.2.64-.86,1.24-1.86,1.74-3.07.28-.64.65-1.64.96-2.92.15-.63.3-1.34.39-2.11l.06-.56c.02-.23.05-.46.06-.69,0-.46.04-.92.03-1.39-.02-.48-.03-.96-.07-1.44-.06-.48-.1-.97-.18-1.46-.62-3.93-2.64-8.01-5.92-11.06-1.63-1.53-3.54-2.8-5.63-3.67-1.04-.46-2.13-.8-3.23-1.06-.38-.1-.77-.17-1.16-.23,1.25-.22,2.74-.52,4.06-.83.96-.24,1.83-.46,2.47-.62.63-.18,1.02-.29,1.02-.29,0,0,1.31-.36,2.98-.89.77-.25,1.62-.55,2.45-.85.32.78.74,1.38,1.5,1.97.08.07.22.17.39.29-.13.3-.23.6-.31.91-.15.77-.23,1.6-.03,2.61Zm-9.97,13.83c-.1-.22-.2-.45-.3-.67l-.28-.56c-.18-.36-.37-.73-.56-1.11-.77-1.5-1.58-3.09-2.43-4.75-.84-1.66-1.72-3.39-2.63-5.16-.17-.33-.33-.66-.5-.99l1.19.13c.47.09.94.14,1.4.27.92.22,1.83.5,2.7.89,1.76.73,3.36,1.79,4.72,3.07,2.75,2.55,4.45,5.99,4.97,9.27.05.42.1.83.15,1.23.04.4.04.81.06,1.2.01.4-.02.79-.03,1.17,0,.2-.03.39-.05.57l-.05.48c-.07.64-.2,1.24-.32,1.77-.26,1.07-.56,1.92-.79,2.46-.41,1.02-.85,1.89-1.29,2.69-.19.42-.45.78-.65,1.16-.11.19-.22.38-.34.55-.22.31-.45.62-.67.93l-.32.44.3.51.56.95c.27.36.53.73.8,1.1.23.3.47.61.71.92-.06.01-.14.03-.19.05-.31.07-.47.11-.47.11,0,0-.28.07-.76.23-.49.14-1.18.4-2.01.75-1.64.74-3.84,2-5.78,3.95-.15.15-.31.32-.46.48-.1-.36-.21-.71-.32-1.05-.14-.43-.28-.86-.42-1.28-.07-.22-.13-.4-.23-.66l-.48-1.05-.13-.28-.06-.14s-.05-.09-.1-.08h-.58c-.38.01-.77.02-1.16.02-.43,0-.87-.07-1.33-.09-.45-.04-.92-.12-1.41-.17-.49-.09-1.01-.15-1.54-.27-1.15-.24-3.5-.85-5.9-2.49l-.47-.31-.5-.39c-.34-.26-.67-.53-.98-.84-.33-.28-.63-.6-.93-.93-.31-.31-.58-.66-.86-1.01-1.09-1.42-1.99-3.06-2.59-4.83-1.2-3.54-1.14-7.62.28-11.12.32-.88.76-1.71,1.23-2.51l.12-.21.05.11.17.33c.44.86.87,1.7,1.3,2.53,1.69,3.32,3.25,6.37,4.57,8.96.08.16.16.32.24.48.11.18.21.37.31.55.21.37.47.7.72,1.02.51.63,1.09,1.13,1.68,1.55,1.18.82,2.39,1.22,3.39,1.39,1.01.17,1.82.14,2.36.07.54-.05.82-.13.82-.13,0,0,.07-.02.21-.05.13-.03.34-.08.59-.17.52-.15,1.26-.47,2.12-1.02.85-.56,1.79-1.43,2.53-2.67.74-1.22,1.26-2.84,1.18-4.63-.03-.89-.21-1.82-.56-2.72Zm67.47,5.09c-.43,3.01-1.24,6.19-2.3,9.01-1.03,2.83-2.27,5.29-3.29,7.01-1,1.72-1.71,2.74-1.71,2.74,0,0-.1.15-.32.47-.23.3-.57.84-1.06,1.46-.51.65-1.22,1.5-2.14,2.55-.46.52-.98,1.09-1.54,1.72l-.21.23c-.09.04-.18.08-.27.12-.55.26-.91.4-1.38.61-1.49.62-3.98,1.53-6.72,2.18-2.74.67-5.71,1.06-8.01,1.18-3.55.2-5.74-.01-6.88-.1-4-.4-6.52-.54-9.79-.78.04-.52.06-1.05.06-1.63.01-.48-.03-1.98-.32-3.5-.13-.61-.22-1.18-.44-1.81-.16-.54-.42-1.13-.85-1.84-.7-.92-1.48-1.8-2.32-2.58-.19-.17-.38-.33-.57-.48-.07-.07-.15-.13-.22-.19.39-.06.77-.13,1.15-.24.69-.17,1.35-.43,1.99-.77.55-.29,1.07-.64,1.58-1.07.31-.25.61-.53.91-.84.38-.4.75-.86,1.09-1.37.16-.27.34-.53.48-.81.14-.26.27-.52.42-.79.51-.91,1.5-2.83,4.06-5.01.35-.3.86-.69,1.3-.98.44-.31.79-.52.79-.52,0,0,.45-.22.99-.5.52-.29,1.17-.57,1.56-.72,2.36-.85,3.6-.9,4.33-.99.19-.02.37-.04.55-.05.35-.03.68-.04,1-.05.47-.02.91,0,1.35.02.86.06,1.66.2,2.44.39.78.19,1.55.45,2.34.8.79.35,1.59.81,2.41,1.43-.43-.91-.94-1.71-1.56-2.42-.65-.75-1.41-1.39-2.29-1.92-.85-.5-1.81-.9-2.91-1.14-.03-.01-.07-.01-.1-.02-.52-.1-1.08-.17-1.65-.19-.6-.03-1.21-.02-1.86.04-.86.1-2.34.15-5.16,1.17-.47.16-1.25.5-1.87.85-.63.34-1.15.62-1.15.62,0,0-.09.05-.21.12-.2-.24-.4-.45-.6-.65-.52-.53-1.11-.98-1.92-1.42-.87-.49-3.44-2.07-5.43-3.98-2.03-1.87-3.47-3.93-3.47-3.93,0,0-1.51-2.02-2.65-4.53-1.19-2.49-1.9-5.42-2.07-6.4-.12-.54-.24-1.01-.39-1.44.71.41,1.49.83,2.27,1.19,2.15,1.02,4.25,1.61,4.25,1.61,0,0,2.07.66,4.43.97,2.36.37,4.97.33,5.83.26,1.59-.12,2.45-.78,3.53-1.97-1.41-.78-2.26-1.21-3.69-1.15-.77.04-3.11.07-5.23-.25-2.12-.27-3.98-.86-3.98-.86,0,0-1.87-.53-3.8-1.46-.97-.45-1.95-.99-2.75-1.49-.81-.49-1.4-.91-1.76-1.18-.25-.18-.48-.31-.71-.43,1.73-.7,3.1-1.33,4.18-1.85.37-.17.71-.34,1.04-.49.11-.06.23-.1.33-.17.06-.11.11-.22.17-.32.11-.2.21-.39.31-.57.18-.36.37-.63.5-.87,1.18-1.85,2.3-3.16,3.44-4.41,1.14-1.23,2.34-2.38,4.02-3.58-2.04.26-3.79.82-5.44,1.79-1.64.97-3.23,2.34-4.65,4.53-.16.28-.39.61-.61,1.03,0,.01-.01.01-.01.02h-.01c-.14.07-.28.14-.44.21-1.04.5-2.36,1.11-4.03,1.77-1.34.56-3.25,1.25-4.84,1.78-1.59.52-2.85.87-2.85.87,0,0-.38.1-.98.27-.61.15-1.45.36-2.37.59-1.84.42-4.03.83-5.34,1.02-2.66.41-3.95.51-4.74.6-2.34.2-4.17.44-5.92.71-1.75.28-3.42.56-5.45,1.02,1.97.54,3.67,1.03,5.48,1.27,1.75.25,3.63.29,5.97.12l.05.1c.38.86.85,1.77,1.31,2.67.29.56.57,1.12.86,1.67.9,1.78,1.78,3.5,2.63,5.16.85,1.66,1.66,3.25,2.43,4.75.19.38.38.75.56,1.11.09.18.2.38.27.53l.19.42c.21.57.32,1.14.35,1.7.05,1.12-.28,2.15-.75,2.91-.46.78-1.04,1.32-1.58,1.68-.54.34-1.01.55-1.33.64-.32.12-.51.12-.51.13,0,0-.17.06-.51.09-.34.05-.84.06-1.48-.05-.63-.1-1.39-.35-2.14-.87-.36-.26-.72-.58-1.05-.97-.14-.21-.32-.41-.44-.65l-.21-.36c-.08-.16-.16-.32-.25-.48-1.32-2.59-2.87-5.64-4.56-8.96-.43-.83-.86-1.68-1.3-2.54-.36-.71-.73-1.43-1.1-2.16-.44-.89-.9-1.65-1.36-2.49-.03-.05-.06-.11-.09-.15l-.11.14-.23.29-.45.57c-.3.39-.61.76-.91,1.16l-.87,1.19-.43.6c-.18.23-.18.29-.27.43-.56.95-1.08,1.94-1.47,2.99-1.68,4.17-1.76,9.03-.33,13.26.72,2.11,1.78,4.07,3.09,5.75.33.43.66.84,1.03,1.22.35.39.72.77,1.11,1.11.37.36.76.69,1.17,1l.59.46.56.38c2.87,1.95,5.68,2.67,7.04,2.94.64.14,1.26.18,1.84.25.59.02,1.14.05,1.68.02.54-.05,1.05-.06,1.54-.16.15-.04.14-.07.22-.1.06-.05.12-.08.16-.04.05.02.11.06.18.1l.41.5c.29.33.59.67.88,1.02.3.33.6.67.92,1.01-.6.67-1.16,1.39-1.65,2.16-.1.15-.2.3-.29.46l-.26.44c-.91.07-1.83.14-2.75.18-.48.02-.97.04-1.45.05-.47.01-.94.02-1.41.02-1.16,0-2.32-.03-3.47-.09-.58-.02-1.15-.06-1.72-.1s-1.14-.09-1.71-.15c-.57-.06-1.13-.12-1.7-.19-.5-.06-1.01-.13-1.51-.21-.62-.08-1.23-.18-1.84-.29-.56-.09-1.11-.19-1.66-.31-.46-.08-.91-.18-1.36-.28-.15-.03-.3-.06-.45-.1-.49-.11-.98-.23-1.47-.35-1.42-.35-2.82-.75-4.21-1.19-2.3-.74-4.55-1.59-6.75-2.55-.45-.2-.9-.4-1.34-.61-.32-.15-.64-.3-.96-.45-.13-.06-.25-.12-.38-.18-.07-.04-.14-.07-.21-.11-.04-.02-.07-.04-.11-.06-.36-.16-.71-.34-1.05-.53-.03-.01-.06-.03-.09-.04-.77-.39-1.53-.8-2.28-1.24-.39-.21-.78-.43-1.16-.67-.76-.45-1.52-.92-2.26-1.39-2.23-1.44-4.38-3.01-6.44-4.68-.34-.27-.68-.55-1.02-.85-.33-.29-.67-.58-1-.87-.32-.27-.64-.56-.96-.86-.01-.02-.03-.03-.04-.04-.32-.28-.64-.57-.95-.89-.09-1.31-.32-2.71-.8-4.3-.29-.8-.64-2.17-1.95-4.75-1.48-2.93-4.09-6.64-7.79-9.66l-.67-.56c-.18-.15-.36-.3-.53-.48-.36-.35-.69-.72-.98-1.13-.6-.8-1.07-1.71-1.39-2.66-.64-1.91-.62-4.03-.03-5.86.58-1.84,1.72-3.38,3.01-4.45.64-.55,1.34-.95,2.01-1.27.07-.05.37-.17.74-.31.07.14.17.26.31.33.25.14,1.04.49,1.77.79.73.3,1.4.54,1.4.54,0,0,.67.27,1.42.52.74.26,1.57.52,1.84.59.52.12.96-.31,1.63-1.16-.15-1.08-.27-1.67-.73-1.83-.26-.09-1.02-.34-1.73-.57-.69-.24-1.33-.46-1.33-.46,0,0-.62-.26-1.3-.53-.68-.29-1.42-.61-1.67-.72-.04-.02-.08-.01-.12-.01v-.06c.11-1.43.27-2.59.4-3.39.13-.79.21-1.23.21-1.23,0,0,.07-.37.21-1.04.12-.67.36-1.63.68-2.82.67-2.36,1.78-5.61,3.59-8.99.9-1.69,1.95-3.42,3.14-5.09l.92-1.25c.15-.21.33-.4.48-.61l.4-.49.58-.1,1.53-.24c4.08-.57,8.11-.52,11.41-.14,3.52.41,5.65,1,6.76,1.28,1.12.31,2.12.58,3.06.83.76.2,1.66.54,2.48.81,1.11.38,2.23.74,3.43,1.12-.14.09-.25.16-.32.21-.16.11-.27.25-.36.41-3.02,1.51-4.93,3.23-7.14,5.66,3.89-1.39,6.4-2.2,10.73-3.86.58-.23,1.48-.53,2.59-.87.56-.16,1.17-.36,1.84-.52.35-.09.7-.18,1.06-.27.4-.08.8-.17,1.2-.26.81-.17,1.65-.31,2.51-.44,3.44-.5,7.26-.67,11.14-.28,3.89.38,7.83,1.29,11.5,2.68,1.84.69,3.61,1.49,5.28,2.38l.31.17.44.24,1.22.7.61.34.31.18.15.08c.05.03.07-.07.1-.09l.71-1.06.71-1.05.32-.49.21-.26c.27-.35.53-.7.8-1.05,1.11-1.33,2.28-2.52,3.47-3.54,1.21-1,2.39-1.89,3.56-2.57,2.31-1.42,4.41-2.21,5.88-2.69.74-.22,1.32-.41,1.73-.49.4-.09.61-.14.61-.14,0,0,.21-.05.61-.14.41-.07,1.01-.17,1.77-.3.78-.06,1.71-.2,2.8-.2.28,0,.56-.02.85-.03.29.02.59.03.89.05.62.03,1.26.07,1.94.1,2.68.32,5.82,1.06,8.95,2.57,2.02.96,4.01,2.24,5.86,3.8,1.02.86,2,1.81,2.9,2.84,1.46,1.66,2.75,3.53,3.78,5.52,0,0,0,.01.01.01.75,1.45,1.37,2.95,1.83,4.49.22.93.5,1.84.68,2.76.13.93.31,1.84.39,2.75.04.92.11,1.82.12,2.7-.01.45-.01.89-.04,1.32-.03.41-.06.82-.09,1.22-.29,2.99-1.04,5.36-1.45,6.51-.77,2.13-1.46,3.77-2.13,5.37-.68,1.59-1.34,3.13-2.31,4.95,1.71-1.14,3.06-2.32,4.26-3.75.38-.45.74-.94,1.09-1.46.11,1.04.21,2.03.32,3.03.19,1.74.46,3.54.73,5.84.05.39.11.91.2,1.65.04.75.17,1.73.18,3.06.09,2.09-.01,4.91-.45,7.93Z"/>
    <path class="cls-6" d="m106.28,155.33c0,.61-.03,1.19-.08,1.71-.09.91-.25,1.7-.42,2.35-.11.52-.28.96-.39,1.34-.14.37-.25.68-.35.94-.29.68-.58,1.29-.87,1.86h0c-.57,1.15-1.15,2.12-1.77,3.06-.93,1.41-1.9,2.75-3.36,4.22-1.64-1.25-2.88-2.39-4.15-3.56-.05-.05-.09-.08-.14-.12h0c-1.22-1.14-2.5-2.31-4.02-3.88-.52-.56-1.43-1.43-2.93-3.56-.55-.79-1.16-1.78-1.75-2.91-.42-.8-.83-1.69-1.19-2.62-.11-.28-.23-.56-.33-.85l-.24-.72.11-.17c.07-.14.15-.26.23-.38.28-.44.58-.86.9-1.25h.01c.42-.55.87-1.03,1.33-1.49,1.62-1.64,3.46-2.7,4.84-3.32.7-.3,1.27-.52,1.68-.63.41-.14.64-.2.64-.2,0,0,.14-.03.39-.09.26-.07.64-.16,1.12-.24.03,0,.05,0,.08,0,.46-.09,1.02-.13,1.65-.2.25,0,.52-.01.8-.02l.27.1c.17.08.36.15.54.23.91.41,1.86.94,2.78,1.6.58.4,1.16.86,1.7,1.37.71.65,1.36,1.39,1.95,2.17.08.15.38.88.38.93.03.11.06.23.09.34.09.36.17.71.24,1.06.24,1.27.27,2.53.27,2.94Z"/>
    <path class="cls-7" d="m140.34,65.13c-2.59-1.23-5.18-2-7.56-2.45h-.02c-.79-.15-1.56-.27-2.29-.35-.75-.04-1.47-.08-2.15-.12-.34-.01-.68-.03-1-.04-.32.01-.63.01-.94.02-1.21.01-2.25.16-3.11.24-.86.14-1.52.25-1.97.32-.45.11-.69.16-.69.16,0,0-.24.06-.68.16-.46.09-1.1.3-1.93.54-1.64.53-3.98,1.42-6.55,2.99-1.31.77-2.63,1.75-3.97,2.86-1.33,1.14-2.63,2.47-3.87,3.95-.3.39-.59.77-.89,1.17l-.23.29-.07.1-.09.13-.08.13s-.03-.01-.05-.01l-.58-.31c-1.78-.95-3.68-1.81-5.64-2.55-1.81-.68-3.69-1.25-5.59-1.71,2.27-2.17,4.15-3.73,7.13-6.12.39-.28.91-.71,1.8-1.29.54-.34,1.21-.75,2.07-1.21.12-.05.38-.22.38-.22,0,0,.09-.04.2-.09.07-.03.14-.06.2-.09,2.7-1.33,5.1-1.94,6.29-2.21.33-.07.63-.13.94-.19-.72.37-1.31.69-1.78.98-.71.41-1.17.73-1.52.97-.86.61-1.61,1.21-2.27,1.81-2.51,2.28-3.75,4.6-4.9,7.63,1.53-1.39,2.87-2.4,4.23-3.47,1.38-1.04,2.81-2.11,4.69-3.38.31-.22.73-.51,1.37-.87.11-.07.23-.14.35-.21.58-.33,1.33-.72,2.3-1.17,1.73-.82,4.82-1.83,7.55-2.19.68-.09,1.34-.13,1.93-.2.6-.02,1.14-.04,1.6-.06.91.01,1.48.04,1.48.04,0,0,.12,0,.33.01.22,0,.53.02.92.07.38.05.85.1,1.36.15.52.08,1.08.2,1.67.3,2.39.47,5.18,1.5,7.03,2.5,2.2,1.13,3.64,2.2,4.6,2.99Z"/>
    <path class="cls-7" d="m65.61,68.28c-.29.32-.64.68-.99,1.02-.7.68-1.37,1.26-1.37,1.26,0,0-.68.57-1.47,1.15-.31.22-.62.44-.91.63-1.03-.99-2.02-1.86-3.13-2.66-.78-.53-1.51-1.04-2.61-1.51-.92-.39-1.98-.77-3.17-1.1-1.18-.31-3.45-.95-7.21-1.39-1.46-.17-3.06-.27-4.73-.3.39-.5.7-1.02.99-1.73.08-.19.18-.48.33-.83.17-.34.37-.75.59-1.2.27-.43.53-.91.85-1.37.29-.36.53-.77.84-1.13.06-.08.13-.16.2-.23.37-.42.73-.85,1.11-1.19.36-.36.71-.68,1.03-.91.61-.52,1.04-.8,1.04-.8,0,0,.11-.07.3-.19s.45-.33.81-.51c.69-.39,1.66-.88,2.73-1.25.53-.18,1.08-.37,1.63-.48.28-.06.55-.12.81-.18.26-.04.52-.08.77-.11.25-.04.49-.07.71-.1.22-.01.43-.02.62-.03.39-.02.7-.04.9-.05.92,0,1.6-.16,2.34-.44,0,.13-.02.26-.03.38-.18,2.19-.22,4.14-.23,5.55-.03.7.03,1.27.04,1.66,0,.08.01.16.01.22.01.25.02.38.02.38,0,0,.04,1.03.11,2.67.02.45.04.95.06,1.47.02.47.05.94.07,1.43l.02.38v.19s0,.07.02.1l.09.02c.25.05.51.11.77.17.49.1,1,.21,1.52.33.3.05.59.11.9.17.58.1,1.19.2,1.81.29.59.09,1.2.16,1.81.22Z"/>
    <path class="cls-3" d="m99.29,31.17c-.01.28-.02.57-.02.85-.01.28-.03.55-.04.82-.03.53-.07,1.02-.13,1.48-.11.91-.23,1.67-.34,2.19-.12.65-.25,1.26-.39,1.83-.06.29-.13.57-.19.84,0,.06.02.06.03.12,0,.03.01.07.01.11-.41-.45-.87-.73-1.4-.91.14-.49.22-1.03.23-1.55,0-.75-.15-1.45-.32-1.94-.17-.5-.34-.8-.34-.8,0,0-.15-.3-.45-.73-.3-.43-.79-.95-1.4-1.38-.13-.08-.26-.16-.39-.24l.04-.06.09-.12c.24-.31.47-.66.69-1.02.3-.52.7-1.25,1.07-2.35.1-.28.18-.58.27-.9.03-.16.07-.33.11-.5l.05-.27c.02-.11.04-.22.06-.34.03-.63.42-1.42-.3-1.92-.57-.67-.8-.88-1.16-1.23-.15-.14-.32-.29-.52-.46-.14-.11-.29-.23-.44-.35-.13-.09-.27-.19-.4-.29l-.3-.2-.38-.24c-.52-.32-1.08-.59-1.63-.83-.28-.13-.56-.26-.84-.38l-.44-.2-.22-.1c-.07-.03-.16-.1-.15.03-.17.68-.32,1.43-.51,2.08-.17.63-.39,1.54-.49,1.65-.49,1.16-1.23,2.32-2.24,3.25-.49.48-1.05.89-1.63,1.25-.3.17-.61.33-.91.48l-.47.2-.21.09h-.02s-.01.01-.01.01c0,0,0,.01-.01.01h0s.05-.12.05-.12c.34-.76.59-1.53.77-2.28l.11-.55c.06-.3.08-.61.13-.91.04-.31.06-.6.06-.89.01-.3.03-.59.01-.86-.06-1.09-.11-2.17-.17-3.24v-.34s0-.08-.03-.06l-.1.07-.22.16-.85.63c-.58.42-1.14.86-1.68,1.22-.51.34-1.08.63-1.52.83-.22.1-.44.19-.67.27-1.81.61-3.7.65-5.32.24-1.63-.39-3.02-1.18-4.08-2.14-1.06-.95-1.81-2.04-2.3-3.09-.97-2.12-.96-4-.81-5.18.02-.19.04-.35.08-.51.06-.35.14-.62.18-.83.09-.29.14-.44.14-.44,0,0,.02-.08.11-.33.1-.24.25-.66.59-1.29.36-.62.89-1.47,1.88-2.39.24-.25.54-.45.84-.7l.09-.06v.07c-.01.62.06,1.31.3,2.02.43,1.31,1.47,2.66,3.05,3.39.09.05.18.09.28.13.85.33,1.86.5,2.82.37l.36-.04.23-.03.53-.06c.36-.04.72-.08,1.09-.1.78-.06,1.59-.08,2.42-.06,2.15.18,4.27.45,6.36.82,1.99.5,3.98,1.23,5.88,2.22l.4.21h0s.25.36.25.36c.1.14.2.29.29.44.39.6.77,1.21,1.11,1.84.7,1.27,1.3,2.6,1.78,3.96.98,2.73,1.49,5.59,1.58,8.27,0,.33.01.67.02,1Z"/>
    <path class="cls-1" d="m40.46,58.1c-.09.13-.18.26-.28.38-.37.55-.69,1.12-1,1.63-.27.54-.5,1.03-.7,1.44-.19.41-.3.76-.39.99-.4,1.08-.4,1.97-.16,2.85-1.75.05-3.56.18-5.38.44-.54.07-1.09.16-1.64.25l-1,.19c-.26.06-.54.08-.78.17l-.5.62-.62.76c-.17.22-.35.43-.51.66l-.98,1.33c-1.28,1.79-2.4,3.64-3.36,5.45-1.93,3.61-3.12,7.09-3.83,9.62-.34,1.26-.59,2.29-.73,3.01-.14.71-.22,1.11-.22,1.11,0,0-.09.47-.22,1.32-.15.85-.31,2.09-.43,3.62-.01.07-.01.09-.01.09h-.01s-.14.07-.42.2c-.91.43-1.83.97-2.68,1.69-.85.7-1.65,1.56-2.34,2.54-.26-1.24-.45-2.39-.63-3.55-.26-1.71-.54-3.47-.76-5.73-.04-.76-.23-2.01-.03-4.61.13-2.13.74-5.74,1.99-8.57.64-1.39,1.21-2.68,1.79-3.53.26-.43.47-.79.62-1.03.15-.25.24-.38.24-.38,0,0,.32-.42.84-1.12.49-.73,1.32-1.61,2.24-2.61,1.9-1.96,4.6-3.9,6.67-5.02.78-.38,1.49-.72,2.13-1.02.65-.27,1.25-.47,1.76-.67,1.03-.42,1.85-.55,2.38-.71,1.09-.34,2.09-.47,3.01-.69.92-.26,1.79-.32,2.64-.52,1.08-.24,2.14-.44,3.3-.6Z"/>
    <path class="cls-1" d="m114.7,131.33c-.12.1-.23.19-.33.28-1.53,1.28-2.58,2.52-3.33,3.55-.74,1.04-1.19,1.86-1.5,2.44-.13.27-.26.52-.38.78-.1.23-.23.42-.34.64-.23.4-.47.78-.72,1.13-.5.71-1.03,1.33-1.6,1.9-.78.78-1.65,1.51-2.73,2.14-1.2-.88-2.44-1.61-3.62-2.13-.22-.09-.44-.18-.66-.27-.3-.12-.6-.24-.9-.35-.53.02-1.05.04-1.53.05-.79.08-1.49.14-2.06.26-.14.02-.24.04-.36.06-.1-.44-.19-.88-.29-1.31-.1-.44-.21-.87-.31-1.3,0-.1,0-.18.01-.25l.02-.09.12-.06.2-.09c.18-.16.36-.34.52-.52.33-.38.69-.75.99-1.2.64-.86,1.24-1.86,1.74-3.07.28-.64.65-1.64.96-2.92.15-.63.3-1.34.39-2.11l.06-.56c.02-.23.05-.46.06-.69,0-.46.04-.92.03-1.39-.02-.48-.03-.96-.07-1.44-.06-.48-.1-.97-.18-1.46-.62-3.93-2.64-8.01-5.92-11.06-1.63-1.53-3.54-2.8-5.63-3.67-1.04-.46-2.13-.8-3.23-1.06-.38-.1-.77-.17-1.16-.23,1.25-.22,2.74-.52,4.06-.83.96-.24,1.83-.46,2.47-.62.63-.18,1.02-.29,1.02-.29,0,0,1.31-.36,2.98-.89.77-.25,1.62-.55,2.45-.85.32.78.74,1.38,1.5,1.97.08.07.22.17.39.29-.13.3-.23.6-.31.91-.15.77-.23,1.6-.03,2.61.16,1.1.95,4.37,2.28,7.15,1.28,2.79,2.97,5.03,2.97,5.03,0,0,1.6,2.3,3.85,4.39,2.22,2.13,5.08,3.9,6.07,4.42.74.38,1.4.6,2.05.71Z"/>
    <path class="cls-1" d="m155.43,120.62c-.01-1.33-.14-2.31-.18-3.06-.09-.74-.15-1.26-.2-1.65-.27-2.3-.54-4.1-.73-5.84-.11-1-.21-1.99-.32-3.03-.35.52-.71,1.01-1.09,1.46-1.2,1.43-2.55,2.61-4.26,3.75.97-1.82,1.63-3.36,2.31-4.95.67-1.6,1.36-3.24,2.13-5.37.41-1.15,1.16-3.52,1.45-6.51.03-.4.06-.81.09-1.22.03-.43.03-.87.04-1.32-.01-.88-.08-1.78-.12-2.7-.08-.91-.26-1.82-.39-2.75-.18-.92-.46-1.83-.68-2.76-.46-1.54-1.08-3.04-1.83-4.49-.01,0-.01-.01-.01-.01-1.03-1.99-2.32-3.86-3.78-5.52-.9-1.03-1.88-1.98-2.9-2.84-1.85-1.56-3.84-2.84-5.86-3.8-3.13-1.51-6.27-2.25-8.95-2.57-.68-.03-1.32-.07-1.94-.1-.3-.02-.6-.03-.89-.05-.29.01-.57.02-.85.03-1.09,0-2.02.14-2.8.2-.76.13-1.36.23-1.77.3-.4.09-.61.14-.61.14,0,0-.21.05-.61.14-.41.08-.99.27-1.73.49-1.47.48-3.57,1.27-5.88,2.69-1.17.68-2.35,1.57-3.56,2.57-1.19,1.02-2.36,2.21-3.47,3.54-.27.35-.53.7-.8,1.05l-.21.26-.32.49-.71,1.05-.71,1.06s-.05.12-.1.09l-.15-.08-.31-.18-.61-.34-1.22-.7-.44-.24-.31-.17c-1.67-.89-3.44-1.69-5.28-2.38-3.67-1.39-7.61-2.3-11.5-2.68-3.88-.39-7.7-.22-11.14.28-.86.13-1.7.27-2.51.44-.4.09-.8.18-1.2.26-.36.09-.71.18-1.06.27-.67.16-1.28.36-1.84.52-1.11.34-2.01.64-2.59.87-4.33,1.66-6.84,2.47-10.73,3.86,2.21-2.43,4.12-4.15,7.14-5.66.09-.16.2-.3.36-.41.07-.05.18-.12.32-.21-1.2-.38-2.32-.74-3.43-1.12-.82-.27-1.72-.61-2.48-.81-.94-.25-1.94-.52-3.06-.83-1.11-.28-3.24-.87-6.76-1.28-3.3-.38-7.33-.43-11.41.14l-1.53.24-.58.1-.4.49c-.15.21-.33.4-.48.61l-.92,1.25c-1.19,1.67-2.24,3.4-3.14,5.09-1.81,3.38-2.92,6.63-3.59,8.99-.32,1.19-.56,2.15-.68,2.82-.14.67-.21,1.04-.21,1.04,0,0-.08.44-.21,1.23-.13.8-.29,1.96-.4,3.39v.06s.08,0,.12.01c.25.11.99.43,1.67.72.68.27,1.3.53,1.3.53,0,0,.64.22,1.33.46.71.23,1.47.48,1.73.57.46.16.58.75.73,1.83-.67.85-1.11,1.28-1.63,1.16-.27-.07-1.1-.33-1.84-.59-.75-.25-1.42-.52-1.42-.52,0,0-.67-.24-1.4-.54-.73-.3-1.52-.65-1.77-.79-.14-.07-.24-.19-.31-.33-.37.14-.67.26-.74.31-.67.32-1.37.72-2.01,1.27-1.29,1.07-2.43,2.61-3.01,4.45-.59,1.83-.61,3.95.03,5.86.32.95.79,1.86,1.39,2.66.29.41.62.78.98,1.13.17.18.35.33.53.48l.67.56c3.7,3.02,6.31,6.73,7.79,9.66,1.31,2.58,1.66,3.95,1.95,4.75.48,1.59.71,2.99.8,4.3.31.3.63.59.95.89,0,.01.03.02.04.04.32.29.64.58.96.86.33.29.67.58,1,.87.34.29.68.57,1.02.85,2.06,1.67,4.21,3.24,6.44,4.68.74.47,1.5.94,2.26,1.39.39.22.77.45,1.16.67.75.42,1.51.84,2.28,1.24.03,0,.06.03.09.04.35.18.7.36,1.05.53.04.02.07.04.11.06.07.04.14.07.21.11.13.06.25.12.38.18.32.15.64.3.96.45.44.21.89.41,1.34.61,2.2.96,4.45,1.81,6.75,2.55,1.39.44,2.79.84,4.21,1.19.49.12.98.24,1.47.35.15.04.3.07.45.1.45.1.91.19,1.36.28.55.11,1.1.22,1.66.31.61.11,1.22.21,1.84.29.5.08,1.01.15,1.51.21.57.07,1.13.13,1.7.19.57.06,1.14.11,1.71.15s1.14.08,1.72.1c1.15.06,2.31.09,3.47.09.47,0,.94-.01,1.41-.02.48-.01.97-.03,1.45-.05.92-.04,1.84-.11,2.75-.18l.26-.44c.09-.16.19-.31.29-.46.49-.77,1.05-1.49,1.65-2.16-.32-.34-.62-.68-.92-1.01-.29-.35-.59-.69-.88-1.02l-.41-.5c-.07-.04-.13-.08-.18-.1-.04-.04-.1-.01-.16.04-.08.03-.07.06-.22.1-.49.1-1,.11-1.54.16-.54.03-1.09,0-1.68-.02-.58-.07-1.2-.11-1.84-.25-1.36-.27-4.17-.99-7.04-2.94l-.56-.38-.59-.46c-.41-.31-.8-.64-1.17-1-.39-.34-.76-.72-1.11-1.11-.37-.38-.7-.79-1.03-1.22-1.31-1.68-2.37-3.64-3.09-5.75-1.43-4.23-1.35-9.09.33-13.26.39-1.05.91-2.04,1.47-2.99.09-.14.09-.2.27-.43l.43-.6.87-1.19c.3-.4.61-.77.91-1.16l.45-.57.23-.29.11-.14s.06.1.09.15c.46.84.92,1.6,1.36,2.49.37.73.74,1.45,1.1,2.16.44.86.87,1.71,1.3,2.54,1.69,3.32,3.24,6.37,4.56,8.96.09.16.17.32.25.48l.21.36c.12.24.3.44.44.65.33.39.69.71,1.05.97.75.52,1.51.77,2.14.87.64.11,1.14.1,1.48.05.34-.03.51-.09.51-.09,0-.01.19-.01.51-.13.32-.09.79-.3,1.33-.64.54-.36,1.12-.9,1.58-1.68.47-.76.8-1.79.75-2.91-.03-.56-.14-1.13-.35-1.7l-.19-.42c-.07-.15-.18-.35-.27-.53-.18-.36-.37-.73-.56-1.11-.77-1.5-1.58-3.09-2.43-4.75-.85-1.66-1.73-3.38-2.63-5.16-.29-.55-.57-1.11-.86-1.67-.46-.9-.93-1.81-1.31-2.67l-.05-.1c-2.34.17-4.22.13-5.97-.12-1.81-.24-3.51-.73-5.48-1.27,2.03-.46,3.7-.74,5.45-1.02,1.75-.27,3.58-.51,5.92-.71.79-.09,2.08-.19,4.74-.6,1.31-.19,3.5-.6,5.34-1.02.92-.23,1.76-.44,2.37-.59.6-.17.98-.27.98-.27,0,0,1.26-.35,2.85-.87,1.59-.53,3.5-1.22,4.84-1.78,1.67-.66,2.99-1.27,4.03-1.77.16-.07.3-.14.44-.2h.01s.01-.02.01-.03c.22-.42.45-.75.61-1.03,1.42-2.19,3.01-3.56,4.65-4.53,1.65-.97,3.4-1.53,5.44-1.79-1.68,1.2-2.88,2.35-4.02,3.58-1.14,1.25-2.26,2.56-3.44,4.41-.13.24-.32.51-.5.87-.1.18-.2.37-.31.57-.06.1-.11.21-.17.32-.1.07-.22.11-.33.17-.33.15-.67.32-1.04.49-1.08.52-2.45,1.15-4.18,1.85.23.12.46.25.71.43.36.27.95.69,1.76,1.18.8.5,1.78,1.04,2.75,1.49,1.93.93,3.8,1.46,3.8,1.46,0,0,1.86.59,3.98.86,2.12.32,4.46.29,5.23.25,1.43-.06,2.28.37,3.69,1.15-1.08,1.19-1.94,1.85-3.53,1.97-.86.07-3.47.11-5.83-.26-2.36-.31-4.43-.97-4.43-.97,0,0-2.1-.59-4.25-1.61-.78-.36-1.56-.78-2.27-1.19.15.43.27.9.39,1.44.17.98.88,3.91,2.07,6.4,1.14,2.51,2.65,4.53,2.65,4.53,0,0,1.44,2.06,3.47,3.93,1.99,1.91,4.56,3.49,5.43,3.98.81.44,1.4.89,1.92,1.42.2.2.4.41.6.65.12-.07.21-.12.21-.12,0,0,.52-.28,1.15-.62.62-.35,1.4-.69,1.87-.85,2.82-1.02,4.3-1.07,5.16-1.17.65-.06,1.26-.07,1.86-.04.57.02,1.13.09,1.65.19.03.01.07.01.1.02,1.1.24,2.06.64,2.91,1.14.88.53,1.64,1.17,2.29,1.92.62.71,1.13,1.51,1.56,2.42-.82-.62-1.62-1.08-2.41-1.43-.79-.35-1.56-.61-2.34-.8-.78-.19-1.58-.33-2.44-.39-.44-.02-.88-.04-1.35-.02-.32.01-.65.02-1,.05-.18.01-.36.03-.55.05-.73.09-1.97.14-4.33.99-.39.15-1.04.43-1.56.72-.54.28-.99.5-.99.5,0,0-.35.21-.79.52-.44.29-.95.68-1.3.98-2.56,2.18-3.55,4.1-4.06,5.01-.15.27-.28.53-.42.79-.14.28-.32.54-.48.81-.34.51-.71.97-1.09,1.37-.3.31-.6.59-.91.84-.51.43-1.03.78-1.58,1.07-.64.34-1.3.6-1.99.77-.38.11-.76.18-1.15.24.07.06.15.12.22.19.19.15.38.31.57.48.84.78,1.62,1.66,2.32,2.58.43.71.69,1.3.85,1.84.22.63.31,1.2.44,1.81.29,1.52.33,3.02.32,3.5,0,.58-.02,1.11-.06,1.63,3.27.24,5.79.38,9.79.78,1.14.09,3.33.3,6.88.1,2.3-.12,5.27-.51,8.01-1.18,2.74-.65,5.23-1.56,6.72-2.18.47-.21.83-.35,1.38-.61.09-.04.18-.08.27-.12l.21-.23c.56-.63,1.08-1.2,1.54-1.72.92-1.05,1.63-1.9,2.14-2.55.49-.62.83-1.16,1.06-1.46.22-.32.32-.47.32-.47,0,0,.71-1.02,1.71-2.74,1.02-1.72,2.26-4.18,3.29-7.01,1.06-2.82,1.87-6,2.3-9.01.44-3.02.54-5.84.45-7.93Zm-94.27-26.15c-.18.26-.42.64.12,1.06l.85.6s-8.17,2.9-8.45,3.02c-.28.12-.76.13-.76.92.06.8.08,1.89.08,1.89,0,0-5.61-2.18-6.22-2.43-.53-.24-1.17-.2-1.36.25-.2.5-1.93,5.51-1.93,5.51l-1.66-.36s2.31-4.88,2.51-5.39c.18-.44-.32-.73-1.02-.76-.62-.02-6.96-.42-6.96-.42,0,0,.84-.9,1.5-1.55.58-.66.19-.86.04-1.08-.14-.21-4.8-5.88-4.8-5.88l1.16-.17c.77-.14.85-.54.82-.85.05-.3.07-3.43.07-3.43,0,0,2.68,1.12,3.3,1.32.46.22.77.04,1.03-.21.25-.25,1.4-1.33,1.4-1.33,0,0,2.28,3.64,2.33,3.71.47.59,1.25.39,1.34-.19.05-.53.84-6.66.84-6.66,0,0,1.45,1.23,1.91,1.63.47.4.85.42,1.32.04.54-.36,4.11-3.34,4.11-3.34,0,0,.83,3.93,1.01,4.45.11.51.44.64,1.13.48.69-.15,2.84-.59,2.84-.59,0,0-4.03,5.42-4.31,5.9-.36.53.15,1.01.98.7.09-.04,4.73-2.18,4.73-2.18,0,0,.15,1.36.18,1.67.03.31.16.58.71.58.67.08,3.68.19,3.68.19,0,0-2.25,2.65-2.52,2.9Z"/>
    <path class="cls-6" d="m101.5,58.48c-.24.11-.47.21-.72.33-.06.03-.14.07-.22.11-.12.05-.22.12-.22.12,0,0-.3.15-.43.22-2.55,1.38-3.61,2.3-4.31,2.8-.55.45-1.06.9-1.51,1.33-2.37,2.26-3.59,4.41-4.54,7.06-1.95-.44-3.91-.76-5.87-.95-4.16-.42-8.23-.25-11.91.29-.92.14-1.82.29-2.68.48-.44.09-.86.18-1.28.27h0c.38-.4.69-.76.83-.93.25-.32.31-.67.25-1.1.9.03,1.81.05,2.69.03,2.54-.04,4.89-.3,6.62-.57,2.8-.46,4.12-.84,4.93-1.05.34-.09.66-.19.96-.28.38-.12.74-.23,1.06-.34.45-.32.57-.41.77-.56.18-.15.36-.3.54-.44.35-.3.67-.59.98-.9.46-.45.87-.91,1.25-1.37.13-.16.25-.31.37-.47.97-1.27,1.74-2.64,2.44-4.27-1.38,1.11-2.61,1.95-3.85,2.78-.64.42-1.26.83-1.9,1.25-.22.14-.44.28-.66.43h-.01c-.11.07-.23.15-.34.22-.18.11-.36.22-.54.33-.14.08-.32.2-.37.22h-.01s-.12.03-.16.04c-.14.03-.28.07-.42.11-.29.08-.59.16-.91.24-.76.19-1.99.53-4.61.96-1.62.25-3.82.49-6.2.53-2.38.05-4.94-.11-7.27-.44-.58-.09-1.15-.18-1.69-.28-.29-.05-.57-.1-.84-.15v-.03c-.02-.42-.03-.81-.05-1.16-.07-1.58-.11-2.57-.11-2.57v-.03c-.01-.07-.01-.26-.03-.55,0-.37-.07-.91-.04-1.59.02-1.35.06-3.23.23-5.32.29-4.2,1.21-9.26,2.13-12.79.9-3.48,1.68-5.56,2.05-6.66,1.4-3.8,2.07-6.26,2.87-9.44,1.22.87,2.68,1.58,4.33,1.97,2.16.55,4.64.5,7.07-.32.3-.11.6-.22.9-.35t.03,0l-.08.36c-.13.56-.32,1.14-.58,1.71l-.17.37c-.08.17-.18.34-.28.5-.21.34-.38.67-.7,1.03l-.42.54-.5.59c-.35.4-.7.81-1.05,1.22l-.53.62c-.13.17-.52.5-.17.39l.78-.03c.69-.03,1.39-.07,2.1-.1.68-.04,1.32-.02,2.07-.16l1.1-.16,1.12-.31.54-.16c.16-.05.23-.09.34-.13l.63-.27c.41-.2.82-.4,1.21-.64.78-.48,1.52-1.03,2.17-1.66,1.34-1.24,2.33-2.77,2.98-4.33.23-.54.16-.38.19-.46h.01s.06.03.06.03c.1.07.2.15.3.22.12.09.23.18.33.26.15.12.28.24.4.35.18.17.41.4.47.47l-.02.14-.04.2c-.03.13-.06.25-.08.37-.07.24-.13.47-.2.67-.27.83-.58,1.39-.79,1.77-.17.28-.33.54-.5.79l-.17.24c-.1.14-.21.27-.32.4-.21.22-.61.66-.61.66l-1,.98s-.38.36-.56.54c-.45.43-.89.86-1.11,1.14.87.03,2.96.38,3.17.38.25,0,1.01.07,1.58.48.58.38.86.96.86.96,0,0,.3.56.29,1.26.01.7-.37,1.37-.52,1.56-.27.37-.68,1.6-.05,2.08.47.25.91.39,1.31.39.31,0,.6-.08.86-.26.1.29.24.58.44.87.39.55,1.51,2.24,2.29,3.91.82,1.66,1.34,3.27,1.34,3.27,0,0,.12.4.31,1.02.18.63.39,1.48.57,2.39.37,1.81.48,3.84.49,4.51.04.72.22,1.27.55,1.83Z"/>
    <g>
      <path class="cls-1" d="m321.52,26.86c-6.98.11-13.95.2-20.9.28l-1.7,6.57c-.49,1.92-.97,3.85-1.44,5.79,3.88-.16,7.87-.25,11.97-.28l-.2.87c.38,0,.77,0,1.15,0l-1.87,8.28c-3.12,14.04-6.29,28.05-9.49,42.04,4-.07,7.99-.13,12-.18,1.08-5.68,2.27-11.33,3.57-16.96,2.62-11.44,5.65-22.75,9.08-33.92,5.25.14,10.35.37,15.3.69.79-4.47,1.56-8.94,2.32-13.44-6.61.1-13.21.19-19.79.27Z"/>
      <path class="cls-1" d="m296.02,41.49c-.02-.62-.15-1.39-.38-2.31s-.61-1.87-1.12-2.84c-.74-1.22-1.6-2.32-2.59-3.3-.01-.01-.02-.02-.03-.03-2.05-1.73-4.57-3-7.55-3.84-5.03-1.41-9.99-2.11-14.89-2.11-2.57,0-5.27.15-8.11.45-1.71,8.57-3.51,17.12-5.4,25.64-2.27,10.35-4.67,20.66-7.2,30.93h0c-.33,1.33-.65,2.65-.98,3.97-.07-1.35-.12-2.71-.15-4.1-.26,1.07-.52,2.14-.8,3.21-.38-8.35-.3-17.41.24-27.16v-.03c.01-.15.02-.31.03-.46.62-8.98,1.53-17.27,2.72-24.87.38-2.44.81-4.82,1.28-7.14-3.11.07-6.19.14-9.26.21-3.27.05-6.52.12-9.74.2-2.54,7.33-5.15,14.64-7.83,21.91-4.75,13.04-9.72,25.96-14.89,38.79,3.19-.07,6.38-.15,9.56-.22,2.44-.05,4.87-.09,7.31-.12l1.78-6.17c.25-.86.49-1.74.73-2.63,1.68.13,3.37.25,5.08.36-.05.27-.1.53-.15.8.36.02.73.05,1.09.07-.61,3.2-1.22,6.38-1.82,9.55,2.1-.1,4.22-.2,6.35-.32l.78-.04,6.14-.32c-.07.31-.15.61-.23.92l1.18-.06c-.06.24-.12.49-.18.73.69-.07,1.38-.13,2.07-.19,3.1-.3,6.21-.59,9.31-.87,1.19-7.12,2.84-14.64,4.95-22.56.25.57.5,1.14.73,1.7.07-.28.15-.56.22-.84,3.14,7.17,5.81,14.05,7.99,20.65,5.14-.88,10.3-1.74,15.44-2.6-3.84-6.25-7.61-12.93-11.31-20.05-.57-1.05-1.13-2.09-1.67-3.12,3.28-1.16,5.95-2.3,8.04-3.41,3.43-1.81,5.89-3.42,7.38-4.83,1.49-1.4,2.45-2.5,2.88-3.28.65-.84,1.25-1.86,1.81-3.05.1-.22.2-.44.29-.66.39-.95.65-1.85.78-2.7.16-.9.23-1.87.2-2.93l-.08-.93Zm-58.65,18.56c-.46,3.51-.95,7.03-1.46,10.54l-4.51-.32c.07-.26.15-.52.22-.78l-1.16-.08c2.43-8.52,4.88-17.04,7.34-25.57l1.66-5.76-1.2,8.33c.16-.57.33-1.13.49-1.7l1.66-5.76-3.04,21.1Zm46.33-16.27c-.02.19-.13.53-.3,1.03-.18.5-.47,1.08-.87,1.73-1.57,2.54-3.59,4.46-6.07,5.76-2.47,1.29-4.73,2.17-6.75,2.63.07-.39.15-.78.22-1.17-.4.12-.79.22-1.17.31,1.05-5.68,2.2-11.01,3.45-15.99.75-.05,1.47-.08,2.15-.08,3.75,0,6.32.83,7.73,2.47.52.37.95.81,1.29,1.32.32.67.43,1.34.32,1.99Z"/>
      <path class="cls-1" d="m223.42,39.5c-.05-1.12-.34-2.31-.85-3.55-.14-.34-.3-.68-.47-1.03-.61-1.03-1.33-1.94-2.14-2.74-1.84-1.52-4.12-2.55-6.83-3.11-4.51-.93-8.36-1.4-11.55-1.4-4,0-8.34.45-13.02,1.34-1.7,8.06-3.46,16.11-5.27,24.14-2.86,12.73-5.85,25.4-8.97,38.01,2.73-.25,5.46-.5,8.18-.74,1.05-.11,2.1-.2,3.12-.28,1.38-7.41,3.1-15.16,5.16-23.25l.77-2.84c5.03-.97,9.29-2.24,12.78-3.81s6.25-3.06,8.27-4.47c1.38-.86,2.68-1.77,3.89-2.74,1.08-.85,2.1-1.74,3.05-2.67,2.03-1.99,3.29-4.46,3.78-7.41.02-.16.05-.34.08-.53v-.12c.08-.43.08-1.36.02-2.8Zm-12.38,3.63c0,.11-.03.23-.08.36-.52,1.11-1.79,2.37-3.82,3.78-2.03,1.4-4.16,2.71-6.41,3.93-2.24,1.22-3.92,2.1-5.03,2.64.17-.54.33-1.07.51-1.6-.57.29-1.05.53-1.46.73,1.38-4.43,2.79-8.68,4.22-12.74,1.27-.08,2.53-.12,3.78-.12,1.02,0,2.37.05,4.03.14,1.62.1,2.69.56,3.22,1.42.44.23.77.54,1,.93.02.05.04.14.06.24.01.11,0,.21-.02.29Z"/>
      <path class="cls-1" d="m371.53,45.18c.27-3.86-.19-7.33-1.38-10.38-.8-2.05-1.85-3.74-3.18-5.08-.39-.34-.8-.64-1.23-.91-1.51-.87-2.8-1.36-3.87-1.49-1.07-.12-1.9-.18-2.5-.18-.32,0-.61.02-.85.04-4.35.38-8.18,2.2-11.48,5.46-3.3,3.26-5.36,6.23-6.17,8.9-.81,2.68-1.3,4.51-1.46,5.48-.51,3.28-.15,6.37,1.1,9.29.48,1,.98,1.84,1.5,2.52.51.67.86,1.11,1.05,1.3.18.19.37.38.56.56,1.25,1.08,2.56,1.9,3.91,2.45,1.91.77,3.7,1.33,5.38,1.68,1.35.3,2.51.64,3.47,1.04.73.3,1.28.71,1.66,1.23.58.36,1,.82,1.25,1.39.22.6.27,1.2.16,1.79-.1.73-.53,1.62-1.27,2.68-.75,1.05-1.93,1.92-3.55,2.59-.98.36-1.98.53-3.01.53-1.19,0-2.69-.34-4.52-1.03-1.18-.44-2.33-1.24-3.47-2.39-.62-.63-1.24-1.37-1.86-2.22l-.15.17-10.12,11.84c.65,1.03,1.53,2.14,2.66,3.33.14.15.28.29.42.43.01,0,.01,0,.01,0,.82.69,1.73,1.34,2.74,1.94,3.03,1.68,6.25,2.52,9.66,2.52.64,0,2.18-.11,4.6-.33,2.42-.22,5.42-1.45,8.99-3.69,3.57-2.25,6.31-5.17,8.23-8.77.3-.54.71-1.53,1.22-2.98.51-1.44.86-2.76,1.06-3.95.16-1,.27-2.38.34-4.14.07-1.76-.62-3.76-2.05-6.01-.4-.53-.82-1.02-1.27-1.47-.91-.75-1.91-1.36-3-1.82-2.07-.88-4.15-1.55-6.26-2.01-1.9-.46-3.57-1-5.03-1.62-.9-.38-1.61-.89-2.14-1.54-.82-.57-1.39-1.32-1.73-2.25-.25-.75-.3-1.51-.17-2.27.11-.7.49-1.59,1.12-2.66.63-1.06,1.54-2.11,2.7-3.12,1.16-1.01,2-1.64,2.51-1.89.08-.05.27-.15.57-.28.3-.14.56-.22.79-.26.23-.05.4-.07.51-.07.24,0,.47.06.69.17l.85.52c.17.18.33.36.46.56l.49.31c.51.51.84,1.11.99,1.78.15.68.21,1.25.16,1.71-.02.21-.03.39-.05.55,3.31,0,6.64.02,9.96.04Z"/>
    </g>
    <g>
      <path class="cls-7" d="m453.5,24.83c-4,.22-8,.39-12.01.53-1.38.02-2.77.06-4.17.12-1.74.03-3.47.07-5.2.12-.16,0-.31.01-.44.04h-1.22l-.04.04c-.71,0-1.41.02-2.11.04l-2.6.08c-1.41,8.55-2.88,17.08-4.42,25.6-2.33,12.75-4.84,25.48-7.57,38.19,1.43-.03,3.08-.06,4.94-.1,2.36-.06,4.43-.1,6.19-.12,1.4-.06,2.42-.08,3.04-.08.38,0,.67-.01.87-.02.2-.02.36-.03.47-.03h3.49c5.73,0,11.25.17,16.55.49l1.14-6c.53-2.94,1.06-5.88,1.59-8.8-3.55.62-7.36,1.13-11.44,1.55-3.92.38-7.68.61-11.28.69l.14-.91c-.36.02-.72.03-1.08.04l.24-1.54c.81-5.25,1.73-10.34,2.76-15.29h.2c.08-.03.16-.05.24-.05,1.17,0,2.34-.01,3.53-.04,5.71.03,11.2.21,16.47.53.44-1.73.84-3.47,1.22-5.23.42-1.98.86-3.96,1.32-5.92-4.1.24-8.21.45-12.34.62-1.65.05-4.08.12-7.3.2.07-.3.15-.6.22-.9-.38.01-.77.02-1.17.03,1.03-4.24,2.13-8.39,3.29-12.45,1.35-.06,2.73-.11,4.14-.16,2.67-.06,5.28-.09,7.83-.09,3.84,0,7.57.07,11.19.21l2.44-10.15c.14-.6.28-1.21.41-1.82-3.16.22-6.34.41-9.53.58Z"/>
      <path class="cls-7" d="m500.15,41.49c-.03-.62-.16-1.39-.39-2.31-.23-.92-.6-1.87-1.11-2.84-.74-1.22-1.6-2.32-2.59-3.3,0-.01-.02-.02-.03-.03-2.05-1.72-4.57-3-7.55-3.84-5.03-1.41-10-2.11-14.89-2.11-2.57,0-5.28.15-8.12.45-1.7,8.57-3.5,17.12-5.39,25.64-2.8,12.73-5.79,25.4-8.97,38.01,3.79-.36,7.59-.72,11.39-1.06,1.19-7.12,2.84-14.64,4.95-22.56.25.57.5,1.14.73,1.7.07-.28.15-.56.22-.84,3.14,7.17,5.81,14.06,7.98,20.66,5.15-.89,10.3-1.75,15.45-2.61-3.84-6.25-7.61-12.93-11.32-20.05-.57-1.05-1.12-2.09-1.66-3.12,3.27-1.16,5.95-2.3,8.03-3.41,3.44-1.81,5.9-3.42,7.39-4.83,1.48-1.4,2.44-2.5,2.88-3.28.65-.84,1.25-1.86,1.8-3.05.56-1.19.91-2.31,1.08-3.36.16-.9.23-1.87.2-2.93l-.08-.93Zm-12.32,2.29c-.03.19-.13.53-.31,1.03-.17.5-.46,1.08-.87,1.73-1.57,2.54-3.59,4.46-6.06,5.76-2.48,1.29-4.73,2.17-6.76,2.63.07-.39.15-.78.22-1.17-.4.12-.79.22-1.17.31,1.06-5.68,2.21-11.01,3.45-15.99.76-.05,1.48-.08,2.15-.08,3.76,0,6.33.83,7.74,2.47.52.38.95.81,1.28,1.32.33.67.44,1.34.33,1.99Z"/>
      <path class="cls-7" d="m541.03,42.61c-.72-4.29-2.28-7.7-4.69-10.25-.07-.07-.13-.13-.2-.19-.63-.55-1.26-1.03-1.9-1.44-1.02-.66-1.89-1.15-2.59-1.48l-1.14-.48c-.68-.27-1.55-.53-2.64-.78-1.08-.24-2.31-.36-3.69-.36-4,.19-7.77,1.68-11.3,4.46-3.53,2.79-6.61,6.39-9.25,10.79-2.63,4.41-4.64,9.13-6.02,14.16-.52,1.87-.92,3.72-1.22,5.56-.49,3.06-.62,6.47-.41,10.25.22,3.77,1.48,7.28,3.78,10.52.63.8,1.27,1.52,1.92,2.16.91.77,1.84,1.4,2.79,1.87,1.99.99,3.51,1.57,4.56,1.76,1.33.27,2.62.41,3.86.41,2.84,0,5.8-.86,8.89-2.58,3.08-1.71,5.98-4.24,8.7-7.58,2.71-3.34,4.8-6.54,6.27-9.6,2.03-4.19,3.42-8.7,4.19-13.53.78-4.83.8-9.38.09-13.67Zm-10.32,11.8c-.13.89-.46,2.35-.99,4.38-.53,2.03-1.7,4.24-3.53,6.63-1.83,2.4-4.09,3.89-6.79,4.48-.22.06-.6.11-1.14.15-.54.04-.91.06-1.1.06-.7,0-1.52-.1-2.45-.31-.93-.2-1.79-.71-2.58-1.52-.03-.04-.07-.08-.1-.13-.29-.2-.57-.45-.84-.73-1.38-1.71-1.87-4.15-1.47-7.35.03-.35.07-.71.13-1.09.46-2.81,1.44-5.8,2.94-8.95,1.5-3.15,3.26-5.75,5.27-7.81,2.02-2.05,3.97-3.08,5.87-3.08.24,0,.48,0,.73.04.64.16,1.19.39,1.64.69.45.3.75.54.91.73.09.09.17.18.25.27.33.24.57.43.7.59,1.54,1.55,2.44,3.54,2.7,5.99.25,2.45.21,4.77-.15,6.96Z"/>
      <path class="cls-7" d="m407.7,27.75l-4.55,21.67c-.16.75-.32,1.52-.49,2.31-.1.51-.21,1.04-.32,1.58-1.43.03-2.85.07-4.26.12-1.76.06-4.49.11-8.2.16.07-.29.14-.59.22-.88-.37.01-.76.02-1.16.02,2.16-8.87,4.57-17.26,7.21-25.2-3.46.05-6.91.11-10.36.18-1.3,0-2.61.01-3.94.04l-4.54,21.67c-2.96,14.02-5.95,28.02-8.93,42.02,2.06-.14,4.1-.29,6.15-.45l7.31-.49c.43-3.35.92-6.75,1.46-10.18.22-1.35.44-2.72.69-4.1.78-4.41,1.61-8.72,2.47-12.94h1.42c3.82,0,7.55.07,11.2.2-.06.28-.12.55-.18.83.38.01.76.03,1.13.04-1.93,9.05-3.88,18.07-5.81,27.09,2.05-.14,4.1-.29,6.16-.45l7.3-.49c.38-2.95.81-5.91,1.3-8.88.27-1.79.57-3.59.89-5.4,3.16-17.79,7.2-34.02,12.12-48.69l-14.29.22Z"/>
    </g>
    <path d="m59.92,131.07c-1.84-.07-3.09-.35-4.54-1.65-.8-.7-3.04-2.99-4.61-5.45-.81-1.22-1.49-2.44-1.93-3.37-.23-.45-.4-.84-.52-1.11-.12-.27-.18-.42-.18-.42,0,0-.04-.11-.19-.46-.15-.35-.39-.96-.73-1.98l-.22-.65c-.1-.24-.22-.52-.37-.83-.32-.64-.8-1.37-1.38-2.02-1.14-1.34-2.75-2.19-3.37-2.45-1.47-.59-2.19-1.28-3.73-2.32,1.56-.96,2.98-1.31,4.95-.55.85.32,2.98,1.45,4.5,3.24.77.86,1.4,1.83,1.83,2.68.42.86.66,1.58.78,1.94l.4,1.18c.1.25.17.45.23.59.13.31.17.41.17.41,0,0,.23.55.64,1.37.4.84,1.01,1.92,1.73,3.02,1.42,2.21,3.43,4.26,4.13,4.9,1.28,1.2,1.7,2.22,2.41,3.93Z"/>
  </g>
</svg>