<?xml version="1.0" encoding="UTF-8"?>
<svg id="Layer_2" data-name="Layer 2" xmlns="http://www.w3.org/2000/svg" viewBox="0 0 98.51 94.76">
  <defs>
    <style>
      .cls-1 {
        fill-rule: evenodd;
      }
    </style>
  </defs>
  <g id="Layer_1-2" data-name="Layer 1">
    <path class="cls-1" d="M91.29,30.73l-.48-3.03-.18-1.16h-37.79l-.66,4.19h39.12ZM46.9,73.76l5.72-40.99c.25-1.8,3.4-2.01,3.14,0-1.74,13.66-3.47,27.33-5.21,40.99-.24,1.89-3.95,2.11-3.65,0h0ZM73.4,32.78l.29,40.98c.02,2.03-3.73,2.02-3.73,0l.11-40.96c0-1.95,3.31-1.92,3.33-.02h0ZM96.56,73.76l-5.72-40.99c-.25-1.79-3.4-2-3.14,0,1.74,13.67,3.47,27.33,5.21,41,.24,1.89,3.95,2.12,3.65-.01h0ZM83.34,32.78c1.26,13.66,2.52,27.33,3.78,40.99.18,1.92,3.93,2.08,3.72,0-1.39-13.66-2.78-27.32-4.18-40.98-.19-1.86-3.51-2-3.32,0h0ZM78.85,32.78c.85,13.66,1.7,27.32,2.56,40.97.12,1.97,3.87,2.07,3.72.02-.99-13.66-1.97-27.33-2.96-40.99-.13-1.87-3.44-1.97-3.32,0h0ZM74.39,32.78l1.55,40.98c.08,1.99,3.82,2.05,3.73.02l-1.94-40.99c-.09-1.89-3.4-1.95-3.33,0h0ZM60.12,32.79c-1.26,13.65-2.51,27.3-3.78,40.95-.18,1.98-3.93,2.11-3.72.03,1.39-13.66,2.78-27.32,4.18-40.99.19-1.84,3.51-2,3.32,0h0ZM64.61,32.78c-.85,13.66-1.7,27.33-2.56,40.99-.12,1.95-3.87,2.06-3.72,0,.99-13.66,1.97-27.33,2.96-41,.13-1.85,3.44-1.96,3.32,0h0ZM69.06,32.79l-1.55,40.98c-.07,1.97-3.82,2.05-3.72,0l1.94-40.97c.09-1.89,3.4-1.96,3.33,0h0ZM44.95,80.14h23.8v.91h-15.87v8.71h10.38v.83h-11.39v4.17h39.7v-4.17h-1v-10.45h7.93l-.64-4.44h-52.29l-.64,4.44h0ZM1.16,86.87c0,1.27,1.05,2.32,2.32,2.32h46.82v1.16H3.48c-1.91,0-3.48-1.57-3.48-3.48V3.48C0,1.57,1.57,0,3.48,0h61.17c1.91,0,3.48,1.57,3.48,3.48v21.49h-1.16V3.48c0-1.27-1.05-2.32-2.32-2.32H3.48c-1.27,0-2.32,1.05-2.32,2.32v83.39h0ZM5.22,85.13h46.08v2.9H3.48c-.63,0-1.16-.53-1.16-1.16V3.48c0-.63.53-1.16,1.16-1.16h61.17c.63,0,1.16.53,1.16,1.16v21.49h-2.9V5.22H5.22v79.91h0ZM9.56,83.85l-1.74-2.81-1.44,2.34v-2.11l.79-1.28-.79-1.29v-2.11l1.44,2.34,1.74-2.81-1.74-2.82-1.44,2.34v-2.11l.79-1.28-.79-1.29v-2.11l1.44,2.34,1.74-2.81-1.74-2.82-1.44,2.34v-2.11l.79-1.28-.79-1.28v-2.11l1.44,2.34,1.74-2.82-1.74-2.81-1.44,2.34v-2.11l.79-1.28-.79-1.29v-2.11l1.44,2.34,1.74-2.81-1.74-2.81-1.44,2.34v-2.11l.79-1.28-.79-1.28v-2.11l1.44,2.34,1.74-2.81-1.74-2.81-1.44,2.34v-2.11l.79-1.28-.79-1.28v-2.11l1.44,2.34,1.74-2.81-1.74-2.81-1.44,2.34v-2.11l.79-1.28-.79-1.28v-2.11l1.44,2.34,1.74-2.81-1.74-2.82-1.44,2.34v-2.11l.79-1.28-.79-1.28v-2.11l1.44,2.34,1.74-2.82-1.74-2.81-1.44,2.34v-2.11l.79-1.29-.79-1.28v-2.11l1.44,2.34,1.74-2.82-1.74-2.81-1.44,2.34v-2.11l.79-1.29-.79-1.28v-2.11l1.44,2.34,1.74-2.82-.07-.12h1.44l-.07.12,1.74,2.82,1.74-2.82-.07-.12h1.44l-.07.12,1.74,2.82,1.74-2.82-.07-.12h1.44l-.07.12,1.74,2.82,1.74-2.82-.07-.12h1.44l-.07.12,1.74,2.82,1.74-2.82-.07-.12h1.44l-.07.12,1.74,2.82,1.74-2.82-.07-.12h1.44l-.07.12,1.74,2.82,1.74-2.82-.07-.12h1.44l-.07.12,1.74,2.82,1.74-2.82h1.3l1.74,2.82,1.74-2.82h1.3l1.74,2.82,1.74-2.82h1.3l1.74,2.82,1.74-2.82h1.3l1.74,2.82,1.44-2.34v2.11l-.79,1.28.79,1.29v2.11l-1.44-2.34-1.74,2.81,1.74,2.82,1.44-2.34v2.11l-.79,1.28.79,1.29v2.11l-1.44-2.34-1.74,2.81,1.74,2.82,1.44-2.34v2.11l-.26.42h-2.37l-1.2-1.95-1.2,1.95h-2.37l-1.2-1.95-1.2,1.95-2.92,4.73,1.38,2.23c-.22,1.43-.44,2.89-.66,4.35l-.71,1.15.43.7-.25,1.69-.83-1.34-1.74,2.81,1.74,2.81-.16,2.37-1.57,2.55.97,1.57-.25,1.7-1.37-2.22-1.74,2.81,1.74,2.81,1.14-1.85-.4,2.75-.09.15.06.09-.25,1.7-.46-.74-1.74,2.81,1.54,2.49-.51,3.58-1.02,1.66.64,1.03-.24,1.71-1.04-1.69-1.74,2.82,1.74,2.81.62-1.01-.62,3.11-1.74,2.82,1.74,2.81.66-1.07h1.3l-1.31,2.13h-1.3l-1.74-2.81-1.74,2.81h-1.3l-1.74-2.81-1.74,2.81h-1.3l-1.74-2.81-1.74,2.81h-1.3l-1.74-2.81-1.74,2.81h-1.3l-1.74-2.81-1.74,2.81h-1.3l-1.74-2.81-1.74,2.81h-1.3l-1.74-2.81-1.74,2.81h-1.3ZM50.34,81.72l-1.31,2.13h-1.3l-1.31-2.13h1.3l.66,1.07.66-1.07h1.3ZM10.21,7.55l-1.74,2.81,1.74,2.82,1.74-2.82-1.74-2.81h0ZM14.98,7.55l-1.74,2.81,1.74,2.82,1.74-2.82-1.74-2.81h0ZM12.59,11.42l-1.74,2.81,1.74,2.82,1.74-2.82-1.74-2.81h0ZM10.21,15.28l-1.74,2.81,1.74,2.82,1.74-2.82-1.74-2.81h0ZM19.75,7.55l-1.74,2.81,1.74,2.82,1.74-2.82-1.74-2.81h0ZM17.36,11.42l-1.74,2.81,1.74,2.82,1.74-2.82-1.74-2.81h0ZM14.98,15.28l-1.74,2.81,1.74,2.82,1.74-2.82-1.74-2.81h0ZM12.59,19.15l-1.74,2.81,1.74,2.82,1.74-2.82-1.74-2.81h0ZM10.21,23.02l-1.74,2.81,1.74,2.82,1.74-2.82-1.74-2.81h0ZM24.52,7.55l-1.74,2.81,1.74,2.82,1.74-2.82-1.74-2.81h0ZM22.13,11.42l-1.74,2.81,1.74,2.82,1.74-2.82-1.74-2.81h0ZM19.75,15.28l-1.74,2.81,1.74,2.82,1.74-2.82-1.74-2.81h0ZM17.36,19.15l-1.74,2.81,1.74,2.82,1.74-2.82-1.74-2.81h0ZM14.98,23.02l-1.74,2.81,1.74,2.82,1.74-2.82-1.74-2.81h0ZM12.59,26.89l-1.74,2.82,1.74,2.81,1.74-2.81-1.74-2.82h0ZM10.21,30.75l-1.74,2.82,1.74,2.81,1.74-2.81-1.74-2.82h0ZM29.29,7.55l-1.74,2.81,1.74,2.82,1.74-2.82-1.74-2.81h0ZM26.91,11.42l-1.74,2.81,1.74,2.82,1.74-2.82-1.74-2.81h0ZM24.52,15.28l-1.74,2.81,1.74,2.82,1.74-2.82-1.74-2.81h0ZM22.13,19.15l-1.74,2.81,1.74,2.82,1.74-2.82-1.74-2.81h0ZM19.75,23.02l-1.74,2.81,1.74,2.82,1.74-2.82-1.74-2.81h0ZM17.36,26.89l-1.74,2.82,1.74,2.81,1.74-2.81-1.74-2.82h0ZM14.98,30.75l-1.74,2.82,1.74,2.81,1.74-2.81-1.74-2.82h0ZM12.59,34.62l-1.74,2.81,1.74,2.81,1.74-2.81-1.74-2.81h0ZM10.21,38.49l-1.74,2.81,1.74,2.81,1.74-2.81-1.74-2.81h0ZM34.06,7.55l-1.74,2.81,1.74,2.82,1.74-2.82-1.74-2.81h0ZM31.68,11.42l-1.74,2.81,1.74,2.82,1.74-2.82-1.74-2.81h0ZM29.29,15.28l-1.74,2.81,1.74,2.82,1.74-2.82-1.74-2.81h0ZM26.91,19.15l-1.74,2.81,1.74,2.82,1.74-2.82-1.74-2.81h0ZM24.52,23.02l-1.74,2.81,1.74,2.82,1.74-2.82-1.74-2.81h0ZM22.13,26.89l-1.74,2.82,1.74,2.81,1.74-2.81-1.74-2.82h0ZM19.75,30.75l-1.74,2.82,1.74,2.81,1.74-2.81-1.74-2.82h0ZM17.36,34.62l-1.74,2.81,1.74,2.81,1.74-2.81-1.74-2.81h0ZM14.98,38.49l-1.74,2.81,1.74,2.81,1.74-2.81-1.74-2.81h0ZM12.59,42.36l-1.74,2.81,1.74,2.81,1.74-2.81-1.74-2.81h0ZM10.21,46.23l-1.74,2.81,1.74,2.81,1.74-2.81-1.74-2.81h0ZM38.83,7.55l-1.74,2.81,1.74,2.82,1.74-2.82-1.74-2.81h0ZM36.45,11.42l-1.74,2.81,1.74,2.82,1.74-2.82-1.74-2.81h0ZM34.06,15.28l-1.74,2.81,1.74,2.82,1.74-2.82-1.74-2.81h0ZM31.68,19.15l-1.74,2.81,1.74,2.82,1.74-2.82-1.74-2.81h0ZM29.29,23.02l-1.74,2.81,1.74,2.82,1.74-2.82-1.74-2.81h0ZM26.91,26.89l-1.74,2.82,1.74,2.81,1.74-2.81-1.74-2.82h0ZM24.52,30.75l-1.74,2.82,1.74,2.81,1.74-2.81-1.74-2.82h0ZM22.13,34.62l-1.74,2.81,1.74,2.81,1.74-2.81-1.74-2.81h0ZM19.75,38.49l-1.74,2.81,1.74,2.81,1.74-2.81-1.74-2.81h0ZM17.36,42.36l-1.74,2.81,1.74,2.81,1.74-2.81-1.74-2.81h0ZM14.98,46.23l-1.74,2.81,1.74,2.81,1.74-2.81-1.74-2.81h0ZM12.59,50.09l-1.74,2.81,1.74,2.81,1.74-2.81-1.74-2.81h0ZM10.21,53.96l-1.74,2.82,1.74,2.81,1.74-2.81-1.74-2.82h0ZM43.6,7.55l-1.74,2.81,1.74,2.82,1.74-2.82-1.74-2.81h0ZM41.22,11.42l-1.74,2.81,1.74,2.82,1.74-2.82-1.74-2.81h0ZM38.83,15.28l-1.74,2.81,1.74,2.82,1.74-2.82-1.74-2.81h0ZM36.45,19.15l-1.74,2.81,1.74,2.82,1.74-2.82-1.74-2.81h0ZM34.06,23.02l-1.74,2.81,1.74,2.82,1.74-2.82-1.74-2.81h0ZM31.68,26.89l-1.74,2.82,1.74,2.81,1.74-2.81-1.74-2.82h0ZM29.29,30.75l-1.74,2.82,1.74,2.81,1.74-2.81-1.74-2.82h0ZM26.91,34.62l-1.74,2.81,1.74,2.81,1.74-2.81-1.74-2.81h0ZM24.52,38.49l-1.74,2.81,1.74,2.81,1.74-2.81-1.74-2.81h0ZM22.13,42.36l-1.74,2.81,1.74,2.81,1.74-2.81-1.74-2.81h0ZM19.75,46.23l-1.74,2.81,1.74,2.81,1.74-2.81-1.74-2.81h0ZM17.36,50.09l-1.74,2.81,1.74,2.81,1.74-2.81-1.74-2.81h0ZM14.98,53.96l-1.74,2.82,1.74,2.81,1.74-2.81-1.74-2.82h0ZM12.59,57.83l-1.74,2.81,1.74,2.82,1.74-2.82-1.74-2.81h0ZM10.21,61.7l-1.74,2.81,1.74,2.81,1.74-2.81-1.74-2.81h0ZM48.38,7.55l-1.74,2.81,1.74,2.82,1.74-2.82-1.74-2.81h0ZM45.99,11.42l-1.74,2.81,1.74,2.82,1.74-2.82-1.74-2.81h0ZM43.6,15.28l-1.74,2.81,1.74,2.82,1.74-2.82-1.74-2.81h0ZM41.22,19.15l-1.74,2.81,1.74,2.82,1.74-2.82-1.74-2.81h0ZM38.83,23.02l-1.74,2.81,1.74,2.82,1.74-2.82-1.74-2.81h0ZM36.45,26.89l-1.74,2.82,1.74,2.81,1.74-2.81-1.74-2.82h0ZM34.06,30.75l-1.74,2.82,1.74,2.81,1.74-2.81-1.74-2.82h0ZM31.68,34.62l-1.74,2.81,1.74,2.81,1.74-2.81-1.74-2.81h0ZM29.29,38.49l-1.74,2.81,1.74,2.81,1.74-2.81-1.74-2.81h0ZM26.91,42.36l-1.74,2.81,1.74,2.81,1.74-2.81-1.74-2.81h0ZM24.52,46.23l-1.74,2.81,1.74,2.81,1.74-2.81-1.74-2.81h0ZM22.13,50.09l-1.74,2.81,1.74,2.81,1.74-2.81-1.74-2.81h0ZM19.75,53.96l-1.74,2.82,1.74,2.81,1.74-2.81-1.74-2.82h0ZM17.36,57.83l-1.74,2.81,1.74,2.82,1.74-2.82-1.74-2.81h0ZM14.98,61.7l-1.74,2.81,1.74,2.81,1.74-2.81-1.74-2.81h0ZM12.59,65.56l-1.74,2.82,1.74,2.81,1.74-2.81-1.74-2.82h0ZM10.21,69.43l-1.74,2.82,1.74,2.81,1.74-2.81-1.74-2.82h0ZM53.15,7.55l-1.74,2.81,1.74,2.82,1.74-2.82-1.74-2.81h0ZM50.76,11.42l-1.74,2.81,1.74,2.82,1.74-2.82-1.74-2.81h0ZM48.38,15.28l-1.74,2.81,1.74,2.82,1.74-2.82-1.74-2.81h0ZM45.99,19.15l-1.74,2.81,1.74,2.82,1.74-2.82-1.74-2.81h0ZM43.6,23.02l-1.74,2.81,1.74,2.82,1.74-2.82-1.74-2.81h0ZM41.22,26.89l-1.74,2.82,1.74,2.81,1.74-2.81-1.74-2.82h0ZM38.83,30.75l-1.74,2.82,1.74,2.81,1.74-2.81-1.74-2.82h0ZM36.45,34.62l-1.74,2.81,1.74,2.81,1.74-2.81-1.74-2.81h0ZM34.06,38.49l-1.74,2.81,1.74,2.81,1.74-2.81-1.74-2.81h0ZM31.68,42.36l-1.74,2.81,1.74,2.81,1.74-2.81-1.74-2.81h0ZM29.29,46.23l-1.74,2.81,1.74,2.81,1.74-2.81-1.74-2.81h0ZM26.91,50.09l-1.74,2.81,1.74,2.81,1.74-2.81-1.74-2.81h0ZM24.52,53.96l-1.74,2.82,1.74,2.81,1.74-2.81-1.74-2.82h0ZM22.13,57.83l-1.74,2.81,1.74,2.82,1.74-2.82-1.74-2.81h0ZM19.75,61.7l-1.74,2.81,1.74,2.81,1.74-2.81-1.74-2.81h0ZM17.36,65.56l-1.74,2.82,1.74,2.81,1.74-2.81-1.74-2.82h0ZM14.98,69.43l-1.74,2.82,1.74,2.81,1.74-2.81-1.74-2.82h0ZM12.59,73.3l-1.74,2.82,1.74,2.81,1.74-2.81-1.74-2.82h0ZM10.21,77.17l-1.74,2.82,1.74,2.81,1.74-2.81-1.74-2.82h0ZM57.92,7.55l-1.74,2.81,1.74,2.82,1.74-2.82-1.74-2.81h0ZM55.53,11.42l-1.74,2.81,1.74,2.82,1.74-2.82-1.74-2.81h0ZM53.15,15.28l-1.74,2.81,1.74,2.82,1.74-2.82-1.74-2.81h0ZM50.76,19.15l-1.74,2.81,1.74,2.82,1.74-2.82-1.74-2.81h0ZM48.38,23.02l-1.74,2.81,1.74,2.82,1.74-2.82-1.74-2.81h0ZM45.99,26.89l-1.74,2.82,1.74,2.81,1.74-2.81-1.74-2.82h0ZM43.6,30.75l-1.74,2.82,1.74,2.81,1.74-2.81-1.74-2.82h0ZM41.22,34.62l-1.74,2.81,1.74,2.81,1.74-2.81-1.74-2.81h0ZM38.83,38.49l-1.74,2.81,1.74,2.81,1.74-2.81-1.74-2.81h0ZM36.45,42.36l-1.74,2.81,1.74,2.81,1.74-2.81-1.74-2.81h0ZM34.06,46.23l-1.74,2.81,1.74,2.81,1.74-2.81-1.74-2.81h0ZM31.68,50.09l-1.74,2.81,1.74,2.81,1.74-2.81-1.74-2.81h0ZM29.29,53.96l-1.74,2.82,1.74,2.81,1.74-2.81-1.74-2.82h0ZM26.91,57.83l-1.74,2.81,1.74,2.82,1.74-2.82-1.74-2.81h0ZM24.52,61.7l-1.74,2.81,1.74,2.81,1.74-2.81-1.74-2.81h0ZM22.13,65.56l-1.74,2.82,1.74,2.81,1.74-2.81-1.74-2.82h0ZM19.75,69.43l-1.74,2.82,1.74,2.81,1.74-2.81-1.74-2.82h0ZM17.36,73.3l-1.74,2.82,1.74,2.81,1.74-2.81-1.74-2.82h0ZM14.98,77.17l-1.74,2.82,1.74,2.81,1.74-2.81-1.74-2.82h0ZM57.92,15.28l-1.74,2.81,1.74,2.82,1.74-2.82-1.74-2.81h0ZM55.53,19.15l-1.74,2.81,1.74,2.82,1.74-2.82-1.74-2.81h0ZM48.38,30.75l-1.74,2.82,1.74,2.81,1.74-2.81-1.74-2.82h0ZM45.99,34.62l-1.74,2.81,1.74,2.81,1.74-2.81-1.74-2.81h0ZM43.6,38.49l-1.74,2.81,1.74,2.81,1.74-2.81-1.74-2.81h0ZM41.22,42.36l-1.74,2.81,1.74,2.81,1.74-2.81-1.74-2.81h0ZM38.83,46.23l-1.74,2.81,1.74,2.81,1.74-2.81-1.74-2.81h0ZM36.45,50.09l-1.74,2.81,1.74,2.81,1.74-2.81-1.74-2.81h0ZM34.06,53.96l-1.74,2.82,1.74,2.81,1.74-2.81-1.74-2.82h0ZM31.68,57.83l-1.74,2.81,1.74,2.82,1.74-2.82-1.74-2.81h0ZM29.29,61.7l-1.74,2.81,1.74,2.81,1.74-2.81-1.74-2.81h0ZM26.91,65.56l-1.74,2.82,1.74,2.81,1.74-2.81-1.74-2.82h0ZM24.52,69.43l-1.74,2.82,1.74,2.81,1.74-2.81-1.74-2.82h0ZM22.13,73.3l-1.74,2.82,1.74,2.81,1.74-2.81-1.74-2.82h0ZM19.75,77.17l-1.74,2.82,1.74,2.81,1.74-2.81-1.74-2.82h0ZM45.99,42.36l-1.74,2.81,1.74,2.81,1.74-2.81-1.74-2.81h0ZM43.6,46.23l-1.74,2.81,1.74,2.81,1.74-2.81-1.74-2.81h0ZM41.22,50.09l-1.74,2.81,1.74,2.81,1.74-2.81-1.74-2.81h0ZM38.83,53.96l-1.74,2.82,1.74,2.81,1.74-2.81-1.74-2.82h0ZM36.45,57.83l-1.74,2.81,1.74,2.82,1.74-2.82-1.74-2.81h0ZM34.06,61.7l-1.74,2.81,1.74,2.81,1.74-2.81-1.74-2.81h0ZM31.68,65.56l-1.74,2.82,1.74,2.81,1.74-2.81-1.74-2.82h0ZM29.29,69.43l-1.74,2.82,1.74,2.81,1.74-2.81-1.74-2.82h0ZM26.91,73.3l-1.74,2.82,1.74,2.81,1.74-2.81-1.74-2.82h0ZM24.52,77.17l-1.74,2.82,1.74,2.81,1.74-2.81-1.74-2.82h0ZM43.6,53.96l-1.74,2.82,1.74,2.81,1.74-2.81-1.74-2.82h0ZM41.22,57.83l-1.74,2.81,1.74,2.82,1.74-2.82-1.74-2.81h0ZM38.83,61.7l-1.74,2.81,1.74,2.81,1.74-2.81-1.74-2.81h0ZM36.45,65.56l-1.74,2.82,1.74,2.81,1.74-2.81-1.74-2.82h0ZM34.06,69.43l-1.74,2.82,1.74,2.81,1.74-2.81-1.74-2.82h0ZM31.68,73.3l-1.74,2.82,1.74,2.81,1.74-2.81-1.74-2.82h0ZM29.29,77.17l-1.74,2.82,1.74,2.81,1.74-2.81-1.74-2.82h0ZM43.6,61.7l-1.74,2.81,1.74,2.81,1.74-2.81-1.74-2.81h0ZM41.22,65.56l-1.74,2.82,1.74,2.81,1.74-2.81-1.74-2.82h0ZM38.83,69.43l-1.74,2.82,1.74,2.81,1.74-2.81-1.74-2.82h0ZM36.45,73.3l-1.74,2.82,1.74,2.81,1.74-2.81-1.74-2.82h0ZM34.06,77.17l-1.74,2.82,1.74,2.81,1.74-2.81-1.74-2.82h0ZM41.22,73.3l-1.74,2.82,1.74,2.81,1.74-2.81-1.74-2.82h0ZM38.83,77.17l-1.74,2.82,1.74,2.81,1.74-2.81-1.74-2.82h0Z"/>
  </g>
</svg>