<?xml version="1.0" encoding="UTF-8"?>
<svg id="Layer_2" data-name="Layer 2" xmlns="http://www.w3.org/2000/svg" viewBox="0 0 98.75 62.5">
  <g id="Layer_1-2" data-name="Layer 1">
    <g id="Element">
      <rect x="3.27" y="21.42" width="85.58" height="1.7"/>
      <rect x="3.27" y="24.29" width="85.58" height="1.7"/>
      <rect x="3.27" y="27.17" width="85.58" height="1.7"/>
      <rect x="3.27" y="32.93" width="85.58" height="1.7"/>
      <rect x="3.27" y="30.05" width="85.58" height="1.7"/>
      <rect x="3.27" y="15.66" width="85.58" height="1.7"/>
      <rect x="3.27" y="9.9" width="85.58" height="1.7"/>
      <rect x="3.27" y="12.78" width="85.58" height="1.7"/>
      <rect x="3.27" y="18.54" width="85.58" height="1.7"/>
      <rect x="3.27" y="50.2" width="85.58" height="1.7"/>
      <rect x="3.27" y="47.32" width="85.58" height="1.7"/>
      <path d="M87.21,0h-3.23v5.15H8.48V0h-3.23v5.15H0v51.99h5.08v5.36h3.23v-5.36h75.5v5.36h3.23v-5.36h5.43V5.15h-5.26V0ZM90.29,8.2v45.27H2.09V8.2h88.19Z"/>
      <rect x="3.27" y="44.45" width="85.58" height="1.7"/>
      <rect x="3.27" y="38.69" width="85.58" height="1.7"/>
      <rect x="3.27" y="35.81" width="85.58" height="1.7"/>
      <rect x="3.27" y="41.57" width="85.58" height="1.7"/>
      <rect x="93.86" y="11.6" width="4.88" height="44.66"/>
    </g>
  </g>
</svg>