<?xml version="1.0" encoding="UTF-8"?>
<svg id="Layer_2" data-name="Layer 2" xmlns="http://www.w3.org/2000/svg" viewBox="0 0 97.44 66.94">
  <defs>
    <style>
      .cls-1 {
        fill-rule: evenodd;
      }
    </style>
  </defs>
  <g id="Layer_1-2" data-name="Layer 1">
    <path class="cls-1" d="M0,12.21h1.78c.72,0,1.31.59,1.31,1.31v2.08h2.02v17.57h1.64V15.6h1.93v17.57h1.64V15.6h1.88v-2.08c0-.72.59-1.31,1.31-1.31h1.78v10.06h3.81v21.82h-3.81v10.06h-1.78c-.72,0-1.31-.59-1.31-1.31v-2.08H3.09v2.08c0,.72-.59,1.31-1.31,1.31H0V12.21h0ZM93.69,23.59h3.75v3.16h-3.75v-3.16h0ZM93.69,28.91h3.75v3.16h-3.75v-3.16h0ZM87.36,19.56h5.03v16.54h-5.03v15.52l-3.74.44v1.23l-8.77,7.88h-8.67v.96h.37c.24,0,.44.2.44.44v2.71c0,.24-.2.44-.44.44h-.37v.35c0,.48-.4.88-.88.88h-9.69v-1.23h-6.72v1.23h-9.69c-.48,0-.88-.39-.88-.88v-.35h-.45c-.24,0-.44-.2-.44-.44v-2.71c0-.24.2-.44.44-.44h.45v-.96h-8.67l-8.77-7.88V13.05l8.77-7.88h8.67v-.74h-.45c-.24,0-.44-.2-.44-.44V1.29c0-.24.2-.44.44-.44h.45c.01-.47.4-.85.88-.85h9.69v.85h6.72v-.85h9.69c.47,0,.86.38.87.85h.37c.24,0,.44.2.44.44v2.71c0,.24-.2.44-.44.44h-.37v.74h8.67l8.77,7.88v2.26l3.74.44v3.8h0ZM48.9,6.42h2.28v53.66h-2.28v2.05h6.72v-2.05h-2.28V6.42h2.28v-1.99h-6.72v1.99h0ZM24.15,42.07c3.59,0,7.17,0,10.75,0v-3.33c-3.59,0-7.17,0-10.75,0v3.34h0ZM29.67,54.35c-1.84-1.17-3.68-2.33-5.52-3.5v2.28c1.83,1.54,3.69,3.06,5.52,4.6h5.24v-3.38h-5.24ZM29.67,49.09c-1.84-.58-3.68-1.17-5.52-1.75v2.28c1.84.97,3.68,1.93,5.52,2.89h5.24v-3.42h-5.24ZM34.91,43.83c-3.59,0-7.17,0-10.75,0v2.28c1.84.38,3.68.76,5.52,1.14h5.24v-3.42h0ZM34.91,25.35h-10.75v3.34h10.75v-3.34h0ZM29.67,20.17c-1.84.38-3.68.76-5.52,1.14v2.32h10.75v-3.46h-5.24ZM29.67,14.91c-1.84.96-3.68,1.92-5.52,2.89v2.28c1.84-.58,3.68-1.14,5.52-1.72h5.24v-3.46h-5.24ZM29.67,9.64c-1.84,1.55-3.68,3.1-5.52,4.65v2.28c.66-.42,5.52-3.53,5.52-3.48h5.24v-3.46h-5.24ZM80.37,42.07v-3.34c-3.59,0-7.17,0-10.75,0v3.33c3.59,0,7.17,0,10.75,0h0ZM74.85,54.35h-5.24v3.38h5.24c1.83-1.54,3.69-3.06,5.52-4.6v-2.28c-1.84,1.17-3.68,2.34-5.52,3.5h0ZM74.85,49.09h-5.24v3.42h5.24c1.84-.96,3.68-1.92,5.52-2.89v-2.28c-1.84.58-3.68,1.17-5.52,1.75h0ZM69.62,43.83v3.42h5.24c1.84-.38,3.68-.76,5.52-1.14v-2.28c-3.59,0-7.17,0-10.75,0h0ZM69.62,25.35v3.34h10.75v-3.34h-10.75ZM74.85,20.17h-5.24v3.46h10.75v-2.32c-1.84-.38-3.68-.76-5.52-1.14h0ZM74.85,14.91h-5.24v3.46h5.24c1.84.58,3.68,1.13,5.52,1.72v-2.28c-1.84-.97-3.68-1.93-5.52-2.89h0ZM74.85,9.64h-5.24v3.46h5.24c0-.05,4.85,3.05,5.52,3.48v-2.28c-1.84-1.55-3.68-3.1-5.52-4.65Z"/>
  </g>
</svg>