<?xml version="1.0" encoding="UTF-8"?>
<svg id="Layer_2" data-name="Layer 2" xmlns="http://www.w3.org/2000/svg" viewBox="0 0 95.96 98.07">
  <defs>
    <style>
      .cls-1 {
        fill-rule: evenodd;
      }
    </style>
  </defs>
  <g id="Layer_1-2" data-name="Layer 1">
    <path class="cls-1" d="M49.57,82.56c.83-.85.81-2.2-.04-3.03-.85-.83-2.2-.81-3.03.04-.83.85-.81,2.2.04,3.03.85.82,2.2.81,3.03-.04h0ZM34.68,86.75c1.15.29,2.31-.4,2.6-1.55.29-1.15-.4-2.31-1.55-2.6-1.15-.29-2.31.4-2.6,1.55-.29,1.15.4,2.31,1.55,2.6h0ZM23.59,75.95c.32,1.14,1.5,1.8,2.64,1.48,1.14-.32,1.8-1.5,1.48-2.64-.32-1.14-1.5-1.8-2.64-1.48-1.14.32-1.8,1.5-1.48,2.64h0ZM53.39,67.56c-.32-1.14-1.5-1.8-2.64-1.48-1.14.32-1.8,1.5-1.48,2.64.32,1.14,1.5,1.8,2.64,1.48,1.14-.32,1.8-1.5,1.48-2.64h0ZM27.41,60.95c-.83.85-.81,2.2.04,3.03.85.82,2.2.81,3.03-.04.83-.85.81-2.2-.04-3.03-.85-.83-2.2-.81-3.03.04h0ZM42.31,56.76c-1.15-.29-2.31.4-2.6,1.55-.29,1.15.4,2.31,1.55,2.6,1.15.29,2.31-.4,2.6-1.55.29-1.15-.4-2.31-1.55-2.6h0ZM43.78,50.98c11.47,2.92,18.41,14.59,15.49,26.06-2.92,11.47-14.59,18.41-26.06,15.49-11.47-2.92-18.41-14.59-15.49-26.06,2.92-11.47,14.59-18.41,26.06-15.49h0ZM44.13,49.6c-12.23-3.11-24.68,4.29-27.79,16.52-3.11,12.23,4.29,24.68,16.52,27.79,12.24,3.11,24.68-4.29,27.79-16.52,3.11-12.24-4.29-24.68-16.52-27.79h0ZM40.01,65.78c-3.3-.84-6.66,1.16-7.5,4.46-.84,3.3,1.16,6.66,4.46,7.5,3.3.84,6.66-1.16,7.5-4.46.84-3.3-1.16-6.66-4.46-7.5h0ZM44.98,46.26c-14.08-3.58-28.4,4.93-31.99,19.01-3.58,14.08,4.93,28.4,19.01,31.99,14.08,3.58,28.4-4.93,31.98-19.01,3.58-14.08-4.93-28.4-19.01-31.99h0ZM13.76,8.63c-2.26-.57-4.55.79-5.13,3.05-.57,2.26.79,4.55,3.05,5.13,2.26.57,4.55-.79,5.13-3.05.57-2.26-.79-4.55-3.05-5.13h0ZM15.85.4C9.05-1.34,2.13,2.78.4,9.58c-1.73,6.81,2.38,13.73,9.19,15.46,6.81,1.73,13.73-2.38,15.46-9.19,1.73-6.81-2.38-13.73-9.19-15.46h0ZM83.36,25.06c-8.95-2.28-18.05,3.13-20.32,12.08-2.28,8.95,3.13,18.05,12.08,20.33s18.05-3.13,20.33-12.08c2.28-8.95-3.13-18.05-12.08-20.32h0ZM80.28,37.18c-2.26-.57-4.55.79-5.13,3.05-.57,2.26.79,4.55,3.05,5.13,2.26.57,4.55-.79,5.13-3.05s-.79-4.55-3.05-5.13h0ZM24.65,4.64l50.57,18.63c-1.88.42-3.7,1.14-5.39,2.15-.45.26-.88.55-1.3.85L27.03,10.98c-.28-2.28-1.11-4.45-2.38-6.33h0ZM84.83,58.83l-19.53,21.09c.13-.41.24-.83.35-1.25.64-2.5.92-5.04.86-7.56l10.67-11.52c2.58.29,5.19.03,7.65-.75h0ZM11.25,65.19L2.54,22.92c1.62,1.62,3.64,2.88,5.96,3.59l6.25,30.35c-1.53,2.44-2.69,5.13-3.42,7.99l-.08.34h0Z"/>
  </g>
</svg>