<?xml version="1.0" encoding="UTF-8"?>
<svg id="Layer_2" data-name="Layer 2" xmlns="http://www.w3.org/2000/svg" viewBox="0 0 97.42 95.62">
  <defs>
    <style>
      .cls-1 {
        fill-rule: evenodd;
      }
    </style>
  </defs>
  <g id="Layer_1-2" data-name="Layer 1">
    <path class="cls-1" d="M51.4,28.41c11.7,0,21.19,9.49,21.19,21.19s-9.49,21.19-21.19,21.19-21.19-9.49-21.19-21.19,9.49-21.19,21.19-21.19h0ZM51.4,41.8c-4.31,0-7.8,3.49-7.8,7.8s3.49,7.8,7.8,7.8,7.8-3.49,7.8-7.8-3.49-7.8-7.8-7.8h0ZM51.4,32.11c-1.74,0-3.14,1.41-3.14,3.14s1.41,3.14,3.14,3.14,3.14-1.41,3.14-3.14-1.41-3.14-3.14-3.14h0ZM66.54,40.86c-.87-1.5-2.79-2.02-4.29-1.15-1.5.87-2.02,2.79-1.15,4.29.87,1.5,2.79,2.02,4.29,1.15,1.5-.87,2.02-2.79,1.15-4.29h0ZM66.54,58.34c.87-1.5.35-3.42-1.15-4.29-1.5-.87-3.42-.35-4.29,1.15-.87,1.5-.35,3.42,1.15,4.29,1.5.87,3.42.35,4.29-1.15h0ZM51.4,67.09c1.73,0,3.14-1.41,3.14-3.14,0-1.74-1.41-3.14-3.14-3.14s-3.14,1.41-3.14,3.14c0,1.74,1.41,3.14,3.14,3.14h0ZM36.25,58.34c.87,1.5,2.79,2.02,4.29,1.15,1.5-.87,2.02-2.79,1.15-4.29-.87-1.5-2.79-2.02-4.29-1.15-1.5.87-2.02,2.79-1.15,4.29h0ZM36.25,40.86c-.87,1.5-.35,3.42,1.15,4.29,1.5.87,3.42.35,4.29-1.15.87-1.5.35-3.42-1.15-4.29-1.5-.87-3.42-.35-4.29,1.15h0ZM51.4,23.39c8.02,0,9.1,1.16,17.09-2.07,4.48-1.81,8.52-4.11,12.35-7.1-7.95-6.62-18.17-10.62-29.32-10.65.14,1.39-.13,2.84-.84,3.92-.75,1.14-2.42,2.75-3.9,4.66-.55,1.6-1.03,3.36-1.5,5.04.37.86.52,1.85.44,2.76l-.07.78-2.63,4.02c2.63-.89,5.45-1.37,8.38-1.37h0ZM63.25,26.22c12.19,6.19,10.8,16.18,22.15,24.8,3.51,2.67,7.32,4.77,11.36,6.4.43-2.54.66-5.15.66-7.81,0-13.08-5.46-24.89-14.23-33.27-4.34,3.46-9.1,6.22-14.29,8.15-1.82.68-3.7,1.26-5.66,1.74h0ZM77.57,48.16c.03.47.04.95.04,1.43,0,12.73-8.69,16.41-10.43,30.16-.55,4.38-.47,8.72.14,13.04,14.24-5.25,25.17-17.34,28.8-32.29-4.47-1.75-8.68-4.05-12.59-7.02-2.08-1.58-4.07-3.35-5.96-5.32h0ZM65.72,71.55c-4.12,2.69-9.04,4.26-14.33,4.26-7.71,0-9.01-1.07-16.2,1.71-4.81,1.86-9.14,4.25-13.24,7.46,7.98,6.65,18.24,10.65,29.44,10.65,4.49,0,8.82-.64,12.92-1.84-.72-4.75-.83-9.55-.22-14.42.33-2.59.86-5.2,1.62-7.82h0ZM39.54,72.98c-7.88-4-13.46-11.86-14.26-21.09l-3.04,4.64-.69.38c-.8.44-1.77.71-2.71.71-1.35,1.11-2.77,2.25-4.02,3.4-1.15,2.12-1.95,4.3-2.7,5.44-.6.93-1.58,1.66-2.68,2.13,2.45,5.4,5.91,10.24,10.14,14.28,4.33-3.46,9.09-6.22,14.27-8.14,1.83-.68,3.72-1.27,5.68-1.75h0ZM23.81,46.57c-.71-1.11,11.01-20.75,13.33-20.4.34.05,1.57-.54,1.57-.54l3.88-5.94s.08-.9-.31-1.48c-.39-.58-.36-.66-.36-.66,0,0,1.92-6.61,2.07-6.89.09-.17,1.46-1.77,2.59-3.1.61-.31,1.14-.77,1.54-1.38,1.21-1.85.69-4.32-1.16-5.53-1.85-1.21-4.32-.69-5.53,1.16-.1.15-.18.3-.26.46-.16.18-.26.19-.68.21-.71.05-1.85-.87-2.31-.93-.47-.06-2.69.05-4.07.41-3.59.91-9.91,3.58-12.34,6.24-.84.92-1.24,1.44-1.52,3.06-.28,1.62-.75,2.61-1.35,3.68-1.18,2.11-2.89,3.23-5.08,3.95-1.31.35-3.96.27-4.88,1.04-.99.83-1.81,2.09-2.17,3.33-.34,1.16.79,3.55,1,4.89.1,1.08.14,2.21-.14,3.26-.32,1.23-.88,2.24-1.44,2.98-.74.98-1.45,1.81-2.83,2.72-1.37.91-1.69,1.49-2.19,2.62-1.47,3.3-1.36,10.15-.76,13.81.23,1.41,1.02,3.49,1.26,3.89.25.4,1.54,1.07,1.78,1.74.13.37.17.48.09.67-.1.12-.19.24-.28.37-1.21,1.85-.69,4.32,1.16,5.53,1.85,1.21,4.32.69,5.53-1.16.41-.62.62-1.31.65-2,.75-1.54,1.63-3.35,1.74-3.49.2-.25,5.48-4.66,5.48-4.66,0,0,.07-.06.76.07.68.12,1.48-.31,1.48-.31l3.88-5.94s.57-.54-.14-1.66h0ZM43.78,5.54c-.85-.56-1.09-1.7-.53-2.55.56-.85,1.7-1.09,2.55-.53.85.56,1.09,1.7.53,2.55s-1.7,1.09-2.55.53h0ZM9.96,25.16c-.85-.56-1.09-1.7-.53-2.55.56-.85,1.7-1.09,2.55-.53.85.56,1.09,1.7.53,2.55-.56.85-1.7,1.09-2.55.53h0ZM5.62,63.93c-.85-.56-1.09-1.7-.53-2.55.56-.85,1.7-1.09,2.55-.53.85.56,1.09,1.7.53,2.55-.56.85-1.7,1.09-2.55.53Z"/>
  </g>
</svg>