<?xml version="1.0" encoding="UTF-8"?>
<svg id="Layer_2" data-name="Layer 2" xmlns="http://www.w3.org/2000/svg" viewBox="0 0 98.93 67.09">
  <defs>
    <style>
      .cls-1 {
        fill-rule: evenodd;
      }
    </style>
  </defs>
  <g id="Layer_1-2" data-name="Layer 1">
    <path class="cls-1" d="M26.86,47.17c-.3-.26-.4-.36-.43-.76v-.18c.01-.13.07-.63.18-.69l.59-.32v-4.01c0-.32-.17-.7-.38-.85-.19-.12-.31-.28-.35-.46-.28-1.24,1.06-2.3,2.01-2.8l37.65-19.5c1.43-.74,3.37-.66,4.78.07,8.61,4.47,17.22,8.94,25.82,13.42,1.1.57,2.45,1.51,2.11,2.95-.05.23-.18.42-.37.58-.2.16-.37.54-.37.85v4.09l.64.27c.12.05.13.18.13.29v.71c0,.3-.13.4-.34.58-13.59,8.29-27.16,16.62-40.72,24.96-1.17.72-2.13,1.08-3.44.24-9.17-6.49-18.34-12.97-27.53-19.43h0ZM33.38,40.16c.74-.38,1.48-.77,2.23-1.15,7.6,5.18,15.19,10.35,22.78,15.53-.76.46-1.53.93-2.3,1.39-7.57-5.25-15.14-10.51-22.71-15.76h0ZM37.01,38.28c.73-.38,1.45-.75,2.18-1.13,7.63,5.05,15.27,10.1,22.9,15.16-.75.45-1.5.9-2.24,1.36-7.61-5.13-15.22-10.25-22.83-15.38h0ZM40.56,36.43c.71-.37,1.42-.74,2.13-1.1,7.67,4.93,15.34,9.86,23.01,14.79-.73.44-1.46.88-2.2,1.33-7.65-5.01-15.3-10.01-22.94-15.01h0ZM44.04,34.63c.7-.36,1.4-.72,2.09-1.09,7.71,4.81,15.41,9.63,23.11,14.44-.72.43-1.43.87-2.15,1.3-7.68-4.89-15.37-9.78-23.05-14.65h0ZM47.45,32.86c.68-.35,1.37-.71,2.05-1.06,7.73,4.7,15.47,9.4,23.2,14.1-.7.42-1.41.85-2.11,1.27-7.71-4.78-15.43-9.54-23.15-14.31h0ZM50.79,31.12c.67-.35,1.34-.69,2.01-1.04,7.76,4.59,15.52,9.18,23.28,13.78-.68.41-1.37.82-2.05,1.24-7.74-4.66-15.49-9.32-23.23-13.97h0ZM54.07,29.42c.65-.34,1.31-.68,1.96-1.02,7.79,4.48,15.57,8.97,23.36,13.46-.67.4-1.34.81-2.01,1.21-7.77-4.55-15.54-9.1-23.31-13.65h0ZM57.27,27.76c.64-.33,1.29-.67,1.93-1,7.81,4.38,15.61,8.77,23.42,13.15-.65.4-1.31.79-1.97,1.19-7.79-4.45-15.59-8.89-23.38-13.34h0ZM60.42,26.12c.63-.33,1.27-.66,1.89-.98,7.83,4.28,15.65,8.57,23.48,12.85-.64.39-1.28.78-1.92,1.16-7.81-4.35-15.63-8.69-23.45-13.03h0ZM63.51,24.52c.62-.32,1.24-.64,1.86-.96,7.84,4.19,15.69,8.37,23.53,12.56-.63.38-1.26.76-1.89,1.14-7.83-4.25-15.67-8.49-23.5-12.74h0ZM66.54,22.95c.61-.32,1.22-.63,1.82-.95,7.85,4.1,15.71,8.19,23.57,12.28-.62.37-1.23.74-1.85,1.11-7.85-4.15-15.7-8.3-23.55-12.45h0ZM29.76,39.38c12.56-6.46,25.12-12.91,37.68-19.37.57-.29,1.59-.26,2.25.08,8.61,4.44,17.22,8.88,25.82,13.32.71.37.93,1.07.2,1.52-5.78,3.53-11.79,7.2-18.02,11-6.56,4.01-13.4,8.18-20.52,12.53-.74.45-1.99.38-2.77-.17-4.51-3.17-8.86-6.23-13.06-9.18-4.05-2.85-7.96-5.6-11.74-8.26-.63-.44-.56-1.1.16-1.47h0Z"/>
    <path class="cls-1" d="M24.1,15.63c-2.3-.47-4.91-.97-7.23-.58-2.87.47-5.69,1.8-8.6,2.35-2.94.56-5.6.12-8.27-.79v-4.69c2.4.98,4.86,1.57,7.53,1.09,2.83-.5,5.57-1.79,8.42-2.3,2.67-.48,5.49-.05,8.15.43v-2.77l8.01,5.02-8.01,5.03v-2.79h0ZM24.1,26.73c-2.3-.47-4.91-.97-7.23-.58-2.87.47-5.69,1.8-8.6,2.35-2.94.56-5.6.12-8.27-.79v-4.69c2.4.98,4.86,1.57,7.53,1.09,2.83-.5,5.57-1.79,8.42-2.3,2.67-.48,5.49-.05,8.15.43v-2.77l8.01,5.03-8.01,5.03v-2.79h0ZM11.99,0h52.29c.75,0,1.44.31,1.93.82.5.51.8,1.21.8,1.98v12.59c-.6.12-1.18.31-1.71.59l-.52.27V2.8c0-.14-.06-.27-.15-.36-.09-.09-.22-.15-.36-.15H11.99c-.14,0-.26.06-.36.15h0c-.09.1-.14.23-.14.37v7.71c-.74.24-1.48.48-2.23.69V2.8c0-.77.31-1.47.8-1.97h0c.5-.51,1.18-.83,1.93-.83h0ZM11.49,17.96v3.65c-.74.24-1.48.48-2.23.69v-3.72c.75-.17,1.49-.39,2.23-.62h0ZM11.49,29.07v6.02c0,.14.06.27.15.36.09.09.22.15.36.15h15.42c-.95.54-1.85,1.33-2.36,2.28h-13.06c-.75,0-1.44-.31-1.93-.82-.5-.51-.8-1.21-.8-1.98v-5.4c.75-.17,1.49-.39,2.23-.62h0ZM13.89,4.51h2.79v4.71c-.32.04-.65.08-.97.14-.62.11-1.22.25-1.82.42v-5.26h0ZM16.68,16.47v3.86c-.32.04-.65.08-.97.14-.62.11-1.22.25-1.82.42v-3.69c.92-.29,1.85-.55,2.79-.73h0ZM16.68,27.57v5.81h-2.79v-5.08c.92-.29,1.85-.55,2.79-.73h0ZM18.46,4.51h2.79v4.79c-.93-.11-1.86-.18-2.79-.18v-4.61h0ZM21.25,16.49v3.92c-.93-.11-1.86-.18-2.79-.18v-3.95c.91-.02,1.86.08,2.79.22h0ZM21.25,27.6v5.78h-2.79v-6c.91-.02,1.86.08,2.79.22h0ZM23.03,4.51h2.79v3.32l-2.79-1.75v-1.57h0ZM25.82,30.06v3.32h-2.79v-1.57l2.79-1.75h0ZM27.6,4.51h2.79v6.19l-2.79-1.75v-4.44h0ZM30.39,16.08v5.72l-2.79-1.75v-2.22l2.79-1.75h0ZM30.39,27.19v6.19h-2.79v-4.44l2.79-1.75h0ZM32.17,4.51h2.79v27.18l-2.79,1.45v-7.07l2.51-1.57-2.51-1.57v-7.96l2.51-1.57-2.51-1.57v-7.31h0ZM36.75,4.51h2.79v24.81l-2.79,1.45V4.51h0ZM41.32,4.51h2.79v22.45l-2.79,1.45V4.51h0ZM45.89,4.51h2.79v20.08l-2.79,1.45V4.51h0ZM50.46,4.51h2.79v17.71l-2.79,1.45V4.51h0ZM55.03,4.51h2.79v15.34l-2.79,1.45V4.51h0ZM59.6,4.51h2.79v12.98l-2.79,1.45V4.51h0Z"/>
  </g>
</svg>