<?xml version="1.0" encoding="UTF-8"?>
<svg id="Layer_2" data-name="Layer 2" xmlns="http://www.w3.org/2000/svg" viewBox="0 0 98.51 98.51">
  <defs>
    <style>
      .cls-1 {
        fill-rule: evenodd;
      }
    </style>
  </defs>
  <g id="Layer_1-2" data-name="Layer 1">
    <path class="cls-1" d="M6.96,79.33l-.32-.32-2.97-2.97c-2.53,2.53-1.42.3-3.66,2.55,6.64,6.64,13.28,13.28,19.92,19.92,2.25-2.25.02-1.13,2.55-3.66l-3.3-3.3c-.77-.77-.43-4,.36-4.79l1.44-1.44.34.34,5.15-5.15-.94-.94c.86-3.76-2.81-7.43-6.57-6.57l-.94-.94-5.15,5.15.34.34-1.44,1.44c-.79.79-4.02,1.13-4.79.36h0ZM17.51,76.68c1.19-1.19,3.12-1.19,4.31,0,1.19,1.19,1.19,3.12,0,4.31-1.19,1.19-3.12,1.19-4.31,0-1.19-1.19-1.19-3.12,0-4.31h0ZM25.9,91.36c-.49-.49-.56.62-1.26-.07l-2.62-2.62c-.25-.25-.25-.67,0-.92l.21-.21-.55-.55,6.16-6.16.55.55.4-.4c.54-5.32-5.87-11.73-11.19-11.19l-.4.4.55.55-6.16,6.16-.55-.55-.21.21c-.25.25-.67.25-.92,0l-2.62-2.62c-.25-.25-.25-.67,0-.92.31-.31-.54-.42-.07-.89l5.84-5.84c.15-.15.4-.15.55,0,.38.38,1.34-1.13,2.79-1.32,1.42-.19,6.42-1.07,6.42-1.07l16.13-16.13,3.96-1.19,9.09,9.09-1.19,3.96-16.13,16.13s-.88,5.01-1.07,6.42c-.25,1.84-1.85,2.26-1.33,2.79.15.15.15.4,0,.55l-5.84,5.84c-.15.15-.4.15-.55,0h0ZM51.97,52.56l6.34-6.34-5.95-5.95-6.34,6.34,5.95,5.95h0ZM79.33,6.96l-.32-.32-2.97-2.97c2.53-2.53.3-1.42,2.55-3.66,6.64,6.64,13.28,13.28,19.92,19.92-2.25,2.25-1.13.01-3.66,2.55l-3.3-3.3c-.77-.77-4-.43-4.79.36l-1.44,1.44.34.34-5.15,5.15-.94-.94c-3.76.86-7.43-2.81-6.57-6.57l-.94-.94,5.15-5.15.34.34,1.44-1.44c.79-.79,1.13-4.02.36-4.79h0ZM76.68,17.51c-1.19,1.19-1.19,3.12,0,4.31,1.19,1.19,3.12,1.19,4.31,0,1.19-1.19,1.19-3.12,0-4.31-1.19-1.19-3.12-1.19-4.31,0h0ZM91.36,25.9c.15.15.15.4,0,.55l-5.84,5.84c-.15.15-.4.15-.55,0-.53-.53-.95,1.08-2.79,1.33-2.8.38-7.64-1.4-9.66.61l-8.89,8.89-3.96,1.19-5.4-5.4,1.19-3.96,8.89-8.89c2.01-2.01.23-6.86.61-9.66.2-1.45,1.71-2.4,1.33-2.79-.15-.15-.15-.4,0-.55l5.84-5.84c.47-.47.57.39.89.07.25-.25.67-.25.92,0l2.62,2.62c.25.25.25.67,0,.92l-.21.21.55.55-6.16,6.16-.55-.55-.4.4c-.54,5.32,5.87,11.73,11.19,11.19l.4-.4-.55-.55,6.16-6.16.55.55.21-.21c.25-.25.67-.25.92,0l2.62,2.62c.69.69-.42.76.07,1.26Z"/>
  </g>
</svg>