<?xml version="1.0" encoding="UTF-8"?>
<svg id="Layer_2" data-name="Layer 2" xmlns="http://www.w3.org/2000/svg" viewBox="0 0 83.21 97.96">
  <defs>
    <style>
      .cls-1 {
        fill-rule: evenodd;
      }
    </style>
  </defs>
  <g id="Layer_1-2" data-name="Layer 1">
    <path class="cls-1" d="M79.23,78.42c2.3,1.74,3.61,3.67,3.61,5.73,0,7.65-18.48,13.82-41.26,13.82S.37,91.8.37,84.14c0-2.05,1.31-3.98,3.61-5.73v2.99c0,4.11,8.46,6.22,11.45,6.91,8.34,1.93,17.67,2.49,26.14,2.49s17.86-.56,26.14-2.49c2.99-.68,11.45-2.74,11.51-6.85v-3.05ZM4.92,81.4V21.53c.81.44,1.62.87,2.49,1.24v61.67c.44.31.93.56,1.49.81V23.46c1.12.44,2.12.81,2.99,1.12.31.12.62.19,1,.31v61.8c.56.12,1.12.31,1.74.44V25.39c1.24.37,2.43.68,3.67.93v61.61c.68.12,1.37.25,2.05.37V26.76c1.12.25,2.3.44,3.42.62v61.43c.75.12,1.49.19,2.3.31V27.69c1.06.12,2.12.25,3.17.37v61.3c.81.06,1.68.12,2.55.19V28.32c.93.06,1.93.12,2.86.19v61.24c.93.06,1.87.06,2.8.06V28.63c.93,0,1.8.06,2.68.06v61.18h3.05V28.69c.87,0,1.8-.06,2.68-.06v61.18c.93,0,1.87-.06,2.8-.06V28.5c1-.06,1.93-.12,2.93-.19v61.24c.87-.06,1.68-.12,2.55-.19V28.07c1.06-.12,2.12-.25,3.17-.37v61.36c.75-.06,1.49-.19,2.24-.25V27.38c1.18-.19,2.3-.44,3.42-.62v61.55c.75-.12,1.43-.25,2.05-.37V26.33c1.24-.31,2.49-.62,3.67-.93v61.74c.62-.19,1.24-.31,1.8-.5V24.83c.25-.06.56-.19.81-.25.93-.31,1.99-.68,3.11-1.18v61.8c.56-.25,1.06-.56,1.56-.81V22.72c.81-.37,1.68-.81,2.49-1.31l-.19,60.06h0c-.12,4.67-16.49,8.4-36.72,8.4s-36.66-3.8-36.66-8.46h0ZM41.57,0c23.03,0,41.64,6.22,41.64,13.88s-18.61,13.88-41.64,13.88S0,21.53,0,13.88,18.61,0,41.57,0h0ZM41.57,2.68c18.61,0,33.61,3.49,33.61,7.78s-15,7.78-33.61,7.78S8.03,14.75,8.03,10.46,23.03,2.68,41.57,2.68h0ZM70.7,13.44c-5.79,2.3-16.68,3.86-29.13,3.86s-23.28-1.56-29.06-3.86c5.79-2.36,16.68-3.92,29.06-3.92s23.34,1.56,29.13,3.92h0Z"/>
  </g>
</svg>