<?xml version="1.0" encoding="UTF-8"?>
<svg id="Layer_2" data-name="Layer 2" xmlns="http://www.w3.org/2000/svg" viewBox="0 0 97.26 77.79">
  <defs>
    <style>
      .cls-1 {
        fill-rule: evenodd;
      }
    </style>
  </defs>
  <g id="Layer_1-2" data-name="Layer 1">
    <path class="cls-1" d="M3.72,7.36h2.64v-3.38h-1.13V.9c0-.5.41-.9.9-.9h17.89c.5,0,.9.41.9.9v3.08h-1.13v3.38h69.76c2.05,0,3.72,1.68,3.72,3.72v62.99c0,2.04-1.68,3.72-3.72,3.72H3.72c-2.05,0-3.72-1.67-3.72-3.72V11.08c0-2.05,1.67-3.72,3.72-3.72h0ZM4.52,11.88v61.39h88.23V11.88H21.16c-.44-.02-.68-.24-.69-.7V3.97h-10.8v7.21c0,.46-.2.7-.65.7h-4.5ZM7.67,15.94h23.24c-2,.7-3.84,1.79-5.35,3.28l-.07.07H7.67v-3.35h0ZM43.21,15.94h13.14c-1.79.73-3.42,1.85-4.77,3.35h-3.22c-1.31-1.62-3.2-2.67-5.15-3.35h0ZM66.67,15.94h22.92v3.35h-17.83c-1.55-1.52-3.28-2.63-5.09-3.35h0ZM7.67,21.48h15.99c-.74,1.07-1.32,2.19-1.75,3.35H7.67v-3.35h0ZM73.58,21.48h16.02v3.35h-14.36c-.17-.48-.36-.95-.57-1.41-.31-.67-.68-1.32-1.09-1.94h0ZM7.67,27.02h13.63c-.22,1.11-.3,2.24-.24,3.35H7.67v-3.35h0ZM75.84,27.02h13.76v3.35h-13.37c-.03-1.13-.17-2.26-.39-3.35h0ZM7.67,32.56h13.67c.25,1.16.65,2.29,1.2,3.35H7.67v-3.35h0ZM76.17,32.56h13.42v3.35h-13.99c.29-1.08.48-2.21.57-3.35h0ZM7.67,38.1h16.29c1.06,1.31,2.39,2.44,3.98,3.31l-.12.04H7.67v-3.35h0ZM74.85,38.1h14.74v3.35h-16.83c.37-.4.72-.85,1.03-1.34.4-.63.75-1.3,1.05-2.01h0ZM7.67,43.64h16.83c-.38.4-.72.85-1.03,1.34-.4.63-.75,1.3-1.05,2.01H7.67v-3.35h0ZM69.44,43.64h20.15v3.35h-16.29c-1.06-1.31-2.39-2.44-3.98-3.31l.12-.04h0ZM7.67,49.18h13.99c-.29,1.08-.48,2.21-.57,3.35H7.67v-3.35h0ZM74.73,49.18h14.86v3.35h-13.67c-.25-1.16-.65-2.29-1.2-3.35h0ZM7.67,54.72h13.37c.03,1.13.16,2.26.39,3.35H7.67v-3.35h0ZM76.21,54.72h13.38v3.35h-13.63c.22-1.11.3-2.24.24-3.35h0ZM7.67,60.26h14.36c.17.48.36.95.57,1.4.31.68.68,1.33,1.09,1.94H7.67v-3.35h0ZM75.35,60.26h14.24v3.35h-15.99c.74-1.07,1.32-2.19,1.75-3.35h0ZM7.67,65.79h17.83c1.54,1.52,3.28,2.63,5.09,3.35H7.67v-3.35h0ZM45.68,65.79h3.22c1.31,1.62,3.2,2.67,5.15,3.35h-13.14c1.79-.73,3.43-1.85,4.77-3.35h0ZM71.77,65.79h17.83v3.35h-23.24c2.01-.7,3.91-1.83,5.41-3.35h0Z"/>
    <path class="cls-1" d="M48.33,39.2c1.85-.16,3.47,1.2,3.64,3.04s-1.2,3.47-3.05,3.64c-1.84.16-3.47-1.2-3.64-3.04-.16-1.85,1.2-3.48,3.05-3.64h0ZM49.16,35.21c1.53-2.15,1.62-6.66,2.09-8.76,2.02-9.08,12.37-11.16,18.55-4.86,4.53,4.61,4.08,12.79,1.45,16.9-2.01,3.15-5.89,3.44-8.38.84-.59-.61-1.07-1.35-1.5-2.13-1.12-2.03-2.37-2.55-3.88-1.62-1.05.64-2.29,1.92-2.52,3.24.53.91.88,1.95.98,3.07.04.4.04.79.01,1.18,2.16,1.53,6.66,1.62,8.76,2.09,9.08,2.02,11.15,12.37,4.86,18.55-4.61,4.53-12.79,4.08-16.9,1.45-3.14-2.01-3.44-5.89-.84-8.38.61-.59,1.35-1.07,2.13-1.51,2.03-1.12,2.55-2.37,1.62-3.88-.64-1.05-1.92-2.28-3.24-2.52-.91.53-1.95.88-3.07.98-.4.04-.79.04-1.18.01-1.53,2.16-1.62,6.66-2.09,8.76-2.02,9.08-12.37,11.15-18.55,4.86-4.53-4.61-4.08-12.79-1.45-16.9,2.01-3.14,5.89-3.44,8.38-.84.59.61,1.07,1.35,1.51,2.13,1.12,2.03,2.37,2.55,3.88,1.62,1.05-.64,2.28-1.92,2.52-3.24-.53-.91-.88-1.95-.98-3.07-.04-.4-.04-.79-.01-1.18-2.16-1.53-6.66-1.62-8.76-2.09-9.08-2.02-11.15-12.37-4.86-18.56,4.61-4.53,12.79-4.07,16.9-1.45,3.15,2.01,3.44,5.89.84,8.38-.61.59-1.35,1.07-2.13,1.5-2.03,1.12-2.55,2.37-1.62,3.88.64,1.05,1.92,2.28,3.24,2.52.91-.53,1.95-.88,3.07-.98.4-.04.79-.04,1.18-.01h0Z"/>
  </g>
</svg>