<?xml version="1.0" encoding="UTF-8"?>
<svg id="Layer_2" data-name="Layer 2" xmlns="http://www.w3.org/2000/svg" viewBox="0 0 96.74 71.17">
  <g id="Layer_1-2" data-name="Layer 1">
    <g id="Element">
      <path d="M96.69,16.84l-.06-.79-40.48,2.01c-9.79.72-17.85,6.3-22.58,14.65.59.1,1.17.19,1.76.26,4.51-7.58,11.93-12.63,20.92-13.28l38.86-1.93c.01.44.01.89.01,1.31,0,17.1-10.61,29.76-25.8,30.8l-3.6.26c.28.52.56,1.04.82,1.57l2.9-.21c16.08-1.11,27.31-14.44,27.31-32.42,0-.72,0-1.5-.06-2.22Z"/>
      <path d="M73.54,39.55c3.7,0,6.7-3.01,6.7-6.7s-3.01-6.7-6.7-6.7-6.7,3.01-6.7,6.7,3.01,6.7,6.7,6.7ZM73.54,27.98c2.69,0,4.86,2.18,4.86,4.86s-2.18,4.86-4.86,4.86-4.86-2.18-4.86-4.86,2.18-4.86,4.86-4.86Z"/>
      <path d="M46.37,34.23c.52.12,1.03.24,1.55.4,3.46,1.05,6.67,2.61,9.45,4.88.62-.96.99-2.1.99-3.32,0-3.4-2.77-6.17-6.17-6.17-2.71,0-4.99,1.77-5.82,4.21Z"/>
      <path d="M64.07,47.32l4.18-.28c13.38-.86,23.56-11.98,23.56-25.13,0-.54,0-1.13-.05-1.67l-34.41,2.25c-7.93.54-14.76,4.7-18.99,10.76,1.59.12,3.18.23,4.77.42,1.1-3.97,4.74-6.9,9.06-6.9,5.19,0,9.41,4.22,9.41,9.41,0,2.1-.7,4.03-1.86,5.59,1.64,1.71,3.07,3.57,4.33,5.54ZM73.54,22.62c5.64,0,10.22,4.59,10.22,10.22s-4.59,10.22-10.22,10.22-10.22-4.59-10.22-10.22,4.59-10.22,10.22-10.22Z"/>
      <path d="M40.59,34.86L.12,32.85l-.06.79c-.06.72-.06,1.5-.06,2.22,0,17.99,11.23,31.32,27.31,32.42l40.3,2.89.05-.82c1.21-19.02-10.43-34.29-27.07-35.5ZM66.09,69.44l-38.67-2.78c-15.2-1.04-25.8-13.71-25.8-30.8,0-.42,0-.87.01-1.31l38.86,1.93c15.47,1.13,26.37,15.23,25.6,32.96Z"/>
      <path d="M23.21,42.94c-3.7,0-6.7,3.01-6.7,6.7s3.01,6.7,6.7,6.7,6.7-3.01,6.7-6.7-3.01-6.7-6.7-6.7ZM23.21,54.5c-2.69,0-4.86-2.18-4.86-4.86s2.18-4.86,4.86-4.86,4.86,2.18,4.86,4.86-2.18,4.86-4.86,4.86Z"/>
      <path d="M44.56,46.81c-3.4,0-6.17,2.77-6.17,6.17s2.77,6.17,6.17,6.17,6.17-2.77,6.17-6.17-2.77-6.17-6.17-6.17Z"/>
      <path d="M39.4,39.29l-34.41-2.25c-.05.54-.05,1.13-.05,1.67,0,13.15,10.18,24.28,23.56,25.13l34.37,2.3c.95-13.92-9.59-25.9-23.47-26.84ZM23.21,59.86c-5.64,0-10.22-4.59-10.22-10.22s4.59-10.22,10.22-10.22,10.22,4.59,10.22,10.22-4.59,10.22-10.22,10.22ZM44.56,62.4c-5.19,0-9.41-4.22-9.41-9.41s4.22-9.41,9.41-9.41,9.41,4.22,9.41,9.41-4.22,9.41-9.41,9.41Z"/>
      <rect x="34.31" y="4.94" width="2.02" height="13.52" transform="translate(1.41 27.01) rotate(-42.63)"/>
      <rect x="39.21" y="1.58" width="2.02" height="13.52" transform="translate(-.03 16.55) rotate(-23.24)"/>
      <rect x="44.89" y=".05" width="2.01" height="13.52" transform="translate(-.36 3.22) rotate(-4.01)"/>
    </g>
  </g>
</svg>