<?xml version="1.0" encoding="UTF-8"?>
<svg id="Layer_2" data-name="Layer 2" xmlns="http://www.w3.org/2000/svg" viewBox="0 0 95.87 93.97">
  <defs>
    <style>
      .cls-1 {
        fill-rule: evenodd;
      }
    </style>
  </defs>
  <g id="Layer_1-2" data-name="Layer 1">
    <path class="cls-1" d="M95.87,53.2v4.21c-.05,1.79-.62,3.39-1.69,4.76v14.22c-3.18.42-5.68,2.35-7.7,4.93-3.38-.95-6.48.08-9.25,2.24-3.24-1.4-7.13-1.4-10.37,0-2.77-2.15-5.87-3.19-9.25-2.24-2.03-2.58-4.52-4.5-7.7-4.93v-14.22c-1.08-1.38-1.64-2.96-1.69-4.76v-4.21c0-4.4,3.88-7.49,7.7-9.27,4.84-2.26,10.77-3.15,16.13-3.15s11.29.89,16.13,3.15c3.82,1.78,7.7,4.87,7.7,9.27h0ZM72.04,49.57c4.3,0,7.78,1.62,7.78,3.63s-3.48,3.63-7.78,3.63-7.78-1.62-7.78-3.63,3.48-3.63,7.78-3.63h0ZM72.04,45.07c1.73,0,3.13.65,3.13,1.46s-1.4,1.46-3.13,1.46-3.13-.65-3.13-1.46,1.4-1.46,3.13-1.46h0ZM87.15,49.14c.87.7.35,1.59-1.15,2-1.5.4-3.41.16-4.28-.54-.87-.7-.35-1.59,1.15-2,1.5-.4,3.41-.16,4.28.53h0ZM87.15,57.27c-.87.7-2.78.94-4.28.53-1.5-.4-2.01-1.3-1.15-2,.87-.7,2.78-.94,4.28-.53,1.5.4,2.01,1.3,1.15,2h0ZM72.04,61.33c-1.73,0-3.13-.65-3.13-1.46,0-.81,1.4-1.46,3.13-1.46s3.13.65,3.13,1.46c0,.81-1.4,1.46-3.13,1.46h0ZM56.94,57.27c-.87-.7-.35-1.59,1.15-2,1.5-.4,3.41-.16,4.28.53.86.7.35,1.59-1.15,2-1.5.4-3.41.16-4.28-.53h0ZM56.94,49.14c.86-.7,2.78-.94,4.28-.53,1.5.4,2.01,1.3,1.15,2-.87.7-2.78.94-4.28.53-1.5-.4-2.01-1.3-1.15-2h0ZM76.53,85.14v8.58c-2.98.33-6.01.33-8.99,0v-8.58c2.8-1.18,6.19-1.18,8.99,0h0ZM78.13,93.51c2.82-.43,5.49-1.18,7.83-2.24v-8.3c-2.87-.76-5.49.19-7.83,2.01v8.52h0ZM87.56,90.47c2.4-1.34,4.31-3.06,5.45-5.17.3-.67.49-1.44.52-2.36v-4.65c-2.45.6-4.4,2.29-5.97,4.34v7.85h0ZM65.95,93.51c-2.82-.43-5.49-1.18-7.83-2.24v-8.3c2.87-.76,5.49.19,7.83,2.01v8.52h0ZM56.53,90.47c-2.4-1.34-4.31-3.06-5.45-5.17-.3-.67-.49-1.44-.52-2.36v-4.65c2.45.6,4.4,2.29,5.97,4.34v7.85h0ZM72.04,43.35c11.67,0,21.13,4.41,21.13,9.85s-9.46,9.85-21.13,9.85-21.13-4.41-21.13-9.85,9.46-9.85,21.13-9.85h0Z"/>
    <path class="cls-1" d="M47.66,12.42v4.21c-.05,1.79-.61,3.38-1.69,4.76v18.45c0,17.77-44.28,17.82-44.28,0v-18.45c-1.08-1.38-1.64-2.96-1.69-4.76v-4.21C0,8.02,3.88,4.93,7.7,3.15,12.55.89,18.48,0,23.83,0s11.29.89,16.13,3.15c3.82,1.78,7.7,4.87,7.7,9.27h0ZM23.83,8.79c4.3,0,7.78,1.62,7.78,3.63s-3.48,3.63-7.78,3.63-7.78-1.62-7.78-3.63,3.48-3.63,7.78-3.63h0ZM23.83,4.29c1.73,0,3.13.65,3.13,1.46s-1.4,1.46-3.13,1.46-3.13-.65-3.13-1.46,1.4-1.46,3.13-1.46h0ZM38.94,8.36c.87.7.35,1.59-1.15,2-1.5.4-3.41.16-4.28-.54-.87-.7-.35-1.59,1.15-2,1.5-.4,3.41-.16,4.28.53h0ZM38.94,16.49c-.87.7-2.78.94-4.28.54-1.5-.4-2.01-1.3-1.15-2,.87-.7,2.78-.94,4.28-.53,1.5.4,2.01,1.3,1.15,2h0ZM23.83,20.55c-1.73,0-3.13-.65-3.13-1.46,0-.81,1.4-1.46,3.13-1.46s3.13.65,3.13,1.46c0,.81-1.4,1.46-3.13,1.46h0ZM8.73,16.49c-.87-.7-.35-1.59,1.15-2,1.5-.4,3.41-.16,4.28.54.86.7.35,1.59-1.15,2-1.5.4-3.41.16-4.28-.53h0ZM8.73,8.36c.86-.7,2.78-.94,4.28-.53,1.5.4,2.01,1.3,1.15,2-.87.7-2.78.94-4.28.53-1.5-.4-2.01-1.3-1.15-2h0ZM23.83,2.57c11.67,0,21.13,4.41,21.13,9.85s-9.46,9.85-21.13,9.85S2.7,17.86,2.7,12.42,12.16,2.57,23.83,2.57h0Z"/>
  </g>
</svg>