<?xml version="1.0" encoding="UTF-8"?>
<svg id="Layer_2" data-name="Layer 2" xmlns="http://www.w3.org/2000/svg" viewBox="0 0 98.93 67.37">
  <defs>
    <style>
      .cls-1 {
        fill-rule: evenodd;
      }
    </style>
  </defs>
  <g id="Layer_1-2" data-name="Layer 1">
    <path class="cls-1" d="M8.49,7.77h81.8c.92,0,1.67.87,1.67,1.92v41.08h4.53v-1.06h2.43v10.59h-2.43v-1.06h-4.53v6.2c0,1.06-.75,1.92-1.67,1.92H8.49c-.92,0-1.67-.86-1.67-1.92V25.74H2.43v1.06H0v-10.59h2.43v1.06h4.38v-7.58c0-1.06.75-1.92,1.67-1.92h0ZM16.71,6.16h11.14l.61-2.57h1V1.02c0-.56-.4-1.02-.89-1.02h-12.58c-.49,0-.89.46-.89,1.02v2.57h1l.61,2.57h0ZM12.73,17.76v1.98h16.33v-1.98H12.73ZM31.78,17.76v1.98h16.33v-1.98h-16.33ZM50.82,17.76v1.98h16.34v-1.98h-16.34ZM69.86,17.76v1.98h16.34v-1.98h-16.34ZM12.73,22.14v1.98h16.33v-1.98H12.73ZM31.78,22.14v1.98h16.33v-1.98h-16.33ZM50.82,22.14v1.98h16.34v-1.98h-16.34ZM69.86,22.14v1.98h16.34v-1.98h-16.34ZM12.73,26.52v1.98h16.33v-1.98H12.73ZM31.78,26.52v1.98h16.33v-1.98h-16.33ZM50.82,26.52v1.98h16.34v-1.98h-16.34ZM69.86,26.52v1.98h16.34v-1.98h-16.34ZM12.73,30.9v1.98h16.33v-1.98H12.73ZM31.78,30.9v1.98h16.33v-1.98h-16.33ZM50.82,30.9v1.98h16.34v-1.98h-16.34ZM69.86,30.9v1.98h16.34v-1.98h-16.34ZM12.73,35.27v1.98h16.33v-1.98H12.73ZM31.78,35.27v1.98h16.33v-1.98h-16.33ZM50.82,35.27v1.98h16.34v-1.98h-16.34ZM69.86,35.27v1.98h16.34v-1.98h-16.34ZM12.73,39.65v1.98h16.33v-1.98H12.73ZM31.78,39.65v1.98h16.33v-1.98h-16.33ZM50.82,39.65v1.98h16.34v-1.98h-16.34ZM69.86,39.65v1.98h16.34v-1.98h-16.34ZM12.73,44.03v1.98h16.33v-1.98H12.73ZM31.78,44.03v1.98h16.33v-1.98h-16.33ZM50.82,44.03v1.98h16.34v-1.98h-16.34ZM69.86,44.03v1.98h16.34v-1.98h-16.34ZM12.73,48.41v1.98h16.33v-1.98H12.73ZM31.78,48.41v1.98h16.33v-1.98h-16.33ZM50.82,48.41v1.98h16.34v-1.98h-16.34ZM69.86,48.41v1.98h16.34v-1.98h-16.34ZM12.73,52.79v1.98h16.33v-1.98H12.73ZM31.78,52.79v1.98h16.33v-1.98h-16.33ZM50.82,52.79v1.98h16.34v-1.98h-16.34ZM69.86,52.79v1.98h16.34v-1.98h-16.34ZM12.73,57.16v1.98h16.33v-1.98H12.73ZM31.78,57.16v1.98h16.33v-1.98h-16.33ZM50.82,57.16v1.98h16.34v-1.98h-16.34ZM69.86,57.16v1.98h16.34v-1.98h-16.34Z"/>
  </g>
</svg>