<?xml version="1.0" encoding="UTF-8"?>
<svg id="Layer_2" data-name="Layer 2" xmlns="http://www.w3.org/2000/svg" viewBox="0 0 80.95 98.15">
  <defs>
    <style>
      .cls-1 {
        fill-rule: evenodd;
      }
    </style>
  </defs>
  <g id="Layer_1-2" data-name="Layer 1">
    <g>
      <path class="cls-1" d="M12.46,84.71l-.14,1.22.77,3.85-.72,3.44-.05,4.94h10.06l-.05-4.94-.71-3.39.77-3.89-.14-1.21h3.6c2.25.07,2.91-24.23,2.97-26.1h2.22c2.02,0,3.67-1.44,3.67-3.21v-1.86s0-7.18,0-7.18h-4.74v-3.24h2.23v-13.22h-3.44V10.39s-1.1,0-1.1,0l-.17-3.68C27.33,3.31,24.5,0,21.16,0h-8.06v4.64h6.07c1.57,0,2.74.93,2.8,2.33l.16,3.43h-2.28s0-1.87,0-1.87c0-.6-.32-1.1-.7-1.1h-3.59c-.38,0-.7.5-.7,1.1v1.87s-8.91,0-8.91,0v3.92l11.41.84v1.35H5.95v2.7l11.41.84v1.35H5.95v2.7l11.41.84v1.35H5.95v3.6h-3.44c0,4.51,0,8.71,0,13.22h2.23v3.24H0v9.04c0,1.76,1.65,3.2,3.67,3.2h.76s1.46,0,1.46,0c.06,1.88.72,26.17,2.97,26.1h3.6Z"/>
      <path class="cls-1" d="M58.71,84.71l-.14,1.22.77,3.85-.72,3.44-.05,4.94h10.06l-.05-4.94-.71-3.39.77-3.89-.14-1.21h3.6c2.25.07,2.91-24.23,2.97-26.1h2.22c2.02,0,3.67-1.44,3.67-3.21v-1.86s0-7.18,0-7.18h-4.74v-3.24h2.23v-13.22h-3.44V10.39s-1.1,0-1.1,0l-.16-3.68c-.15-3.4-2.99-6.71-6.33-6.71h-8.06v4.64h6.07c1.57,0,2.74.93,2.8,2.33l.16,3.43h-2.28s0-1.87,0-1.87c0-.6-.32-1.1-.7-1.1h-3.58c-.38,0-.7.5-.7,1.1v1.87s-8.91,0-8.91,0v3.92l11.41.84v1.35h-11.41v2.7l11.41.84v1.35h-11.41v2.7l11.41.84v1.35h-11.41v3.6h-3.44c0,4.51,0,8.71,0,13.22h2.23v3.24h-4.74v9.04c0,1.76,1.65,3.2,3.67,3.2h2.21c.06,1.88.72,26.17,2.97,26.1h3.6ZM69.82,81h-12.44c-1.29-6.99-1.41-15.27-1.62-22.39h15.69c-.21,7.12-.33,15.41-1.62,22.39Z"/>
    </g>
  </g>
</svg>