<?xml version="1.0" encoding="UTF-8"?>
<svg id="Layer_2" data-name="Layer 2" xmlns="http://www.w3.org/2000/svg" viewBox="0 0 88.65 97.89">
  <defs>
    <style>
      .cls-1 {
        fill-rule: evenodd;
      }
    </style>
  </defs>
  <g id="Layer_1-2" data-name="Layer 1">
    <path class="cls-1" d="M60.98,16.8v1.76h2.17c.18,0,.35.06.48.16.94.47,1.14,2.57-.1,2.96l-2.56.8v1.5l1.95-.61c1.49-.47,2.11,2.53.61,3l-2.56.8v1.5l1.95-.61c1.49-.47,2.11,2.53.61,3l-2.56.8v5.18h2.26c.69,0,1.25.5,1.25,1.12s-.56,1.12-1.25,1.12h-15.49c-.69,0-1.25-.5-1.25-1.12s.56-1.12,1.25-1.12h2.26v-1.73l-1.83.58c-1.49.47-2.11-2.53-.61-3l2.44-.77v-1.5l-1.83.58c-1.49.47-2.11-2.53-.61-3l2.44-.77v-1.5l-1.83.58c-1.49.47-2.11-2.53-.61-3l2.44-.77v-1.33h-2.68c-1.19,0-1.19-2.84,0-2.84h2.68v-1.76h-1.36l-.58-4.22h-4.34v-3.12h.93v-4.32h3.12v4.32h2.91v-3.45h2.97V0h3.65v6.01h2.97v3.45h2.91v-4.32h3.12v4.32h.93v3.12h-4.34l-.58,4.22h-1.36ZM78.27,70.6c1.12.1,1.94,1.08,1.84,2.2-.1,1.11-1.08,1.94-2.2,1.84-1.11-.1-1.94-1.08-1.84-2.2.1-1.11,1.08-1.94,2.2-1.84h0ZM78.44,68.29c1.24.11,2.3.73,3.02,1.63.66.84,1.02,1.92.91,3.07-.11,1.2-.7,2.25-1.56,2.96-.85.7-1.96,1.07-3.14.97-1.09-.1-2.06-.59-2.76-1.33l-19.39,2.96-14.39-.75c-.22-.01-.38-.02-.6-.05-3.53-.57-6.2-7-6.04-14.85.17-8.23,3.37-14.89,7.15-14.89,1.28,0,2.47.77,3.47,2.1h6.38v-9.37h8v12.9c0,.82-.63,1.51-1.48,1.71h-.28v1.18h-4.85v-1.18h-8.82v1.5h3.65c.16.87.28,1.77.36,2.72h3.71c-.02-.52-.06-1.03-.1-1.54h6.19c.03.51.04,1.02.06,1.54h28.14c3.25.37,3.56,6.3,0,6.67h-38.98l-5.68,3.56c-2.64-.73-2.44-10.61-.55-12.42-3.56,2.34-4.1,12.82.16,14.83l6.71-4.6c-.47,2.7-1.27,5.05-2.3,6.81l4.79-.2c.58-2.03,1.02-4.25,1.29-6.61h6.13c-.2,1.91-.5,3.98-.91,6.11l17.48-3.13c.34-.65.85-1.19,1.45-1.59.79-.52,1.75-.78,2.75-.69h0ZM42.21,29.33c1.03,0,2.04.2,3.01.57.06.8.37,1.58.92,2.12-1.14,1.05-1.21,3.03-.34,4.29-.49.47-.81,1.11-.81,1.85,0,1.5,1.29,2.62,2.75,2.62h2.25v7.81h-.17c-1.82-5.21-4.7-8.54-8.01-8.54-5.8,0-10.71,10.22-10.97,22.83-.26,12.61,4.24,22.83,10.04,22.83,2.79,0,5.38-2.37,7.34-6.24l6.98.52c-2.11,6.96-5.59,13.42-10.94,15.81-4.96,2.21-15.63,2.07-15.63,2.07-2.42,0-5.34-.11-9.26-.38-22.87-1.54-25.87-52.35-7-65.4,6.51-4.5,14.84-4.31,22.61-4.15.99.03,1.96.1,2.89.2.3.03.59.07.89.12-4.77,1.53-8.35,6.04-10.63,10.37-3.8,7.21-5.45,16.13-5.63,24.22-.12,5.53.42,11.45,1.9,16.97,1.19,4.43,5.13,13.49,9.52,14.73.47.14-1.54-2.65-2.43-4.1-4.15-6.06-6.74-16.15-6.49-27.58.4-18.53,8.11-33.56,17.22-33.56h0Z"/>
  </g>
</svg>