<?xml version="1.0" encoding="UTF-8"?>
<svg id="Layer_2" data-name="Layer 2" xmlns="http://www.w3.org/2000/svg" viewBox="0 0 92.69 97.78">
  <defs>
    <style>
      .cls-1 {
        fill: none;
        stroke: #1e0e00;
      }

      .cls-1, .cls-2 {
        stroke-linejoin: round;
      }

      .cls-2 {
        fill: #fff;
        stroke: #4659a4;
      }
    </style>
  </defs>
  <g id="Layer_1-2" data-name="Layer 1">
    <g>
      <path class="cls-2" d="M92.19,32.79c0-4.36-7.32-8.04-18.55-10.46,0-1.07-10.68-13.8-14.53-13.8-6.62,0-2.77-8.03-12.76-8.03s-6.15,8.03-12.76,8.03c-3.86,0-14.53,12.72-14.53,13.8v.05C7.82,24.79.5,28.43.5,32.79c0,.09.02.17.02.25h-.02c0,3.46,4.58,6.78,12.08,9.33h0c2.29,5.57,2.74,17.11,2.29,24.01-.45,6.9,5.09,8.03,8.6,9.39,1.21.47,2.39,1.7,4.08,3.12-2.87,1.65-4.57,3.68-4.57,5.89,0,.05.02.1.02.15h-.02v2.43c0,5.48,10.46,9.91,23.37,9.91s23.37-4.44,23.37-9.91v-2.43h-.02c0-.05.02-.1.02-.15,0-2.2-1.7-4.24-4.57-5.89h0c1.69-1.42,2.87-2.65,4.08-3.12,3.51-1.36,9.05-2.49,8.6-9.39-.45-6.9,0-18.44,2.29-24h-.02c7.49-2.55,12.09-5.87,12.09-9.33h-.02c0-.08.02-.17.02-.25ZM52.15,9.87c.82-.18,2.34.33,5.88,2.96.41.3,4.02,2.13,7.47,4.24-.14-.02-7.44-1.36-10.86-1.64v-1.47c0-.55-1.72-1.03-4.27-1.29h0c-.06-1.32-.27-2.36,1.78-2.81ZM62.85,55.97l-.15.12c.07.05.13.11.2.16,1.27,1.05,2.66,2.8,2.1,5.14-.26,1.07-.96,2.26-2.14,3.46-1.1-.86-2.27-1.68-4.15-1.98v-4.71c1.6-.67,2.98-1.4,4.14-2.2ZM58.71,55.25v-1.27c.59.2,1,.36,1.4.55-.43.24-.89.48-1.4.72ZM62.55,52.81c-1.09-.53-3-1.4-3.84-1.68v-4.58h-.01c1.35-.12,2.68-.26,3.98-.42l-.27.04c1.2.97,1.88,2.03,1.97,3.08.09,1.07-.46,2.32-1.84,3.57ZM34.66,12.83c3.54-2.63,5.06-3.14,5.88-2.96,2.06.45,1.84,1.49,1.78,2.81h0c-2.55.25-4.27.73-4.27,1.29v1.47c-3.04.26-8.38,1.13-10.86,1.64,3.45-2.11,7.06-3.94,7.47-4.24ZM18.14,63.65c.9-3.86,1.81-9.49-.69-19.84h0c4.8,1.22,10.41,2.17,16.54,2.73h-.01v12.52c-3.08-.46-4.45-1.39-4.6-1.98-.12-.52.56-1.94,4.6-3.19v-2.83c-4.9,1.51-7.86,4.06-7.23,6.65.52,2.18,3.13,3.57,7.23,4.09v1.07h0c-4.26.68-4.88,4-9.27,4.53-4.75.57-7.46.11-6.56-3.75ZM75.23,43.82c-2.5,10.35-1.6,15.98-.69,19.84.9,3.86-1.81,4.31-6.56,3.75-1.19-.14-2.1-.49-2.88-.93h-.02c1.3-1.41,2.19-2.89,2.56-4.45.67-2.81-.31-5.52-2.78-7.67l-.11.09c1.69-1.65,2.51-3.48,2.34-5.44-.1-1.18-.56-2.29-1.32-3.3l-.32.04c3.53-.52,6.8-1.18,9.78-1.95v.02Z"/>
      <g>
        <path class="cls-1" d="M22.97,84.93v2.43c0,5.48,10.46,9.91,23.37,9.91s23.37-4.44,23.37-9.91v-2.43"/>
        <path class="cls-1" d="M65.15,78.89c2.87,1.65,4.57,3.68,4.57,5.89,0,5.48-10.46,9.91-23.37,9.91s-23.37-4.44-23.37-9.91c0-2.21,1.7-4.24,4.57-5.89"/>
        <line class="cls-1" x1="58.71" y1="46.55" x2="58.71" y2="55.25"/>
        <g>
          <path class="cls-1" d="M92.19,33.04c0,7.33-20.52,14.05-45.84,14.05S.5,40.37.5,33.04"/>
          <path class="cls-1" d="M73.64,22.33c0-1.07-10.68-13.8-14.53-13.8-6.62,0-2.77-8.03-12.76-8.03s-6.15,8.03-12.76,8.03c-3.86,0-14.53,12.72-14.53,13.8"/>
          <path class="cls-1" d="M73.64,22.33c11.23,2.42,18.55,6.1,18.55,10.46,0,7.33-20.52,13.27-45.84,13.27S.5,40.12.5,32.79c0-4.36,7.32-8,18.55-10.42"/>
          <path class="cls-1" d="M73.64,22.33v6.97c0,4.9-12.22,8.88-27.29,8.88s-27.29-3.97-27.29-8.88v-6.97"/>
          <path class="cls-1" d="M73.64,22.33c0,4-12.22,7.24-27.29,7.24s-27.29-3.24-27.29-7.24"/>
          <path class="cls-1" d="M46.34,28.71c11.4,0,21.16-2.08,25.25-5.02,3.06-2.52-12.69-10.2-13.56-10.85-3.54-2.63-5.06-3.14-5.88-2.96-2.26.49-1.77,1.7-1.77,3.2,0,1.22.68,1.79-4.03,1.79s-4.03-.57-4.03-1.79c0-1.51.49-2.71-1.77-3.2-.82-.18-2.34.33-5.88,2.96-.88.65-16.63,8.34-13.56,10.85,4.09,2.95,13.85,5.02,25.25,5.02Z"/>
          <path class="cls-1" d="M27.18,17.07c2.47-.5,7.83-1.38,10.87-1.64"/>
          <path class="cls-1" d="M65.51,17.07c-2.47-.5-7.83-1.38-10.87-1.64"/>
          <path class="cls-1" d="M54.64,15.99c6.24.89,10.53,2.75,10.53,4.9,0,3.01-8.43,5.46-18.83,5.46s-18.83-2.44-18.83-5.46c0-2.15,4.29-4.01,10.54-4.9"/>
          <path class="cls-1" d="M50.37,12.67c2.55.25,4.27.73,4.27,1.28,0,.81-3.71,1.47-8.29,1.47s-8.29-.66-8.29-1.47c0-.55,1.72-1.03,4.27-1.29"/>
          <path class="cls-1" d="M46.34,15.43c-4.58,0-8.29-.66-8.29-1.47v7.93c0,.81,3.71,1.47,8.29,1.47s8.29-.66,8.29-1.47v-7.93c0,.81-3.71,1.47-8.29,1.47Z"/>
        </g>
        <path class="cls-1" d="M65.06,78.97c2.74,1.36,4.13,3.07,4.13,5.09,0,1.73-.82,3.45-2.36,4.96-3.64,3.58-10.73,5.68-19.08,5.68-.28,0-.56,0-.84,0-11.98-.2-19.72-3.94-19.72-9.52,0-1.9.93-3.4,2.76-4.47"/>
        <path class="cls-1" d="M31.78,81.81c-2.63,1.04-2.8,2.39-2.8,3.36,0,4.43,7.21,7.53,17.94,7.71,9.7.16,15.99-2.55,18.63-5.15,1.19-1.17,1.82-2.44,1.82-3.67,0-1.78-2.11-3.06-3.92-3.84"/>
        <path class="cls-1" d="M61.62,81.41c1.55.91,2.64,2.07,2.74,3.45.1,1.47-.59,2.71-1.58,3.77-2.35,2.52-7.88,3.79-16.43,3.79-4.76,0-14.1-2.06-14.1-6.83,0-.88.34-1.97,1.71-2.78"/>
        <path class="cls-1" d="M36.44,83.68c-2.01.54-1.94,1.61-1.94,1.92,0,3.11,7.5,5.02,11.84,5.02,10.01,0,13.74-1.75,15.11-3.22.84-.9.88-1.81.84-2.41-.07-.99-1-1.85-2.68-2.54"/>
        <path class="cls-1" d="M57.77,83.19c1.21.39,1.84,1.5,1.84,2.22,0,1.01-.37,1.88-1.11,2.58-1.78,1.71-5.35,2.13-9.09,2.13-1.03,0-2.07-.03-3.1-.08-.37-.02-.67-.03-.89-.03-1.62-.03-6.54-.11-6.54-3.69,0-.48.29-1.23,1.1-1.86"/>
        <path class="cls-1" d="M42.27,84.75v.38c-.37.12-1.58.55-1.58,1.2,0,1.23,1.51,1.83,4.77,1.89.23,0,.55.02.94.03,2.42.11,8.83.39,10.86-1.55.38-.36.56-.77.56-1.28,0-.4-.67-1.47-2.03-1.6"/>
        <path class="cls-1" d="M50.41,84.75c0,.15,0,.3,0,.46,0,1.19-1.82,2.15-4.07,2.15s-4.07-.96-4.07-2.15c0-.16,0-.32.01-.46"/>
        <line class="cls-1" x1="33.97" y1="74.98" x2="33.97" y2="75.89"/>
        <line class="cls-1" x1="33.97" y1="59.07" x2="33.97" y2="46.55"/>
        <line class="cls-1" x1="33.97" y1="72.2" x2="33.97" y2="61.81"/>
        <line class="cls-1" x1="58.71" y1="58.18" x2="58.71" y2="67.92"/>
        <path class="cls-1" d="M65.77,45.7c.76,1.01,1.21,2.12,1.32,3.3.47,5.4-6.55,9.91-18.78,12.04-3.85.67-7.33,1-10.32,1-6.42,0-10.57-1.5-11.25-4.32-.62-2.59,2.33-5.14,7.23-6.65v2.83c-4.03,1.24-4.72,2.67-4.6,3.19.28,1.16,5.17,3.61,18.46,1.28,12.6-2.2,16.79-6.3,16.54-9.13-.09-1.05-.77-2.11-1.97-3.08"/>
        <path class="cls-1" d="M60.11,54.53c-.4-.19-.81-.36-1.4-.55v-2.85c.84.28,2.76,1.16,3.85,1.69"/>
        <path class="cls-1" d="M64.86,54.35c2.47,2.15,3.45,4.87,2.78,7.67-1.28,5.32-8.31,9.91-18.81,12.28-3.71.84-6.95,1.2-9.69,1.2-6.86,0-10.7-2.26-11.48-5.05-.6-2.14,1.02-5.39,6.32-7.16v2.85c-2.79.93-4.06,2.32-3.71,3.58.63,2.27,6.78,4.45,17.96,1.93,11.15-2.51,15.98-6.95,16.77-10.26.56-2.35-.83-4.09-2.1-5.14-.06-.05-.13-.11-.2-.16"/>
        <path class="cls-1" d="M64.71,66.95c.68.83,1.05,1.73,1.05,2.65,0,4.51-8.69,8.16-19.42,8.16s-19.42-3.66-19.42-8.16c0-2.03,1.76-3.88,4.67-5.31"/>
        <g>
          <path class="cls-1" d="M17.45,43.82c2.5,10.35,1.6,15.98.69,19.84-.9,3.86,1.81,4.31,6.56,3.75,4.39-.52,5.01-3.84,9.27-4.53"/>
          <g>
            <path class="cls-1" d="M80.11,42.38c-2.29,5.57-2.74,17.11-2.29,24,.45,6.9-5.09,8.03-8.6,9.39-3.51,1.36-6.75,9.16-22.88,9.16s-19.38-7.8-22.88-9.16c-3.51-1.36-9.05-2.49-8.6-9.39s0-18.44-2.29-24"/>
            <path class="cls-1" d="M62.88,64.86c-1.1-.87-2.28-1.69-4.17-1.99"/>
            <path class="cls-1" d="M75.23,43.82c-2.5,10.35-1.6,15.98-.69,19.84.9,3.86-1.81,4.31-6.56,3.75-1.19-.14-2.1-.49-2.88-.93"/>
          </g>
        </g>
        <line class="cls-1" x1="58.71" y1="71.03" x2="58.71" y2="75.89"/>
        <path class="cls-1" d="M63.31,67.92c1.17.72,1.96,1.51,2.28,2.36"/>
        <path class="cls-1" d="M58.71,66.03c.74.21,1.44.44,2.08.68"/>
      </g>
    </g>
  </g>
</svg>