<?xml version="1.0" encoding="UTF-8"?>
<svg id="Layer_2" data-name="Layer 2" xmlns="http://www.w3.org/2000/svg" viewBox="0 0 97.97 89.1">
  <g id="Layer_1-2" data-name="Layer 1">
    <g>
      <g>
        <g>
          <g>
            <g>
              <path d="M34.3,3.55c.26.28.22.73-.09.95h0l-2.73,1.98c-1.55-1.68-3.1-3.34-4.66-5-.34-.36-.17-.96.32-1.08.52-.13,1.1-.26,1.69-.36.76-.13,1.54.04,2.17.49.72.52,1.82,1.43,3.31,3.02Z"/>
              <path d="M95.54,80.35c-.21-.32-.66-.38-.95-.13h0l-2.54,2.22c1.29,1.88,2.57,3.77,3.84,5.66.28.41.9.38,1.13-.07.24-.47.5-1.02.73-1.56.3-.71.3-1.51,0-2.22-.34-.82-.99-2.09-2.21-3.9Z"/>
            </g>
            <path d="M63.13,43.38c10.11,12.68,19.76,25.72,28.92,39.07l2.54-2.22c-9.13-13.31-18.76-26.31-28.83-38.95-10.08-12.64-20.61-24.91-31.55-36.78l-2.73,1.98c10.98,11.9,21.55,24.21,31.66,36.89Z"/>
          </g>
          <path d="M92.75,87.64C72.94,58.33,50.74,30.49,26.57,4.65c-.12-.13-.09-.33.06-.42l1.21-.69c.91.97,1.81,1.94,2.71,2.91l.44.48c10.91,11.83,21.56,24.23,31.63,36.86,10.07,12.63,19.8,25.77,28.89,39.04l.37.54c.74,1.09,1.49,2.18,2.23,3.28l-.94,1.02c-.12.13-.33.11-.43-.03Z"/>
        </g>
        <path d="M71.67,49.58l-12.68-15.9s.32-.18.92-.32c.8-.18,1.65-.05,2.35.38,1.4.84,4.22,2.81,7.96,6.75.66.7.92,1.68.7,2.62-.1.42-.14.89-.02,1.31.2.69.78,1.67,1.2,2.33.35.55.42,1.23.19,1.83-.13.35-.33.71-.62,1.01Z"/>
      </g>
      <g>
        <g>
          <g>
            <g>
              <path d="M7.9,11.88c.29.25.3.7.02.96h0l-2.49,2.28c-1.73-1.49-3.46-2.97-5.2-4.44-.38-.32-.28-.94.19-1.11.5-.19,1.07-.38,1.63-.55.74-.22,1.54-.14,2.21.24.78.43,1.97,1.22,3.63,2.62Z"/>
              <path d="M77.5,81.21c-.25-.29-.7-.3-.96-.02h0l-2.27,2.5c1.5,1.72,2.98,3.45,4.46,5.19.32.38.94.27,1.11-.2.18-.5.38-1.07.54-1.64.21-.74.13-1.54-.25-2.21-.43-.77-1.22-1.96-2.64-3.62Z"/>
            </g>
            <path d="M41.09,48.16c11.49,11.44,22.56,23.3,33.18,35.52l2.27-2.5c-10.59-12.19-21.63-24-33.08-35.41C32.01,34.37,20.15,23.38,7.92,12.84l-2.49,2.28c12.27,10.57,24.16,21.6,35.65,33.05Z"/>
          </g>
          <path d="M75.55,88.76C52.53,61.9,27.31,36.77.35,13.85c-.13-.11-.13-.32.02-.43l1.12-.82c1.01.86,2.02,1.72,3.02,2.58l.5.43c12.19,10.51,24.17,21.61,35.62,33.02,11.45,11.4,22.6,23.34,33.15,35.49l.43.49c.86.99,1.73,2,2.59,3.01l-.82,1.12c-.1.14-.31.15-.43.02Z"/>
        </g>
        <path d="M50.28,53.35l-14.41-14.36s.29-.21.88-.42c.78-.27,1.63-.24,2.38.11,1.49.68,4.52,2.31,8.68,5.8.74.62,1.11,1.57,1,2.52-.05.43-.04.9.13,1.3.28.67.96,1.58,1.45,2.18.41.5.56,1.17.4,1.8-.09.36-.25.75-.5,1.08Z"/>
      </g>
    </g>
  </g>
</svg>