<?xml version="1.0" encoding="UTF-8"?>
<svg id="Layer_2" data-name="Layer 2" xmlns="http://www.w3.org/2000/svg" viewBox="0 0 895.19 277.04">
  <defs>
    <style>
      .cls-1 {
        fill: #e21e26;
      }
    </style>
  </defs>
  <g id="Layer_1-2" data-name="Layer 1">
    <g>
      <g>
        <g>
          <path d="m399.51,0v12.77h-17.56v54.27h-12.77V12.77h-17.56V0h47.88Z"/>
          <path d="m476.33,0v67.04h-12.77v-27.13h-28.73v27.13h-12.77V0h12.77v27.13h28.73V0h12.77Z"/>
          <path d="m514.83,12.77v14.36h23.94v12.77h-23.94v14.36h28.73v12.77h-41.5V0h41.5v12.77h-28.73Z"/>
        </g>
        <g>
          <path d="m3.14,183.37v-95.52h35.63c23.73,0,37.9,12.09,37.9,32.33,0,15.67-11.69,32.33-33.35,32.33h-18.96v30.86H3.14Zm37.9-51.43c8.21,0,14.41-5.06,14.41-11.76,0-8.68-7.76-11.76-14.41-11.76h-16.68v23.52h16.68Z"/>
          <path d="m75.16,120.18c0,15.71-11.66,30.86-31.84,30.86h-20.47v30.86H4.65v-92.59h34.11c24.88,0,36.39,12.95,36.39,30.86Zm-18.19,0c0-8.68-7.11-13.23-15.92-13.23h-18.19v26.45h18.19c8.81,0,15.92-5.51,15.92-13.23Z"/>
          <polygon points="96.39 183.37 96.39 87.85 158.55 87.85 158.55 108.42 117.61 108.42 117.61 125.32 151.73 125.32 151.73 145.89 117.61 145.89 117.61 162.8 158.55 162.8 158.55 183.37 96.39 183.37"/>
          <path d="m116.1,106.95v19.84h34.11v17.64h-34.11v19.84h40.94v17.64h-59.13v-92.59h59.13v17.64h-40.94Z"/>
          <path d="m234.13,183.37l-21.46-30.86h-8.63v30.86h-21.22v-95.52h35.63c23.73,0,37.9,12.09,37.9,32.33,0,13.73-8.34,25.63-20.97,30.23l24.7,32.96h-25.95Zm-13.41-51.43c8.21,0,14.41-5.06,14.41-11.76,0-8.68-7.76-11.76-14.41-11.76h-16.68v23.52h16.68Z"/>
          <path d="m234.94,181.9l-21.46-30.86h-10.95v30.86h-18.19v-92.59h34.11c24.88,0,36.39,12.95,36.39,30.86,0,12.95-7.82,25.35-21.89,29.49l24.16,32.24h-22.17Zm-32.41-48.5h18.19c8.81,0,15.92-5.51,15.92-13.23,0-8.68-7.11-13.23-15.92-13.23h-18.19v26.45Z"/>
          <polygon points="279.49 183.37 279.49 87.85 341.64 87.85 341.64 108.42 300.71 108.42 300.71 125.32 334.82 125.32 334.82 145.89 300.71 145.89 300.71 183.37 279.49 183.37"/>
          <path d="m281,181.9v-92.59h59.13v17.64h-40.94v19.84h34.11v17.64h-34.11v37.48h-18.19Z"/>
          <polygon points="363.64 183.37 363.64 87.85 425.79 87.85 425.79 108.42 384.86 108.42 384.86 125.32 418.97 125.32 418.97 145.89 384.86 145.89 384.86 162.8 425.79 162.8 425.79 183.37 363.64 183.37"/>
          <path d="m383.34,106.95v19.84h34.11v17.64h-34.11v19.84h40.94v17.64h-59.13v-92.59h59.13v17.64h-40.94Z"/>
          <path d="m496.78,185.57c-28.89,0-52.4-22.41-52.4-49.96s23.51-49.96,52.4-49.96c11.79,0,24.05,4.37,32.01,11.41l.79.7-8.25,18.92-1.59-1.5c-6.1-5.77-14.15-8.95-22.68-8.95-17.35,0-31.47,13.19-31.47,29.4s14.12,29.4,31.47,29.4c8.72,0,16.77-3.22,22.66-9.06l1.59-1.58,8.27,18.97-.79.7c-8.05,7.12-20.32,11.54-32.01,11.54Z"/>
          <path d="m520.8,156.96l6.96,15.98c-8.1,7.16-20.33,11.16-30.99,11.16-28,0-50.89-21.77-50.89-48.5s22.88-48.5,50.89-48.5c10.66,0,22.88,3.86,30.99,11.02l-6.96,15.98c-6.11-5.79-14.5-9.37-23.74-9.37-18.19,0-32.98,13.78-32.98,30.86s14.78,30.86,32.98,30.86c9.38,0,17.77-3.58,23.74-9.51Z"/>
          <polygon points="570.61 183.37 570.61 108.42 545.59 108.42 545.59 87.85 616.85 87.85 616.85 108.42 591.83 108.42 591.83 183.37 570.61 183.37"/>
          <path d="m615.33,89.31v17.64h-25.02v74.95h-18.19v-74.95h-25.02v-17.64h68.23Z"/>
          <rect x="638.84" y="87.85" width="21.22" height="95.52"/>
          <path d="m640.36,181.9v-92.59h18.19v92.59h-18.19Z"/>
          <path d="m732.47,185.57c-28.42,0-51.55-22.41-51.55-49.96s23.12-49.96,51.55-49.96,51.55,22.41,51.55,49.96-23.12,49.96-51.55,49.96Zm0-79.36c-16.72,0-30.33,13.19-30.33,29.4s13.6,29.4,30.33,29.4,30.33-13.19,30.33-29.4-13.6-29.4-30.33-29.4Z"/>
          <path d="m782.5,135.61c0,26.73-22.46,48.5-50.03,48.5s-50.03-21.77-50.03-48.5,22.46-48.5,50.03-48.5,50.03,21.77,50.03,48.5Zm-18.19,0c0-17.08-14.22-30.86-31.84-30.86s-31.84,13.78-31.84,30.86,14.22,30.86,31.84,30.86,31.84-13.78,31.84-30.86Z"/>
          <polygon points="871.57 183.37 826.1 122.5 826.1 183.37 804.88 183.37 804.88 87.85 825.36 87.85 870.83 148.72 870.83 87.85 892.05 87.85 892.05 183.37 871.57 183.37"/>
          <path d="m890.54,89.31v92.59h-18.19l-47.76-63.93v63.93h-18.19v-92.59h18.19l47.76,63.93v-63.93h18.19Z"/>
        </g>
        <g>
          <path d="m283.58,247.31c-1.04,0-1.97-.93-1.97-1.97v-10.92c0-1.04.93-1.98,1.97-1.98h28.57c1.04,0,1.97.93,1.97,1.98v28.45c0,1.28-.46,2.44-1.39,3.37-7.43,6.73-16.49,10.57-28.45,10.57-31.01,0-40.41-24.39-40.41-41.8s9.4-41.69,40.41-41.69c12.31,0,21.25,4.41,28.69,11.84.81.81.81,2.09,0,2.9l-7.43,8.01c-.7.7-1.86.7-2.67,0-4.76-4.07-12.31-7.43-18.58-7.43-20.78,0-23.69,19.51-23.69,26.13s2.9,27.06,23.69,27.06c4.53,0,10.45-1.62,13.36-4.18v-10.34h-14.05Z"/>
          <path d="m349.18,273.78c0,1.05-.93,1.98-1.97,1.98h-12.31c-1.05,0-1.98-.93-1.98-1.98v-77.34c0-1.04.93-1.98,1.98-1.98h28.8c22.3,0,29.03,15.56,29.03,26.36,0,11.73-6.85,20.21-16.03,24.15l13.7,29.03c.35.81-.23,1.74-1.16,1.74h-13.93c-1.16,0-2.32-.7-2.79-1.74l-12.43-26.48h-10.92v26.24Zm27.06-52.95c0-3.95-2.09-11.38-11.96-11.38h-15.1v22.88h15.56c9.41-.23,11.5-7.9,11.5-11.5Z"/>
          <path d="m487.25,235c0,17.42-9.41,42.04-40.18,42.04s-40.41-24.62-40.41-42.04,9.41-41.92,40.41-41.92,40.18,24.96,40.18,41.92Zm-16.73,0c0-6.62-3.02-26.59-23.46-26.59s-23.69,19.97-23.69,26.59,2.9,26.82,23.69,26.82,23.46-20.2,23.46-26.82Z"/>
          <path d="m552.63,244.17v-47.73c0-1.04.93-1.98,1.98-1.98h12.66c1.04,0,1.97.93,1.97,1.98v47.73c0,13.7-8.36,32.4-32.28,32.4s-32.28-18.7-32.28-32.4v-47.73c0-1.04.93-1.98,1.97-1.98h12.54c1.04,0,1.98.93,1.98,1.98v47.73c0,4.76,3.25,17.42,15.79,17.42s15.68-12.66,15.68-17.42Z"/>
          <path d="m607.78,273.78c0,1.05-.93,1.98-1.97,1.98h-12.54c-1.04,0-1.98-.93-1.98-1.98v-77.34c0-1.04.93-1.98,1.98-1.98h29.03c22.3,0,29.03,15.56,29.03,26.36,0,16.03-14.05,26.71-27.52,26.71h-16.03v26.24Zm27.06-52.95c0-3.95-2.09-11.38-11.96-11.38h-15.1v22.88h15.56c9.41-.23,11.5-7.9,11.5-11.5Z"/>
        </g>
      </g>
      <g>
        <path class="cls-1" d="m887.75,224.09h-192.86c-13.24,0-23.97,10.73-23.97,23.97h0c0,4.11,3.33,7.44,7.44,7.44h192.86c13.24,0,23.97-10.73,23.97-23.97h0c0-4.11-3.33-7.44-7.44-7.44Z"/>
        <path class="cls-1" d="m216.83,224.09H23.97c-13.24,0-23.97,10.73-23.97,23.97h0c0,4.11,3.33,7.44,7.44,7.44h192.86c13.24,0,23.97-10.73,23.97-23.97h0c0-4.11-3.33-7.44-7.44-7.44Z"/>
      </g>
    </g>
  </g>
</svg>