<?xml version="1.0" encoding="UTF-8"?>
<svg id="Layer_2" xmlns="http://www.w3.org/2000/svg" version="1.1" viewBox="0 0 36 20.5">
  <!-- Generator: Adobe Illustrator 29.8.2, SVG Export Plug-In . SVG Version: 2.1.1 Build 3)  -->
  <defs>
    <style>
      .st0 {
        fill: #231f20;
      }
    </style>
  </defs>
  <g id="Layer_1-2">
    <path class="st0" d="M7.9,19.2c-.3.2-.6.7-.9.9-.4.3-.7.4-1.2.4h-2.7c-.5,0-.7-.2-1.2-.4-.8-.4-1.6-.9-1.8-1.8C0,18.2,0,17.8,0,17.1,0,13.2,0,8.5,0,2.9,0,2.5,0,2.2.1,2c.2-.5.4-.8.9-1,.4-.3.8-.5,1.2-.7.3-.2.7-.3,1-.3h2.4c.4,0,.7,0,.9,0,.5.2.8.5,1.2,1,.4.4.8.4,1.4.4h25.1c.2,0,.4,0,.5,0,.2.1.5.2.6.3.3.2.5.5.6.9,0,.2,0,.5,0,.9v13.2c0,.5,0,.9-.1,1-.1.3-.3.6-.7.8-.5.4-.9.4-1.6.4H8.9c-.3,0-.8,0-1,.2M.8,1.7c-.2.2-.3.5-.3.8v14.7c0,1,0,1.5.7,2,.5.3.9.6,1.3.8.1,0,.3.1.5.1s1.2,0,2.8,0c.4,0,.8,0,1.1-.4.4-.4.6-.8,1-1,.2,0,.4-.1.7-.1h25.4c.7,0,1.2-.3,1.4-.8,0-.2.1-.4.1-.6V3.5c0-.3,0-.5,0-.6-.2-.5-.6-.8-1.1-1,0,0,0,0,0,0H8.6c-.5,0-.9-.2-1.2-.6-.4-.5-.7-.9-1.4-.9-.4,0-1.3,0-2.5,0s-.8,0-1.2.3c-.3.2-.6.4-.9.6-.2.1-.4.3-.5.4h0Z"/>
    <path class="st0" d="M34.8,4.4c.2.3.1.6.1,1v10.1c0,.3,0,.4,0,.5,0,.2-.2.3-.4.3-.5.1-.8.2-1,.7,0,.3-.1.7-.5.9,0,0-.2,0-.5,0h-10.6c-.2,0-.3,0-.5-.2s-.2-.4-.3-.6c-.4-.5-1.1-.5-1.5,0-.2.3-.2.8-.8.8h-6.3c-.3,0-.5,0-.6-.2-.1-.1-.2-.4-.2-.5-.3-.6-1.1-.6-1.4-.1-.2.2-.2.6-.5.8,0,0-.2,0-.4,0-.2,0-.6,0-.9,0-.8,0-1.4.5-1.9,1.2,0,.1-.2.2-.3.3,0,0,0,0,0,0h-2.9c-.4,0-.7-.5-.7-.8,0-.2,0-.7,0-.9,0-.2-.4-.6-.7-.6-.2,0-.5-.2-.6-.4,0,0,0-.2,0-.4V4c0-.5.4-.7.8-.7,0,0,.1,0,.2-.1.5-.4.4-.9.4-1.5s0,0,0-.1c.1-.4.4-.6.8-.6h2.8c0,0,.2,0,.3.1.2.2.4.5.6.7.5.4,1,.7,1.7.7h.8c.7,0,.4.7.9,1,.3.2.7.3,1.1.1.3-.2.4-.5.5-.8,0-.3.3-.3.6-.3.9,0,2.8,0,5.8,0,.2,0,.4,0,.7,0,.4,0,.4.3.5.6,0,.1.1.2.2.3.5.5,1.2.4,1.5-.2,0,0,0-.1.1-.3,0-.3.3-.4.6-.4h10.5c.3,0,.5,0,.7.2.2.2.2.6.3.8.2.5.7.6,1.2.7,0,0,.2,0,.2.2M34.5,7.3v-2.5c0,0,0-.2-.2-.2-.8-.1-1.3-.6-1.5-1.5,0,0,0,0,0,0,0,0-.2-.1-.3-.1h-10.7s0,0,0,0c-.3,1.3-2,1.7-2.7.4,0,0,0-.2-.2-.4,0,0,0,0,0,0h-6.4s0,0,0,0c-.1.7-.8,1.2-1.5,1.2-.5,0-.9-.3-1.1-.7,0-.1-.1-.3-.2-.4,0,0,0,0-.1,0h-1.1c-.7,0-1.4-.4-1.8-.9,0,0-.2-.2-.4-.5,0,0,0,0,0,0,0,0-.2,0-.2,0-.3,0-1.1,0-2.5,0-.2,0-.4,0-.4.3,0,.4,0,.7,0,1-.2.5-.6.8-1.1,1-.1,0-.2.1-.2.2v12.5c0,0,0,.1.1.1.5.1.9.4,1.1.8.2.4.2.9.2,1.3,0,.2,0,.3.2.3h2.7c0,0,.1,0,.2,0,.6-.8,1.3-1.4,2.3-1.4.6,0,1,0,1.1,0s0,0,.1,0c.2-.6.6-1.1,1.3-1.1.5,0,.8.2,1.1.5.1.2.2.5.3.6,0,0,0,0,.1,0h6.5s0,0,.1,0c.2-1.1,1.5-1.5,2.3-.8.2.2.3.5.4.8,0,0,0,0,0,0h10.9s0,0,0,0c0-.2,0-.4.2-.6.2-.6.8-.9,1.4-1,0,0,.1,0,.1-.2v-2.6s0,0,0,0H8.8c-.5,0-.8,0-.8,0-.3,0-.5-.3-.7-.5,0-.1-.1-.5-.1-1,0-1.9,0-3,0-3.2,0-.5.4-.8.8-.9,0,0,.3,0,.7,0h25.7s0,0,0,0M34.5,12.6v-4.7s0,0,0,0H8.3c-.4,0-.7.2-.7.5v3.8c0,.3.3.5.7.5h26.1s0,0,0,0h0Z"/>
    <path class="st0" d="M2.2,2.4c0,.4-.3.7-.7.7s-.7-.3-.7-.7.3-.7.7-.7.7.3.7.7M1.7,2.4c0-.1-.1-.2-.2-.2s-.2,0-.2.2.1.2.2.2.2,0,.2-.2h0Z"/>
    <path class="st0" d="M11.7,2.8c0,.4-.3.7-.7.7s-.7-.3-.7-.7.3-.7.7-.7.7.3.7.7M11.2,2.8c0-.1-.1-.2-.2-.2s-.2,0-.2.2.1.2.2.2.2,0,.2-.2h0Z"/>
    <path class="st0" d="M21.1,2.8c0,.4-.3.7-.7.7s-.7-.3-.7-.7.3-.7.7-.7.7.3.7.7M20.6,2.8c0-.1-.1-.2-.2-.2s-.2,0-.2.2.1.2.2.2.2,0,.2-.2h0Z"/>
    <path class="st0" d="M33.7,2.9c.1-.3.5-.5.9-.4.4.2.5.5.4.9s-.5.5-.9.4c-.4-.2-.5-.5-.4-.9M34.2,3.1c0,.1,0,.2.2.3.1,0,.3,0,.3-.1,0-.1,0-.2-.2-.3-.1,0-.3,0-.3.1h0Z"/>
    <path class="st0" d="M6.4,17.5c0,.1,0,.2-.2.2h0c-.1,0-.2,0-.2-.2V3.2c0-.1,0-.2.2-.2h0c.1,0,.2,0,.2.2v14.3h0Z"/>
    <path class="st0" d="M14.2,10.3c0,.8-.6,1.4-1.4,1.4s-1.4-.6-1.4-1.4.6-1.4,1.4-1.4,1.4.6,1.4,1.4M13.8,10.2c0-.5-.4-1-1-1s-1,.4-1,1,.4,1,1,1,1-.4,1-1h0Z"/>
    <path class="st0" d="M19.9,9.1c.6-.5,1.5-.4,2,.3s.4,1.5-.2,2c-.6.5-1.5.4-2-.3s-.4-1.5.2-2M21.7,10.2c0-.5-.4-1-1-1s-1,.4-1,1,.4,1,1,1,1-.4,1-1h0Z"/>
    <path class="st0" d="M30.1,10.3c0,.8-.6,1.4-1.4,1.4s-1.4-.6-1.4-1.4.6-1.4,1.4-1.4,1.4.6,1.4,1.4M29.7,10.2c0-.5-.4-1-1-1s-1,.4-1,1,.4,1,1,1,1-.4,1-1h0Z"/>
    <path class="st0" d="M35,17.4c0,.4-.3.7-.7.7s-.7-.3-.7-.7.3-.7.7-.7.7.3.7.7M34.4,17.2c-.1,0-.2,0-.2.2s0,.2.2.3.2,0,.2-.2,0-.2-.2-.3h0Z"/>
    <path class="st0" d="M10.8,17.1c.3-.1.7,0,.9.4.1.3,0,.7-.3.9s-.7,0-.9-.4c-.1-.3,0-.7.3-.9M11.2,17.8c0-.1,0-.2-.2-.2s-.2,0-.2.2,0,.2.2.2.2,0,.2-.2h0Z"/>
    <path class="st0" d="M21.1,17.7c0,.4-.3.7-.7.7s-.7-.3-.7-.7.3-.7.7-.7.7.3.7.7M20.5,17.5c-.1,0-.2,0-.2.2,0,.1,0,.2.1.3.1,0,.2,0,.2-.2,0-.1,0-.2-.1-.3h0Z"/>
    <path class="st0" d="M.9,17.9c.1-.3.6-.5.9-.3s.5.6.3.9c-.1.3-.6.5-.9.3-.4-.2-.5-.6-.4-.9M1.7,18.2c0-.1-.1-.2-.2-.2s-.2.1-.2.2.1.2.2.2.2-.1.2-.2h0Z"/>
  </g>
</svg>