<?xml version="1.0" encoding="UTF-8"?>
<svg id="Layer_1" xmlns="http://www.w3.org/2000/svg" version="1.1" viewBox="0 0 2400 492">
  <!-- Generator: Adobe Illustrator 30.2.1, SVG Export Plug-In . SVG Version: 2.1.1 Build 1)  -->
  <defs>
    <style>
      .st0 {
        font-size: 39.13px;
      }

      .st0, .st1, .st2 {
        fill: #fff;
      }

      .st0, .st2 {
        font-family: MMC-Regular, MMC;
      }

      .st2 {
        font-size: 14px;
      }
    </style>
  </defs>
  <text class="st0" transform="translate(51.27 379.75)"><tspan x="0" y="0">April 1–May 31, 2026</tspan></text>
  <text class="st2" transform="translate(50.16 472)"><tspan x="0" y="0">*Go to www.mitsubishitireprogram.com for complete details.</tspan></text>
  <g>
    <path class="st1" d="M114.71,113.82c0,18.83-10.63,23.7-29.85,23.7h-34.33V50.4h32.03c20.11,0,29.98,4.87,29.98,21.78,0,12.68-5.25,17.55-12.68,19.6,7.81,1.92,14.86,6.92,14.86,22.04ZM61.03,59.75v27.93h25.24c9.86,0,15.63-2.82,15.63-14.73,0-9.86-5-13.2-20.5-13.2h-20.37ZM103.95,113.05c0-12.04-4.74-16.27-17.42-16.27h-25.49v31.39h22.55c14.35,0,20.37-2.18,20.37-15.12Z"/>
    <path class="st1" d="M128.19,118.43v-48.81h10.25v46.76c0,9.61,3.97,12.94,15.63,12.94,9.61,0,15.76-2.18,20.11-3.97v-55.73h10.25v67.9h-8.2l-1.41-4.74c-3.84,2.31-11.91,6.02-22.93,6.02-18.32,0-23.7-7.05-23.7-20.37Z"/>
    <path class="st1" d="M258.21,69.62l-22.16,57.39c-5.51,14.09-13.96,26.9-31.77,37.41l-4.87-7.81c10.89-7.56,17.94-14.35,21.78-21.01l-26.14-65.98h10.76l21.01,56.37,20.24-56.37h11.15Z"/>
    <path class="st1" d="M360.45,111.64c0,18.96-10.63,27.16-32.67,27.16-11.02,0-20.63-1.67-26.39-3.46v-10.25c5.25,1.67,14.99,4.1,26.52,4.1,15.12,0,22.04-5.25,22.04-17.68s-5.64-16.53-18.06-16.53c-6.66,0-8.71.13-12.43.51l-3.2-7.94,27.03-27.8h-40.74v-9.35h52.01l2.95,8.33-27.67,28.19c1.79-.13,3.59-.26,5.25-.26,17.42,0,25.37,8.07,25.37,24.98Z"/>
    <path class="st1" d="M417.07,121.12v-42.53h-13.58v-8.97h13.58v-16.01l10.12-3.07v19.09h22.42v8.97h-22.42v41.89c0,6.79,3.97,8.84,10.5,8.84,5,0,9.35-1.15,12.3-2.18v9.35c-3.84,1.54-7.69,2.31-13.96,2.31-12.43,0-18.96-4.61-18.96-17.68Z"/>
    <path class="st1" d="M460.65,46.3h12.04v11.02h-12.04v-11.02ZM461.54,69.62h10.25v67.9h-10.25v-67.9Z"/>
    <path class="st1" d="M488.43,69.62h9.86v7.43c4.87-3.2,14.09-7.43,25.88-8.71v9.86c-9.74,1.02-19.35,3.46-25.49,6.53v52.78h-10.25v-67.9Z"/>
    <path class="st1" d="M530.91,103.57c0-23.57,8.2-35.23,29.85-35.23,20.24,0,28.31,9.22,28.31,32.54,0,2.05-.26,4.74-.38,6.41h-47.53c.38,17.17,6.02,22.29,22.16,22.29,9.99,0,16.53-1.67,21.78-3.72v9.48c-4.61,1.79-12.17,3.46-22.68,3.46-22.29,0-31.52-8.33-31.52-35.23ZM578.83,98.7c-.13-15.25-4.1-21.39-18.06-21.39s-18.96,6.79-19.6,21.39h37.67Z"/>
    <path class="st1" d="M600.52,134.95v-10.12c7.3,3.07,16.14,4.74,23.32,4.74,12.68,0,16.78-2.05,16.78-9.99,0-7.3-4.23-8.84-12.43-11.27l-11.4-3.46c-10.51-3.07-16.91-6.53-16.91-18.7,0-13.58,8.46-17.81,26.26-17.81,8.07,0,16.27,1.41,21.14,2.82v9.86c-6.66-2.18-12.94-3.46-21.27-3.46-12.56,0-15.89,1.92-15.89,8.84,0,6.28,3.07,7.69,11.15,9.99l11.4,3.46c11.91,3.46,18.06,7.17,18.06,19.6,0,14.35-6.79,19.35-26.9,19.35-7.94,0-17.04-1.28-23.32-3.84Z"/>
    <path class="st1" d="M664.88,125.09h11.02l-8.71,36.64h-9.22l6.92-36.64Z"/>
    <path class="st1" d="M732.65,154.81c13.71-.38,24.47-1.54,31.77-3.97,7.56-2.43,11.02-6.53,11.02-12.94v-3.72c-4.36,1.79-11.66,3.59-20.5,3.59-17.29,0-29.72-8.46-29.72-34.72s9.99-34.72,29.59-34.72c9.61,0,16.27,2.69,20.5,5.51v-4.23h10.12v66.11c0,17.04-9.1,24.34-34.46,27.54-6.66.77-12.56,1.02-18.32,1.15v-9.61ZM775.19,126.5v-45.35c-4.23-1.92-9.61-3.33-17.42-3.33-17.42,0-22.04,8.07-22.04,25.24s4.74,25.49,22.04,25.49c7.05,0,12.56-.9,17.42-2.05Z"/>
    <path class="st1" d="M799.56,103.57c0-23.57,8.2-35.23,29.85-35.23,20.24,0,28.31,9.22,28.31,32.54,0,2.05-.26,4.74-.38,6.41h-47.53c.38,17.17,6.02,22.29,22.16,22.29,9.99,0,16.53-1.67,21.78-3.72v9.48c-4.61,1.79-12.17,3.46-22.68,3.46-22.29,0-31.52-8.33-31.52-35.23ZM847.47,98.7c-.13-15.25-4.1-21.39-18.06-21.39s-18.96,6.79-19.6,21.39h37.67Z"/>
    <path class="st1" d="M878.1,121.12v-42.53h-13.58v-8.97h13.58v-16.01l10.12-3.07v19.09h22.42v8.97h-22.42v41.89c0,6.79,3.97,8.84,10.5,8.84,5,0,9.35-1.15,12.3-2.18v9.35c-3.84,1.54-7.69,2.31-13.96,2.31-12.43,0-18.96-4.61-18.96-17.68Z"/>
    <path class="st1" d="M54.37,274.86v-42.53h-13.58v-8.97h13.58v-16.01l10.12-3.07v19.09h22.42v8.97h-22.42v41.89c0,6.79,3.97,8.84,10.5,8.84,5,0,9.35-1.15,12.3-2.18v9.35c-3.84,1.54-7.69,2.31-13.96,2.31-12.43,0-18.96-4.61-18.96-17.68Z"/>
    <path class="st1" d="M155.7,242.44v48.81h-10.25v-46.76c0-9.61-3.97-12.94-15.89-12.94-9.35,0-16.27,1.92-20.37,3.84v55.86h-10.25v-92.24h10.25v28.7c3.84-2.18,12.17-5.64,22.93-5.64,18.45,0,23.57,7.05,23.57,20.37Z"/>
    <path class="st1" d="M169.59,257.3c0-23.57,8.2-35.23,29.85-35.23,20.24,0,28.31,9.22,28.31,32.54,0,2.05-.26,4.74-.38,6.41h-47.53c.38,17.17,6.02,22.29,22.16,22.29,9.99,0,16.53-1.67,21.78-3.71v9.48c-4.61,1.79-12.17,3.46-22.68,3.46-22.29,0-31.52-8.33-31.52-35.23ZM217.5,252.44c-.13-15.25-4.1-21.39-18.06-21.39s-18.96,6.79-19.6,21.39h37.67Z"/>
    <path class="st1" d="M335.49,240.39v50.86h-10.25v-19.22h-50.48v-8.2l40.1-59.7h11.66l-39.33,58.68h38.05v-22.42h10.25Z"/>
    <path class="st1" d="M355.17,274.86v-42.53h-13.58v-8.97h13.58v-16.01l10.12-3.07v19.09h22.42v8.97h-22.42v41.89c0,6.79,3.97,8.84,10.5,8.84,5,0,9.35-1.15,12.3-2.18v9.35c-3.84,1.54-7.69,2.31-13.96,2.31-12.43,0-18.96-4.61-18.96-17.68Z"/>
    <path class="st1" d="M456.5,242.44v48.81h-10.25v-46.76c0-9.61-3.97-12.94-15.89-12.94-9.35,0-16.27,1.92-20.37,3.84v55.86h-10.25v-92.24h10.25v28.7c3.84-2.18,12.17-5.64,22.93-5.64,18.45,0,23.57,7.05,23.57,20.37Z"/>
    <path class="st1" d="M548.61,232.32h-20.63v58.93h-10.25v-58.93h-13.84v-8.97h13.84v-2.95c0-10.38,2.69-17.81,20.11-23.83l6.79-2.43,3.07,8.71-5.12,1.79c-9.99,3.33-14.6,6.41-14.6,16.14v2.56h20.63v8.97Z"/>
    <path class="st1" d="M554.81,257.3c0-26.26,10.89-35.23,31.39-35.23s31.39,8.97,31.39,35.23-11.02,35.23-31.39,35.23-31.39-8.84-31.39-35.23ZM607.08,257.3c0-21.52-7.69-25.75-20.88-25.75s-20.88,4.23-20.88,25.75,7.69,25.75,20.88,25.75,20.88-4.23,20.88-25.75Z"/>
    <path class="st1" d="M631.64,223.35h9.86v7.43c4.87-3.2,14.09-7.43,25.88-8.71v9.86c-9.74,1.02-19.35,3.46-25.49,6.53v52.78h-10.25v-67.9Z"/>
    <path class="st1" d="M746.94,289.08v13.84h-10.25v-13.45c-10.51-.26-18.32-1.67-23.96-3.59v-10.25c5.25,1.67,14.35,3.97,26.52,3.97,15.12,0,19.86-4.61,19.86-12.04s-2.31-10.12-11.15-13.32l-17.81-6.79c-11.4-4.23-18.19-8.46-18.19-20.5,0-13.58,7.17-19.22,24.73-20.24v-14.09h10.25v14.09c8.58.26,15.12,1.67,19.47,2.95v10.12c-5.25-1.92-13.45-3.59-23.7-3.59-15.25,0-19.99,2.43-19.99,11.02,0,6.79,4.48,8.97,13.58,12.17l16.4,5.77c13.07,4.74,17.17,10.25,17.17,21.91s-5.51,20.24-22.93,22.04Z"/>
    <path class="st1" d="M799.66,214.64l-22.55,4.1v-9.48l32.8-6.41v88.4h-10.25v-76.61Z"/>
    <path class="st1" d="M828.08,278.83h11.91v12.43h-11.91v-12.43ZM828.46,204.14h11.02l-1.41,64.95h-8.2l-1.41-64.95Z"/>
    <path class="st1" d="M854.61,218.72l7.54-8.89-11.2-2.46,1.72-5.38,10.68,4.26-1.05-11.43h5.9l-.97,11.43,10.53-4.33,1.79,5.45-11.2,2.46,7.62,8.81-4.78,3.44-5.9-9.93-5.9,10.01-4.78-3.44Z"/>
  </g>
</svg>