<?xml version="1.0" encoding="UTF-8"?>
<svg id="Layer_1" xmlns="http://www.w3.org/2000/svg" version="1.1" viewBox="0 0 1200 246">
  <!-- Generator: Adobe Illustrator 30.2.1, SVG Export Plug-In . SVG Version: 2.1.1 Build 1)  -->
  <defs>
    <style>
      .st0, .st1, .st2 {
        fill: #fff;
      }

      .st1 {
        font-size: 23.01px;
      }

      .st1, .st2 {
        font-family: MMC-Regular, MMC;
      }

      .st2 {
        font-size: 14px;
      }
    </style>
  </defs>
  <text class="st1" transform="translate(332.59 207.12)"><tspan x="0" y="0">April 1–May 31, 2026</tspan></text>
  <text class="st2" transform="translate(25 239.02)"><tspan x="0" y="0">*Go to www.mitsubishitireprogram.com for complete details.</tspan></text>
  <g>
    <path class="st0" d="M59.41,59.55c0,9.6-5.42,12.08-15.21,12.08h-17.49V27.24h16.32c10.25,0,15.27,2.48,15.27,11.1,0,6.46-2.68,8.94-6.46,9.99,3.98.98,7.57,3.52,7.57,11.23ZM32.06,32.01v14.23h12.86c5.03,0,7.96-1.44,7.96-7.51,0-5.03-2.55-6.72-10.44-6.72h-10.38ZM53.93,59.16c0-6.14-2.42-8.29-8.88-8.29h-12.99v15.99h11.49c7.31,0,10.38-1.11,10.38-7.7Z"/>
    <path class="st0" d="M66.42,61.9v-24.87h5.22v23.83c0,4.9,2.02,6.59,7.96,6.59,4.9,0,8.03-1.11,10.25-2.02v-28.4h5.22v34.6h-4.18l-.72-2.42c-1.96,1.17-6.07,3.07-11.68,3.07-9.33,0-12.08-3.59-12.08-10.38Z"/>
    <path class="st0" d="M132.8,37.03l-11.29,29.24c-2.81,7.18-7.12,13.71-16.19,19.06l-2.48-3.98c5.55-3.85,9.14-7.31,11.1-10.71l-13.32-33.62h5.48l10.71,28.72,10.31-28.72h5.68Z"/>
    <path class="st0" d="M184.89,58.44c0,9.66-5.42,13.84-16.65,13.84-5.61,0-10.51-.85-13.45-1.76v-5.22c2.68.85,7.64,2.09,13.51,2.09,7.7,0,11.23-2.68,11.23-9.01s-2.87-8.42-9.2-8.42c-3.39,0-4.44.06-6.33.26l-1.63-4.05,13.77-14.17h-20.76v-4.77h26.5l1.5,4.24-14.1,14.36c.91-.06,1.83-.13,2.68-.13,8.88,0,12.92,4.11,12.92,12.73Z"/>
    <path class="st0" d="M213.73,63.27v-21.67h-6.92v-4.57h6.92v-8.16l5.16-1.57v9.73h11.42v4.57h-11.42v21.35c0,3.46,2.02,4.5,5.35,4.5,2.55,0,4.77-.59,6.27-1.11v4.77c-1.96.78-3.92,1.17-7.12,1.17-6.33,0-9.66-2.35-9.66-9.01Z"/>
    <path class="st0" d="M236.07,25.15h6.14v5.61h-6.14v-5.61ZM236.53,37.03h5.22v34.6h-5.22v-34.6Z"/>
    <path class="st0" d="M250.38,37.03h5.03v3.79c2.48-1.63,7.18-3.79,13.19-4.44v5.03c-4.96.52-9.86,1.76-12.99,3.33v26.89h-5.22v-34.6Z"/>
    <path class="st0" d="M272.17,54.33c0-12.01,4.18-17.95,15.21-17.95,10.31,0,14.43,4.7,14.43,16.58,0,1.04-.13,2.42-.2,3.26h-24.22c.2,8.75,3.07,11.36,11.29,11.36,5.09,0,8.42-.85,11.1-1.89v4.83c-2.35.91-6.2,1.76-11.55,1.76-11.36,0-16.06-4.24-16.06-17.95ZM296.58,51.85c-.06-7.77-2.09-10.9-9.2-10.9s-9.66,3.46-9.99,10.9h19.19Z"/>
    <path class="st0" d="M307.76,70.32v-5.16c3.72,1.57,8.22,2.42,11.88,2.42,6.46,0,8.55-1.04,8.55-5.09,0-3.72-2.15-4.5-6.33-5.74l-5.81-1.76c-5.35-1.57-8.62-3.33-8.62-9.53,0-6.92,4.31-9.07,13.38-9.07,4.11,0,8.29.72,10.77,1.44v5.03c-3.39-1.11-6.59-1.76-10.84-1.76-6.4,0-8.09.98-8.09,4.5,0,3.2,1.57,3.92,5.68,5.09l5.81,1.76c6.07,1.76,9.2,3.66,9.2,9.99,0,7.31-3.46,9.86-13.71,9.86-4.05,0-8.68-.65-11.88-1.96Z"/>
    <path class="st0" d="M340.69,65.3h5.61l-4.44,18.67h-4.7l3.53-18.67Z"/>
    <path class="st0" d="M375.22,80.44c6.98-.2,12.47-.78,16.19-2.02,3.85-1.24,5.61-3.33,5.61-6.59v-1.89c-2.22.91-5.94,1.83-10.44,1.83-8.81,0-15.14-4.31-15.14-17.69s5.09-17.69,15.08-17.69c4.9,0,8.29,1.37,10.44,2.81v-2.15h5.16v33.68c0,8.68-4.63,12.4-17.56,14.03-3.39.39-6.4.52-9.33.59v-4.9ZM396.89,66.02v-23.11c-2.15-.98-4.9-1.7-8.88-1.7-8.88,0-11.23,4.11-11.23,12.86s2.42,12.99,11.23,12.99c3.59,0,6.4-.46,8.88-1.04Z"/>
    <path class="st0" d="M409.45,54.33c0-12.01,4.18-17.95,15.21-17.95,10.31,0,14.43,4.7,14.43,16.58,0,1.04-.13,2.42-.2,3.26h-24.22c.2,8.75,3.07,11.36,11.29,11.36,5.09,0,8.42-.85,11.1-1.89v4.83c-2.35.91-6.2,1.76-11.55,1.76-11.36,0-16.06-4.24-16.06-17.95ZM433.86,51.85c-.06-7.77-2.09-10.9-9.2-10.9s-9.66,3.46-9.99,10.9h19.19Z"/>
    <path class="st0" d="M449.6,63.27v-21.67h-6.92v-4.57h6.92v-8.16l5.16-1.57v9.73h11.42v4.57h-11.42v21.35c0,3.46,2.02,4.5,5.35,4.5,2.55,0,4.77-.59,6.27-1.11v4.77c-1.96.78-3.92,1.17-7.12,1.17-6.33,0-9.66-2.35-9.66-9.01Z"/>
    <path class="st0" d="M28.67,141.6v-21.67h-6.92v-4.57h6.92v-8.16l5.16-1.57v9.73h11.42v4.57h-11.42v21.35c0,3.46,2.02,4.5,5.35,4.5,2.55,0,4.77-.59,6.27-1.11v4.76c-1.96.78-3.92,1.17-7.12,1.17-6.33,0-9.66-2.35-9.66-9.01Z"/>
    <path class="st0" d="M80.44,125.09v24.87h-5.22v-23.83c0-4.9-2.02-6.59-8.09-6.59-4.77,0-8.29.98-10.38,1.96v28.46h-5.22v-47h5.22v14.62c1.96-1.11,6.2-2.87,11.68-2.87,9.4,0,12.01,3.59,12.01,10.38Z"/>
    <path class="st0" d="M87.66,132.66c0-12.01,4.18-17.95,15.21-17.95,10.31,0,14.43,4.7,14.43,16.58,0,1.04-.13,2.42-.2,3.26h-24.22c.2,8.75,3.07,11.36,11.29,11.36,5.09,0,8.42-.85,11.1-1.89v4.83c-2.35.91-6.2,1.76-11.55,1.76-11.36,0-16.06-4.24-16.06-17.95ZM112.07,130.18c-.06-7.77-2.09-10.9-9.2-10.9s-9.66,3.46-9.99,10.9h19.19Z"/>
    <path class="st0" d="M172.18,124.04v25.92h-5.22v-9.79h-25.72v-4.18l20.43-30.42h5.94l-20.04,29.9h19.39v-11.42h5.22Z"/>
    <path class="st0" d="M182.36,141.6v-21.67h-6.92v-4.57h6.92v-8.16l5.16-1.57v9.73h11.42v4.57h-11.42v21.35c0,3.46,2.02,4.5,5.35,4.5,2.55,0,4.77-.59,6.27-1.11v4.76c-1.96.78-3.92,1.17-7.12,1.17-6.33,0-9.66-2.35-9.66-9.01Z"/>
    <path class="st0" d="M234.13,125.09v24.87h-5.22v-23.83c0-4.9-2.02-6.59-8.09-6.59-4.77,0-8.29.98-10.38,1.96v28.46h-5.22v-47h5.22v14.62c1.96-1.11,6.2-2.87,11.68-2.87,9.4,0,12.01,3.59,12.01,10.38Z"/>
    <path class="st0" d="M281.06,119.93h-10.51v30.03h-5.22v-30.03h-7.05v-4.57h7.05v-1.5c0-5.29,1.37-9.07,10.25-12.14l3.46-1.24,1.57,4.44-2.61.91c-5.09,1.7-7.44,3.26-7.44,8.23v1.31h10.51v4.57Z"/>
    <path class="st0" d="M284.36,132.66c0-13.38,5.55-17.95,15.99-17.95s15.99,4.57,15.99,17.95-5.61,17.95-15.99,17.95-15.99-4.5-15.99-17.95ZM310.99,132.66c0-10.97-3.92-13.12-10.64-13.12s-10.64,2.15-10.64,13.12,3.92,13.12,10.64,13.12,10.64-2.15,10.64-13.12Z"/>
    <path class="st0" d="M323.65,115.36h5.03v3.79c2.48-1.63,7.18-3.79,13.19-4.44v5.03c-4.96.52-9.86,1.76-12.99,3.33v26.89h-5.22v-34.6Z"/>
    <path class="st0" d="M382.39,148.85v7.05h-5.22v-6.85c-5.35-.13-9.33-.85-12.21-1.83v-5.22c2.68.85,7.31,2.02,13.51,2.02,7.7,0,10.12-2.35,10.12-6.14s-1.18-5.16-5.68-6.79l-9.07-3.46c-5.81-2.15-9.27-4.31-9.27-10.44,0-6.92,3.66-9.79,12.6-10.31v-7.18h5.22v7.18c4.37.13,7.7.85,9.92,1.5v5.16c-2.68-.98-6.85-1.83-12.08-1.83-7.77,0-10.18,1.24-10.18,5.61,0,3.46,2.28,4.57,6.92,6.2l8.36,2.94c6.66,2.42,8.75,5.22,8.75,11.16s-2.81,10.31-11.68,11.23Z"/>
    <path class="st0" d="M409.37,110.92l-11.49,2.09v-4.83l16.71-3.26v45.04h-5.22v-39.04Z"/>
    <path class="st0" d="M424,143.62h6.07v6.33h-6.07v-6.33ZM424.2,105.57h5.61l-.72,33.1h-4.18l-.72-33.1Z"/>
    <path class="st0" d="M437.76,113l3.84-4.53-5.71-1.26.88-2.74,5.44,2.17-.53-5.82h3.01l-.49,5.82,5.37-2.21.91,2.78-5.71,1.26,3.88,4.49-2.44,1.75-3.01-5.06-3.01,5.1-2.44-1.75Z"/>
  </g>
</svg>