<svg width="100" height="107" viewBox="0 0 100 107" fill="none" xmlns="http://www.w3.org/2000/svg">
<g clip-path="url(#clip0_3132_517)">
<path d="M84.614 96.8899C82.9317 91.967 80.5113 89.5621 75.5566 87.8906C80.5113 86.219 82.9317 83.8142 84.614 78.8912C86.2963 83.8142 88.7167 86.219 93.6714 87.8906C88.7167 89.5621 86.2963 91.967 84.614 96.8899Z" fill="white"/>
<path d="M25.0016 10.1101C25.1698 10.6062 25.3543 11.0645 25.5443 11.512C25.5497 11.5228 25.5443 11.539 25.5551 11.5552C25.5551 11.5606 25.566 11.566 25.5714 11.5767C27.232 15.5183 29.6307 17.6212 34.0644 19.1095C29.1097 20.781 26.6893 23.1858 25.007 28.1088C24.3666 26.2324 23.6123 24.728 22.6572 23.4824C22.6572 23.4824 22.6572 23.4824 22.6572 23.477C21.1051 21.4604 19.0158 20.1447 15.9551 19.1095C20.9098 17.4379 23.3301 15.0331 25.0124 10.1101H25.0016Z" fill="white"/>
<path d="M76.7834 92.5709C74.6398 91.3415 71.579 90.6189 66.9391 89.7724C66.798 89.7454 66.6786 89.6807 66.5538 89.6322C62.1038 92.7272 57.1871 95.2507 51.8091 97.1325C51.2176 97.3482 50.6044 97.4561 49.9857 97.4561C49.3671 97.4561 48.7376 97.3482 48.1298 97.1272C38.6545 93.8164 30.5414 88.5592 24.0455 81.5064C8.57909 64.7532 7.20611 42.5487 7.75964 30.7994C7.90074 28.1681 9.69159 25.9843 12.2096 25.3481C13.9571 24.9167 15.6828 24.4314 17.3814 23.9192C15.2324 22.6035 12.1282 21.854 7.31464 20.9751C6.57117 20.8403 6.01763 20.2849 5.8277 19.5894C4.74233 19.8104 3.65697 20.0423 2.56618 20.231C1.73587 20.3658 1.12807 20.9913 1.00325 21.8271C-0.434854 31.3171 -3.44131 64.1008 18.3745 87.9013C26.5744 96.8414 37.3304 103.42 49.4702 106.919C49.8229 107.022 50.1268 107.027 50.4524 106.925C60.3455 104.072 69.3812 99.1168 76.7834 92.5655V92.5709Z" fill="white"/>
<path d="M29.8848 11.6523C31.3229 13.917 33.4448 15.0979 37.1296 16.063C40.5593 14.2998 43.8643 12.418 46.9304 10.4499C48.8081 9.25287 51.1362 9.25287 53.0139 10.4499C59.5098 14.5964 66.3638 18.0797 73.3916 20.808C78.0749 22.636 82.8994 24.1673 87.7347 25.3589C90.2636 25.9952 92.049 28.179 92.1901 30.7995C92.6134 39.7557 91.9025 54.7672 84.7174 68.8135C85.5911 68.8675 86.3291 69.4929 86.4865 70.3557C87.1594 73.9953 87.7564 76.6482 88.5867 78.654C102.355 56.8701 100.477 31.8618 98.9465 21.8433C98.8217 21.0076 98.2138 20.3821 97.3998 20.2527C90.1713 19.0071 83.0405 17.0174 76.1972 14.3376C67.3027 10.8489 58.8586 6.15783 51.0982 0.388324C50.4253 -0.113137 49.5353 -0.118529 48.8732 0.382932C42.8928 4.82599 36.5055 8.58964 29.8902 11.6631L29.8848 11.6523Z" fill="white"/>
<path d="M82.1239 73.359C80.3602 76.1629 78.3305 78.902 75.9319 81.501C74.8628 82.6603 73.734 83.7549 72.5781 84.8171C78.8678 83.1564 80.5393 80.8216 82.1239 73.359Z" fill="white"/>
<path d="M11.6283 30.9936C11.1019 42.1336 12.3772 63.1895 26.8939 78.9182C32.9611 85.5019 40.5478 90.414 49.4423 93.5199C49.8276 93.6601 50.1641 93.6601 50.5277 93.5253C59.444 90.414 67.0307 85.4965 73.0978 78.9182C87.6146 63.1895 88.8953 42.1336 88.3635 30.9828C88.3146 30.0553 87.6906 29.2789 86.8114 29.0578C81.8242 27.8284 76.8369 26.2485 72.0016 24.3559C64.746 21.5359 57.664 17.9394 50.9564 13.6581C50.354 13.2753 49.6377 13.2807 49.0353 13.6581C47.0762 14.9144 45.0141 16.1277 42.8976 17.3139C43.6736 17.5673 44.2272 18.2683 44.2272 19.1041C44.2272 20.0261 43.5651 20.8187 42.6534 20.9805C30.4593 23.2128 29.1352 24.5285 26.8885 36.6444C26.7202 37.5503 25.9225 38.2081 24.9999 38.2081C24.0774 38.2081 23.2742 37.5503 23.1114 36.6444C22.2757 32.1367 21.5648 29.1225 20.3763 27.0034C18.0265 27.7529 15.6224 28.4539 13.1749 29.0578C12.3066 29.2735 11.6825 30.0553 11.6337 30.9936H11.6283ZM28.6739 51.1221L31.078 48.6795C33.3572 46.3663 37.3514 46.3663 39.6361 48.6795L46.1483 55.2848C46.9731 56.1205 48.3895 56.1205 49.209 55.2848L68.0455 36.1753C69.1851 35.016 70.7046 34.3798 72.3218 34.3798C73.939 34.3798 75.4585 35.016 76.5981 36.1753L79.0022 38.6179C81.3303 40.9797 81.3303 44.8242 79.0022 47.1859L51.9495 74.6261C50.8099 75.7854 49.2904 76.4216 47.6732 76.4216C46.056 76.4216 44.5365 75.7854 43.3914 74.6261L28.663 59.6847C26.3349 57.323 26.3349 53.4784 28.663 51.1167L28.6739 51.1221Z" fill="white"/>
<path d="M46.1497 71.9625C46.9746 72.7982 48.391 72.7982 49.2105 71.9625L76.2632 44.5223C77.1369 43.6326 77.1369 42.1929 76.2632 41.3032L73.8591 38.8606C73.4466 38.4454 72.904 38.2136 72.3287 38.2136C71.7535 38.2136 71.2108 38.4454 70.7984 38.8606L51.9619 57.9701C49.6826 60.2833 45.683 60.2833 43.4038 57.9701L36.8916 51.3648C36.0667 50.529 34.6503 50.529 33.8309 51.3648L31.4268 53.8074C30.5531 54.6971 30.5531 56.1368 31.4268 57.0265L46.1552 71.9678L46.1497 71.9625Z" fill="white"/>
</g>
<defs>
<clipPath id="clip0_3132_517">
<rect width="100" height="107" fill="white"/>
</clipPath>
</defs>
</svg>
