<svg width="125" height="100" viewBox="0 0 125 100" fill="none" xmlns="http://www.w3.org/2000/svg">
<g clip-path="url(#clip0_3132_527)">
<path d="M54.1703 16.5222L60.6944 5.20801C61.4367 3.91692 63.5573 3.91692 64.3058 5.20801L70.8299 16.5222C70.8299 16.5222 70.8299 16.4785 70.8299 16.4598V0H54.1641V16.4598C54.1641 16.4598 54.1641 16.5035 54.1641 16.5222H54.1703Z" fill="white"/>
<path d="M89.5855 70.8289C93.0347 70.8289 95.8352 68.0284 95.8352 64.5793V6.24961C95.8352 2.80047 93.0347 0 89.5855 0H75.0029V16.4598C75.0029 18.3621 73.8366 20.0337 72.1089 20.62C71.6785 20.7634 71.2481 20.832 70.8178 20.832C69.5765 20.832 68.3852 20.2457 67.5744 19.1792C67.5245 19.1106 67.4746 19.0357 67.4309 18.9609L62.5035 10.416L57.5761 18.9609C57.5325 19.0357 57.4826 19.1106 57.4327 19.1792C56.3412 20.6137 54.5636 21.1688 52.8982 20.62C51.1705 20.0337 50.0042 18.3621 50.0042 16.4598V0H35.4216C31.9724 0 29.1719 2.80047 29.1719 6.24961V16.6656H31.2551C34.7043 16.6656 37.5048 19.4661 37.5048 22.9152C37.5048 23.6512 37.3551 24.3435 37.1181 24.9984H52.0874C55.5366 24.9984 58.3371 27.7989 58.3371 31.2481C58.3371 32.0714 58.1687 32.851 57.8755 33.5745C60.5326 34.2918 62.5035 36.6993 62.5035 39.5809C62.5035 42.4624 60.5326 44.87 57.8755 45.5872C58.1687 46.3045 58.3371 47.0904 58.3371 47.9137C58.3371 51.3628 55.5366 54.1633 52.0874 54.1633H49.6175C49.8482 54.8182 50.0042 55.5105 50.0042 56.2465C50.0042 59.6956 47.2037 62.4961 43.7545 62.4961H29.1719V64.5793C29.1719 68.0284 31.9724 70.8289 35.4216 70.8289H89.5855ZM81.2526 58.3297H85.4191C86.5667 58.3297 87.5023 59.259 87.5023 60.4129C87.5023 61.5668 86.5667 62.4961 85.4191 62.4961H81.2526C80.105 62.4961 79.1694 61.5668 79.1694 60.4129C79.1694 59.259 80.105 58.3297 81.2526 58.3297ZM68.747 58.3297H72.9135C74.0611 58.3297 74.9967 59.259 74.9967 60.4129C74.9967 61.5668 74.0611 62.4961 72.9135 62.4961H68.747C67.5993 62.4961 66.6638 61.5668 66.6638 60.4129C66.6638 59.259 67.5993 58.3297 68.747 58.3297Z" fill="white"/>
<path d="M10.1417 54.8244L14.0774 56.7891C16.092 57.7933 18.3499 58.3297 20.6015 58.3297H43.7478C44.8955 58.3297 45.831 57.3941 45.831 56.2465C45.831 55.0989 44.8955 54.1633 43.7478 54.1633H29.1652C28.0176 54.1633 27.082 53.234 27.082 52.0801C27.082 50.9262 28.0176 49.9969 29.1652 49.9969H52.0807C53.2284 49.9969 54.164 49.0613 54.164 47.9137C54.164 46.766 53.2284 45.8305 52.0807 45.8305H29.1652C28.0176 45.8305 27.082 44.9011 27.082 43.7473C27.082 42.5934 28.0176 41.6641 29.1652 41.6641H56.2472C57.3948 41.6641 58.3304 40.7285 58.3304 39.5809C58.3304 38.4332 57.3948 37.4977 56.2472 37.4977H29.1652C28.0176 37.4977 27.082 36.5683 27.082 35.4145C27.082 34.2606 28.0176 33.3313 29.1652 33.3313H52.0807C53.2284 33.3313 54.164 32.3957 54.164 31.248C54.164 30.1004 53.2284 29.1648 52.0807 29.1648H20.8323C19.6846 29.1648 18.7491 28.2355 18.7491 27.0816C18.7491 25.9278 19.6846 24.9984 20.8323 24.9984H31.2484C32.3961 24.9984 33.3317 24.0629 33.3317 22.9152C33.3317 21.7676 32.3961 20.832 31.2484 20.832H20.115C18.4684 20.832 16.8592 21.4994 15.6991 22.6657L11.0274 27.3374C9.84856 28.5162 8.27678 29.1711 6.60521 29.1711H0V54.1695H7.34744C8.31421 54.1695 9.28097 54.4003 10.1417 54.8307V54.8244Z" fill="white"/>
<path d="M118.09 83.2221L106.164 79.249L93.6338 82.3801C92.4737 82.6732 91.6691 83.7086 91.6691 84.8999C91.6691 86.3344 92.8355 87.4945 94.2638 87.4945H106.252C107.399 87.4945 108.335 88.4238 108.335 89.5777C108.335 90.7316 107.399 91.6609 106.252 91.6609H94.2638C92.3427 91.6609 90.6088 90.8563 89.3801 89.5653L65.1547 87.8313C64.4686 87.7877 63.8012 88.0184 63.2898 88.4925C62.7783 88.9665 62.5039 89.6089 62.5039 90.3012C62.5039 91.399 63.2399 92.3782 64.3002 92.6776L89.879 99.9875H125.001V83.3219H118.751C118.527 83.3219 118.302 83.2845 118.09 83.2158V83.2221Z" fill="white"/>
</g>
<defs>
<clipPath id="clip0_3132_527">
<rect width="125" height="100" fill="white"/>
</clipPath>
</defs>
</svg>
