<svg width="102" height="99" viewBox="0 0 102 99" fill="none" xmlns="http://www.w3.org/2000/svg">
<g clip-path="url(#clip0_3132_535)">
<path fill-rule="evenodd" clip-rule="evenodd" d="M83.5329 32.367L72.3235 21.1937C71.4764 20.3497 71.4764 18.9704 72.3235 18.1263L87.123 3.38647C80.6247 1.76529 73.4651 3.46367 68.3874 8.52792C62.669 14.2201 61.2072 22.5473 63.9863 29.593L52.8027 40.7353L55.2719 43.1954L60.3032 38.1775L67.3491 45.1974L65.1537 47.395C64.3685 48.2854 63.9604 49.5721 64.1361 50.8124C64.1722 51.0234 64.2859 51.2087 64.3427 51.4094L75.1078 40.6839C82.1847 43.4476 90.5375 41.9963 96.2455 36.299C101.334 31.2347 103.028 24.0964 101.406 17.622L86.6064 32.367C85.7593 33.211 84.3749 33.211 83.5277 32.367H83.5329Z" fill="white"/>
<path fill-rule="evenodd" clip-rule="evenodd" d="M50.9842 63.9002C49.7445 63.7252 48.4583 64.1318 47.4613 65.0067L45.2711 66.9315L43.1687 64.9141L38.3182 60.0814L43.3546 55.0635L40.8855 52.6034L27.6925 65.7427C21.8399 63.9156 15.1866 65.3001 10.5427 69.9268C3.89461 76.5505 3.89461 87.2966 10.5427 93.9203C17.1909 100.549 27.9818 100.549 34.6351 93.9203C39.2687 89.2935 40.6685 82.6698 38.8244 76.8336L51.5989 64.106C51.3872 64.0391 51.2064 63.9259 50.9894 63.895L50.9842 63.9002ZM30.2547 75.83V78.815L32.3777 80.9251C32.9821 81.5324 32.9821 82.5154 32.3777 83.1176L30.2598 85.2328V88.2179C30.2598 89.0671 29.5573 89.7721 28.6998 89.767H25.6986L23.5807 91.8822C22.9763 92.4895 21.9897 92.4895 21.3802 91.8822L19.2623 89.767H16.2662C15.4087 89.767 14.7114 89.0774 14.7114 88.2179V85.2328L12.5883 83.1176C11.9839 82.5154 11.9839 81.5324 12.5883 80.9251L14.7114 78.815V75.83C14.7062 74.9705 15.4087 74.2757 16.2662 74.2809H19.2623L21.3802 72.1656C21.9897 71.5635 22.9763 71.5635 23.5807 72.1656L25.6986 74.2809H28.6947C29.5522 74.2809 30.2495 74.9705 30.2495 75.83H30.2547Z" fill="white"/>
<path fill-rule="evenodd" clip-rule="evenodd" d="M30.1151 13.4892C30.7401 12.8664 30.5955 11.9658 29.7948 11.4871L10.9145 0.288131C10.119 -0.185357 8.95158 -0.0669848 8.32138 0.5609L0.562642 8.29624C-0.0623956 8.92413 -0.181204 10.0821 0.288865 10.8747L11.5292 29.6855C12.0045 30.4884 12.9084 30.6273 13.5335 29.9995L18.0637 25.4859L47.7504 55.0634L42.714 60.0813L43.0962 60.4622L44.4599 61.8209L45.3536 62.7112V62.7215L45.4001 62.6804C47.0066 61.2753 49.1606 60.5136 51.4232 60.8327C55.318 61.3834 58.0661 64.8522 57.844 68.7019L57.8853 68.7379C57.8853 68.7379 57.8853 68.7482 57.8853 68.7585C57.8027 69.6386 57.8079 70.5083 57.906 71.3884C57.906 71.4141 57.9112 71.4399 57.9112 71.4707C58.1178 73.1588 58.6602 74.7955 59.5538 76.3034C59.6365 76.4372 59.7295 76.571 59.8121 76.7048C60.277 77.4048 60.7832 78.0893 61.398 78.7017L78.1397 95.3819C82.9798 100.204 90.8884 100.204 95.7286 95.3819C100.564 90.5595 100.564 82.6749 95.7286 77.8525L78.9817 61.1776C78.3618 60.56 77.6851 60.0556 76.9877 59.5975C76.8431 59.5101 76.714 59.4226 76.5745 59.3402C75.0713 58.4447 73.4235 57.9043 71.7292 57.7036C71.7033 57.7036 71.6775 57.6985 71.6517 57.6933C70.7684 57.5955 69.8902 57.5852 69.012 57.6727C69.012 57.6727 69.0017 57.6727 68.9966 57.6727L68.9501 57.6315C65.0965 57.8529 61.6149 55.1149 61.057 51.2343C60.7419 48.975 61.5013 46.8288 62.9166 45.2385L62.958 45.2025L62.9476 45.1922L62.054 44.3019L60.6903 42.9432L60.2977 42.5572L55.2664 47.5802L25.5797 18.0079L30.1151 13.4943V13.4892ZM74.6581 80.8427L76.311 82.4845L85.3663 91.5065C86.0947 92.2321 86.1825 93.3232 85.5626 93.9357C84.9531 94.5481 83.8528 94.4606 83.1245 93.7401L73.7592 84.4093L72.4213 83.0712L63.0819 73.7661C62.3588 73.0456 62.2658 71.9494 62.8856 71.3369C63.5004 70.7193 64.6006 70.812 65.3238 71.5325L74.6632 80.8376L74.6581 80.8427ZM90.8212 88.259C91.5444 88.9846 91.6374 90.0706 91.0175 90.6882C90.408 91.3006 89.3077 91.2131 88.5793 90.4874L66.3363 68.3262C65.6131 67.6057 65.5253 66.5094 66.1348 65.9021C66.7547 65.2845 67.8446 65.3772 68.573 66.0977L90.8161 88.259H90.8212ZM71.6 62.6546C72.2147 62.037 73.3098 62.1297 74.0382 62.8502L83.3776 72.1553L85.0306 73.8022L94.0859 82.819C94.8091 83.5447 94.9021 84.6358 94.2822 85.2482C93.6675 85.8606 92.5672 85.7731 91.844 85.0526L82.4839 75.7218L81.1409 74.3889L71.8015 65.0838C71.0783 64.3633 70.9956 63.2619 71.6103 62.6546H71.6Z" fill="white"/>
</g>
<defs>
<clipPath id="clip0_3132_535">
<rect width="102" height="99" fill="white"/>
</clipPath>
</defs>
</svg>
