<?xml version="1.0" encoding="UTF-8"?>
<svg id="Layer_2" data-name="Layer 2" xmlns="http://www.w3.org/2000/svg" viewBox="0 0 85.17 85.68">
  <defs>
    <style>
      .cls-1 {
        stroke: #000;
        stroke-miterlimit: 16.67;
        stroke-width: 2.08px;
      }
    </style>
  </defs>
  <g id="Layer_1-2" data-name="Layer 1">
    <path class="cls-1" d="M81.46,72.15c-.52,2.35-1.82,4.45-3.68,5.97-4.11,4.17-9.72,6.52-15.57,6.52h-1.35c-6.08-.33-12.04-1.87-17.52-4.53h-.04c-1.27-.59-2.58-1.18-3.85-1.9-6.4-3.59-12.27-8.05-17.44-13.25-6.71-6.3-12.22-13.77-16.25-22.05-2.14-4.54-3.57-9.37-4.24-14.35-.98-5.2-.39-10.58,1.7-15.45,1.32-2.2,2.93-4.2,4.78-5.97,1.69-1.91,4.1-3.03,6.65-3.09,2.77.31,5.3,1.71,7.03,3.9,1.9,2.07,4.23,4.23,6.14,6.22l2.63,2.58c1.54,1.37,2.5,3.28,2.67,5.33,0,1.89-.7,3.71-1.95,5.12-.81.99-1.67,1.93-2.58,2.83l-.85.89c-.49.46-.87,1.03-1.1,1.65-.21.62-.29,1.25-.25,1.9.67,1.8,1.72,3.43,3.08,4.78,2.12,2.87,4.24,5.37,6.4,8.08,3.9,4.53,8.54,8.38,13.71,11.39.53.39,1.14.65,1.78.76.56.04,1.13-.04,1.65-.25,1.48-.87,2.79-1.99,3.89-3.3,1.48-1.81,3.6-2.98,5.92-3.26,2.23.03,4.37.94,5.93,2.54.85.72,1.78,1.69,2.67,2.63l1.27,1.31,1.31,1.27,2.25,2.28c1.34,1.19,2.59,2.46,3.77,3.81,1.17,1.62,1.7,3.63,1.48,5.63M66.27,43.16c-1.75-.02-3.16-1.43-3.17-3.18.02-10.06-8.12-18.22-18.17-18.24-.02,0-.04,0-.07,0-1.75,0-3.18-1.42-3.18-3.18s1.42-3.18,3.18-3.18c13.56-.02,24.57,10.96,24.59,24.52,0,.03,0,.05,0,.08,0,1.75-1.41,3.17-3.16,3.18,0,0-.01,0-.02,0"/>
    <path class="cls-1" d="M80.96,41.67c-1.74-.02-3.15-1.43-3.17-3.17.03-17.16-13.86-31.08-31.01-31.11-.02,0-.04,0-.05,0-1.75.06-3.22-1.31-3.29-3.06-.06-1.75,1.31-3.22,3.06-3.29.08,0,.15,0,.23,0,20.66,0,37.42,16.75,37.42,37.42,0,.01,0,.03,0,.04,0,1.75-1.41,3.17-3.16,3.18,0,0-.01,0-.02,0"/>
  </g>
</svg>