<?xml version="1.0" encoding="UTF-8"?>
<svg id="Layer_2" data-name="Layer 2" xmlns="http://www.w3.org/2000/svg" viewBox="0 0 125 74.99">
  <g id="Layer_1-2" data-name="Layer 1">
    <path d="M63.16,4.14l-18.91,15.31c-3.14,2.54-3.75,7.11-1.37,10.37,2.52,3.48,7.42,4.16,10.8,1.52l19.39-15.08c1.37-1.05,3.32-.82,4.39.55s.82,3.32-.55,4.39l-4.08,3.16,27.15,25V12.5h-.14l-.76-.49-14.18-9.08c-2.99-1.91-6.48-2.93-10.04-2.93-4.26,0-8.4,1.46-11.72,4.14M67.62,28.44l-10.1,7.85c-6.15,4.8-15.08,3.55-19.69-2.77-4.34-5.96-3.24-14.28,2.48-18.91L56.56,1.46C54.3.51,51.86.02,49.37.02c-3.67-.02-7.25,1.07-10.31,3.11l-14.06,9.38v43.75h5.51l17.85,16.29c3.83,3.5,9.75,3.22,13.24-.61,1.07-1.19,1.8-2.58,2.17-4.02l3.32,3.05c3.81,3.5,9.75,3.24,13.24-.57.88-.96,1.52-2.07,1.93-3.22,3.79,2.54,8.95,2.01,12.13-1.46,3.5-3.81,3.24-9.75-.57-13.24l-26.21-24.02ZM3.12,12.5c-1.72,0-3.12,1.41-3.12,3.12v40.62c0,3.46,2.79,6.25,6.25,6.25h6.25c3.46,0,6.25-2.79,6.25-6.25V12.5H3.12ZM9.38,50c1.73,0,3.12,1.4,3.12,3.12s-1.4,3.12-3.12,3.12-3.12-1.4-3.12-3.12,1.4-3.12,3.12-3.12M106.25,12.5v43.75c0,3.46,2.79,6.25,6.25,6.25h6.25c3.46,0,6.25-2.79,6.25-6.25V15.62c0-1.72-1.41-3.12-3.12-3.12h-15.62ZM112.5,53.12c0-1.73,1.4-3.12,3.12-3.12s3.12,1.4,3.12,3.12-1.4,3.12-3.12,3.12-3.12-1.4-3.12-3.12"/>
  </g>
</svg>