<?xml version="1.0" encoding="UTF-8"?>
<svg id="Layer_2" data-name="Layer 2" xmlns="http://www.w3.org/2000/svg" viewBox="0 0 90.63 84.38">
  <defs>
    <style>
      .cls-1 {
        stroke: #000;
        stroke-miterlimit: 25;
        stroke-width: 3.12px;
      }
    </style>
  </defs>
  <g id="Layer_1-2" data-name="Layer 1">
    <path class="cls-1" d="M17.19,1.56c-1.18,0-2.26.67-2.79,1.73L1.89,28.29c-.55,1.1-.41,2.42.37,3.37l40.62,50c1.09,1.34,3.06,1.54,4.4.45.17-.14.32-.29.45-.45l40.62-50c.78-.95.93-2.27.38-3.37l-12.5-25c-.53-1.06-1.62-1.73-2.8-1.73H17.19ZM9.74,26.56L19.12,7.81h12.81l-4.69,18.75H9.74ZM11.25,32.81h16.14l10.08,32.27L11.25,32.81ZM33.94,32.81h22.75l-11.38,36.39-11.37-36.39ZM63.24,32.81h16.14l-26.23,32.27,10.09-32.27ZM80.88,26.56h-17.5l-4.69-18.75h12.81l9.38,18.75ZM56.94,26.56h-23.25l4.69-18.75h13.87l4.69,18.75Z"/>
  </g>
</svg>