<?xml version="1.0" encoding="UTF-8"?>
<svg id="Layer_2" data-name="Layer 2" xmlns="http://www.w3.org/2000/svg" viewBox="0 0 77.08 93.88">
  <defs>
    <style>
      .cls-1 {
        stroke: #000;
        stroke-miterlimit: 16.67;
        stroke-width: 2.08px;
      }
    </style>
  </defs>
  <g id="Layer_1-2" data-name="Layer 1">
    <path class="cls-1" d="M76.04,42.81c0,23.12-16,44.75-37.5,50C17.04,87.56,1.04,65.93,1.04,42.81v-25L38.54,1.14l37.5,16.67v25ZM38.54,84.47c15.62-4.17,29.17-22.75,29.17-40.75v-20.5l-29.17-13-29.17,13v20.5c0,18,13.54,36.58,29.17,40.75M50.21,42.81v-6.25c0-5.83-5.83-10.42-11.67-10.42s-11.67,4.58-11.67,10.42v6.25c-2.5,0-5,2.5-5,5v14.58c0,2.92,2.5,5.42,5,5.42h22.92c2.92,0,5.42-2.5,5.42-5v-14.58c0-2.92-2.5-5.42-5-5.42M44.79,42.81h-12.5v-6.25c0-3.33,2.92-5.42,6.25-5.42s6.25,2.08,6.25,5.42v6.25Z"/>
  </g>
</svg>