<?xml version="1.0" encoding="UTF-8" standalone="no"?>
<!DOCTYPE svg PUBLIC "-//W3C//DTD SVG 1.1//EN" "http://www.w3.org/Graphics/SVG/1.1/DTD/svg11.dtd">
<svg width="100%" height="100%" viewBox="0 0 176 30" version="1.1" xmlns="http://www.w3.org/2000/svg" xmlns:xlink="http://www.w3.org/1999/xlink" xml:space="preserve" xmlns:serif="http://www.serif.com/" style="fill-rule:evenodd;clip-rule:evenodd;stroke-linejoin:round;stroke-miterlimit:2;">
    <g transform="matrix(1,0,0,1,0,0.000001)">
        <g id="b00b91f7-9642-479a-a3b0-25904360d238">
            <path d="M9.48,23.54L8.31,23.54C7.45,23.54 6.96,22.91 7.25,21.8C7.57,20.57 9.31,13.04 9.31,13.04C9.56,12.04 10.82,11.68 12.18,11.68C13.34,11.68 14.66,12.06 15.67,12.8L17.35,10.31C15.66,9.25 13.74,8.72 11.88,8.72C5.44,8.72 0,12.19 0,19.27C0,22.69 1.91,26.25 6.49,26.25L16.55,26.25L18.59,17.41L10.94,17.41L9.48,23.54Z" style="fill:white;fill-rule:nonzero;"/>
            <path d="M80.99,15.55C80.99,12.29 79.17,9.12 74.34,9.12L64.33,9.12L60.28,26.25L71.27,26.25C77.46,26.25 80.99,20.88 80.99,15.55L80.99,15.55ZM73.79,13.14L71.57,22.43C71.32,23.54 70.77,23.54 69.16,23.54L68.59,23.54L71.39,11.79L71.98,11.79C73.74,11.79 74.04,11.99 73.79,13.14Z" style="fill:white;fill-rule:nonzero;"/>
            <path d="M51.99,8.72C45.7,8.72 41.12,12.94 41.12,19.17C41.12,24.19 44.9,26.61 49.68,26.61C56.63,26.61 60.2,21.53 60.2,16.25C60.2,10.98 56.78,8.72 51.99,8.72ZM53.15,13.14L50.94,22.28C50.64,23.49 50.28,23.94 49.28,23.94C48.22,23.94 48.02,23.34 48.27,22.18L50.38,13.29C50.74,11.83 51.04,11.38 52.15,11.38C53.05,11.38 53.41,11.94 53.15,13.14Z" style="fill:white;fill-rule:nonzero;"/>
            <path d="M31.21,8.72C24.87,8.72 20.34,12.94 20.34,19.17C20.34,24.19 24.11,26.61 28.89,26.61C35.79,26.61 39.41,21.53 39.41,16.25C39.41,10.98 35.99,8.72 31.21,8.72ZM32.32,13.14L30.15,22.28C29.85,23.49 29.5,23.94 28.44,23.94C27.38,23.94 27.23,23.34 27.48,22.18L29.6,13.29C29.95,11.83 30.25,11.38 31.31,11.38C32.27,11.38 32.62,11.94 32.32,13.14L32.32,13.14Z" style="fill:white;fill-rule:nonzero;"/>
            <path d="M126.35,18.91L130.34,18.91L131.05,15.89L127.01,15.89L127.89,12.12L134.07,12.12L134.79,9.11L120.74,9.11L116.69,26.24L130.68,26.24L131.46,23.18L125.28,23.18L126.35,18.91Z" style="fill:white;fill-rule:nonzero;"/>
            <path d="M115.16,9.11L110.52,14.89L108.72,9.11L100.61,9.11L103.63,18.8L101.89,26.24L109.75,26.24L111.48,18.91L119.55,9.11L115.16,9.11Z" style="fill:white;fill-rule:nonzero;"/>
            <path d="M142.25,9.06L131.86,26.24L135.33,26.24L136.99,23.53L142.89,23.53L143.19,26.24L150.89,26.24L149.07,9.06L142.25,9.06ZM138.95,20.46L141.93,15.4L142.46,20.46L138.95,20.46Z" style="fill:white;fill-rule:nonzero;"/>
            <path d="M173.63,13.78C173.63,11.32 172.12,9.11 167.5,9.11L156.34,9.11L152.29,26.24L159.98,26.24L161.65,19.07L163.12,26.24L170.76,26.24L169.42,20.39C169.42,20.39 169.97,20.04 170.01,20.01C172.57,18.36 173.63,15.68 173.63,13.78ZM165.58,13.13C165.36,14.08 164.58,17.35 164.58,17.35C164.39,18.1 163.95,18.45 163.16,18.45L161.81,18.45L163.41,11.77L164.67,11.77C165.44,11.77 165.81,12.17 165.58,13.13L165.58,13.13Z" style="fill:white;fill-rule:nonzero;"/>
            <path d="M174.49,23.17C173.63,23.17 172.93,23.88 172.93,24.68C172.93,25.54 173.63,26.24 174.49,26.24C175.34,26.24 176,25.54 176,24.68C176,23.88 175.34,23.17 174.49,23.17ZM174.49,25.89C173.83,25.89 173.28,25.38 173.28,24.68C173.28,24.03 173.83,23.53 174.49,23.53C175.13,23.53 175.65,24.03 175.65,24.68C175.65,25.38 175.14,25.89 174.49,25.89Z" style="fill:white;fill-rule:nonzero;"/>
            <path d="M175.14,24.33C175.14,23.93 174.79,23.88 174.48,23.88L173.83,23.88L173.83,25.59L174.18,25.59L174.18,24.83L174.38,24.83L174.78,25.59L175.19,25.59L174.68,24.83C174.99,24.78 175.14,24.63 175.14,24.33L175.14,24.33ZM174.18,24.58L174.18,24.13L174.54,24.13C174.79,24.13 174.79,24.23 174.79,24.33C174.79,24.58 174.69,24.58 174.54,24.58L174.18,24.58Z" style="fill:white;fill-rule:nonzero;"/>
            <path d="M114.97,3.95C114.56,4.16 114.02,4.37 113.33,4.5C112.81,4.59 112.27,4.61 111.73,4.58C107.72,4.35 107.44,3.25 101.92,0.95C96.07,-1.48 90.1,1.07 91.05,4.99C88.86,6.05 88.9,8.19 89.74,9.82C89.75,9.84 89.76,9.86 89.76,9.88C89.48,12.9 91.33,14.76 92.32,15.29C93.23,14.68 93.58,13.01 93.59,13C94.26,13.94 95.29,14.06 95.29,14.06C95.66,13.7 95.77,12.79 95.81,12.31C95.81,12.27 95.8,12.01 95.8,12.01C95.8,12.01 95.97,12.19 96.01,12.24C96.22,12.45 96.46,12.62 96.68,12.74C96.82,12.84 97.31,13.03 97.53,13.09C97.59,12.67 97.59,12.21 97.57,11.79L97.57,11.78C97.51,10.79 97.25,9.94 97.01,9.34C96.36,8.95 96.15,8.4 96.15,8.4C97.21,9.52 98.76,9.53 99.69,8.9C99.42,8.05 98.41,7.51 98.39,7.49C100.64,8.39 102.1,7.27 102.1,7.27C101.81,7.12 101.45,6.73 101.33,6.43C103,7.35 105.05,6.9 105.79,6.3C105.11,5.72 104.67,4.92 104.67,4.92C104.67,4.92 104.66,4.9 104.66,4.9C104.66,4.9 106.58,6.91 110.19,7.15C113.75,7.41 115.68,5.68 116.01,3.44C116.02,3.35 116.03,3.26 116.04,3.16C115.7,3.52 115.31,3.78 114.97,3.95L114.97,3.95ZM91.8,10.71C91.8,10.71 91.53,10 91.02,9.86C90.71,9.95 90.48,9.87 90.48,9.87C91.31,9.34 91.07,8.33 91.07,8.33C91.07,8.33 91.54,8.77 91.31,9.47C91.5,9.6 91.96,10.22 91.8,10.7L91.8,10.71ZM92.72,5.51C93.08,5.28 93.49,4.61 93.39,4.13C93.24,3.99 93.14,3.8 93.12,3.54C93.12,3.54 93.52,4.03 94.1,3.94C94.48,3.88 94.64,3.67 94.7,3.52C94.58,3.36 94.54,3.18 94.54,3.18C95.27,3.55 96.05,3.18 95.97,2.36C95.97,2.36 95.97,2.36 95.98,2.36C96.07,2.41 96.18,2.46 96.31,2.48C97.11,2.65 97.56,2.35 97.88,1.99C97.79,2.72 96.89,3.16 96.19,2.99C96.14,3.25 96,3.54 95.6,3.69C95.38,3.77 95.2,3.78 95.06,3.75C94.85,4.17 94.36,4.48 93.86,4.36C93.7,4.93 93.31,5.42 92.72,5.51L92.72,5.51ZM95.67,7.08C95.44,7.12 95.26,7.1 95.12,7.05C94.79,7.3 94.41,7.43 93.97,7.31C93.97,7.31 94.59,7.24 94.83,6.84C94.66,6.63 94.66,6.37 94.66,6.37C95.3,6.86 96.28,6.69 96.66,6.03C96.66,6.03 96.67,6.92 95.66,7.08L95.67,7.08ZM99.13,4.8C98.9,4.83 98.71,4.82 98.56,4.78C98.2,5.26 97.44,5.43 96.87,5.14C96.55,5.46 96.11,5.65 95.67,5.5C95.97,5.47 96.41,5.23 96.59,4.91C96.49,4.8 96.43,4.65 96.41,4.48C96.71,4.73 97.55,4.98 98.13,4.49C97.91,4.21 97.91,3.84 97.91,3.84C98.7,4.55 99.89,4.3 100.36,3.36C100.36,3.36 100.33,4.62 99.14,4.8L99.13,4.8Z" style="fill:white;fill-rule:nonzero;"/>
            <path d="M113.31,3.91C113.6,3.85 113.86,3.79 114.1,3.71C114.26,3.37 114.36,2.35 114.04,1.59C113.54,2.74 111.91,3.64 110.04,3.81C110.53,3.89 111.07,3.95 111.71,3.99C112.25,4.02 112.78,4 113.31,3.91Z" style="fill:white;fill-rule:nonzero;"/>
            <path d="M98.35,18.21C98.11,17.95 97.94,17.91 97.94,17.91C95.34,20.03 92.19,21.56 89.4,23.84C88.7,24.4 88.04,25.04 87.39,25.66C83.28,29.73 82.96,28.66 77.9,28.8C77.82,28.8 77.75,28.85 77.73,28.93C77.7,29.01 77.68,29.13 77.68,29.31C77.68,29.5 77.71,29.64 77.74,29.73C77.76,29.8 77.83,29.85 77.9,29.85L82.29,29.85C85.07,29.85 87.24,27.13 89.33,25.27C89.61,25.01 89.89,24.77 90.19,24.54C92.92,22.34 95.94,20.87 98.51,18.79C98.57,18.73 98.6,18.65 98.57,18.57C98.53,18.48 98.47,18.35 98.35,18.21L98.35,18.21Z" style="fill:white;fill-rule:nonzero;"/>
            <path d="M78.21,28.23C78.32,28.26 78.45,28.27 78.59,28.27L82.09,28.27C84.26,28.27 86.42,25.63 88.45,23.86L85.09,16.71C84.4,18.25 83.55,20.13 82.52,22.35C81.67,24.17 81.11,24.84 79.16,25.51C78.3,25.8 77.68,26.61 77.68,27.4L77.68,27.54C77.68,27.85 77.83,28.13 78.21,28.23L78.21,28.23Z" style="fill:white;fill-rule:nonzero;"/>
            <path d="M96.24,18.41C98.24,17.04 97.11,15.1 96.66,14.36C96.54,14.16 96.32,13.75 96.17,13.55C96.02,14.74 95.72,14.99 95.72,14.99C95.68,14.99 95.63,14.97 95.58,14.96C95.1,14.84 94.39,14.45 93.79,13.77C93.48,15.66 92.48,16.34 92.48,16.34L92.17,16.17C92.06,16.11 91.28,15.67 90.54,14.73C90.33,14.46 90.11,14.08 89.91,13.64L85.98,14.19L89.58,22.95C91.75,21.31 94.16,19.84 96.24,18.41Z" style="fill:white;fill-rule:nonzero;"/>
            <path d="M85.45,16.06L88.73,23.65C88.88,23.53 89.03,23.41 89.17,23.3L85.76,15.26L85.45,16.06L85.45,16.06Z" style="fill:white;fill-rule:nonzero;"/>
            <path d="M85.8,12.8L85.84,13.48L87.37,13.32L89.68,13.13C89.61,12.96 89.55,12.78 89.49,12.6L85.8,12.8L85.8,12.8Z" style="fill:white;fill-rule:nonzero;"/>
            <path d="M88.97,9.47L85.61,11.31C85.72,11.71 85.74,11.98 85.77,12.36L89.4,12.2C89.22,11.5 89.18,10.98 89.16,10.41C89.16,10.25 89.17,10.11 89.17,9.96C89.1,9.79 89.03,9.63 88.97,9.47L88.97,9.47Z" style="fill:white;fill-rule:nonzero;"/>
            <path d="M84.77,9.55L88.65,7.79C88.64,7.45 88.66,7.12 88.7,6.81C88.72,6.73 88.74,6.65 88.76,6.56C89.03,5.72 89.66,5.19 90.52,4.67C90.48,4.44 90.43,4.04 90.5,3.59L83.42,7.2C83.42,7.2 84.07,8.36 84.57,9.22C84.64,9.32 84.7,9.44 84.77,9.55L84.77,9.55Z" style="fill:white;fill-rule:nonzero;"/>
            <path d="M88.67,8.22L85.05,10.08C85.18,10.31 85.29,10.53 85.38,10.68L88.78,8.85C88.73,8.64 88.69,8.43 88.67,8.22L88.67,8.22Z" style="fill:white;fill-rule:nonzero;"/>
        </g>
        <g id="b00b91f7-9642-479a-a3b0-25904360d2381" serif:id="b00b91f7-9642-479a-a3b0-25904360d238">
            <path d="M9.48,23.54L8.31,23.54C7.45,23.54 6.96,22.91 7.25,21.8C7.57,20.57 9.31,13.04 9.31,13.04C9.56,12.04 10.82,11.68 12.18,11.68C13.34,11.68 14.66,12.06 15.67,12.8L17.35,10.31C15.66,9.25 13.74,8.72 11.88,8.72C5.44,8.72 0,12.19 0,19.27C0,22.69 1.91,26.25 6.49,26.25L16.55,26.25L18.59,17.41L10.94,17.41L9.48,23.54Z" style="fill:white;fill-rule:nonzero;"/>
            <path d="M80.99,15.55C80.99,12.29 79.17,9.12 74.34,9.12L64.33,9.12L60.28,26.25L71.27,26.25C77.46,26.25 80.99,20.88 80.99,15.55L80.99,15.55ZM73.79,13.14L71.57,22.43C71.32,23.54 70.77,23.54 69.16,23.54L68.59,23.54L71.39,11.79L71.98,11.79C73.74,11.79 74.04,11.99 73.79,13.14Z" style="fill:white;fill-rule:nonzero;"/>
            <path d="M51.99,8.72C45.7,8.72 41.12,12.94 41.12,19.17C41.12,24.19 44.9,26.61 49.68,26.61C56.63,26.61 60.2,21.53 60.2,16.25C60.2,10.98 56.78,8.72 51.99,8.72ZM53.15,13.14L50.94,22.28C50.64,23.49 50.28,23.94 49.28,23.94C48.22,23.94 48.02,23.34 48.27,22.18L50.38,13.29C50.74,11.83 51.04,11.38 52.15,11.38C53.05,11.38 53.41,11.94 53.15,13.14Z" style="fill:white;fill-rule:nonzero;"/>
            <path d="M31.21,8.72C24.87,8.72 20.34,12.94 20.34,19.17C20.34,24.19 24.11,26.61 28.89,26.61C35.79,26.61 39.41,21.53 39.41,16.25C39.41,10.98 35.99,8.72 31.21,8.72ZM32.32,13.14L30.15,22.28C29.85,23.49 29.5,23.94 28.44,23.94C27.38,23.94 27.23,23.34 27.48,22.18L29.6,13.29C29.95,11.83 30.25,11.38 31.31,11.38C32.27,11.38 32.62,11.94 32.32,13.14L32.32,13.14Z" style="fill:white;fill-rule:nonzero;"/>
            <path d="M126.35,18.91L130.34,18.91L131.05,15.89L127.01,15.89L127.89,12.12L134.07,12.12L134.79,9.11L120.74,9.11L116.69,26.24L130.68,26.24L131.46,23.18L125.28,23.18L126.35,18.91Z" style="fill:white;fill-rule:nonzero;"/>
            <path d="M115.16,9.11L110.52,14.89L108.72,9.11L100.61,9.11L103.63,18.8L101.89,26.24L109.75,26.24L111.48,18.91L119.55,9.11L115.16,9.11Z" style="fill:white;fill-rule:nonzero;"/>
            <path d="M142.25,9.06L131.86,26.24L135.33,26.24L136.99,23.53L142.89,23.53L143.19,26.24L150.89,26.24L149.07,9.06L142.25,9.06ZM138.95,20.46L141.93,15.4L142.46,20.46L138.95,20.46Z" style="fill:white;fill-rule:nonzero;"/>
            <path d="M173.63,13.78C173.63,11.32 172.12,9.11 167.5,9.11L156.34,9.11L152.29,26.24L159.98,26.24L161.65,19.07L163.12,26.24L170.76,26.24L169.42,20.39C169.42,20.39 169.97,20.04 170.01,20.01C172.57,18.36 173.63,15.68 173.63,13.78ZM165.58,13.13C165.36,14.08 164.58,17.35 164.58,17.35C164.39,18.1 163.95,18.45 163.16,18.45L161.81,18.45L163.41,11.77L164.67,11.77C165.44,11.77 165.81,12.17 165.58,13.13L165.58,13.13Z" style="fill:white;fill-rule:nonzero;"/>
            <path d="M174.49,23.17C173.63,23.17 172.93,23.88 172.93,24.68C172.93,25.54 173.63,26.24 174.49,26.24C175.34,26.24 176,25.54 176,24.68C176,23.88 175.34,23.17 174.49,23.17ZM174.49,25.89C173.83,25.89 173.28,25.38 173.28,24.68C173.28,24.03 173.83,23.53 174.49,23.53C175.13,23.53 175.65,24.03 175.65,24.68C175.65,25.38 175.14,25.89 174.49,25.89Z" style="fill:white;fill-rule:nonzero;"/>
            <path d="M175.14,24.33C175.14,23.93 174.79,23.88 174.48,23.88L173.83,23.88L173.83,25.59L174.18,25.59L174.18,24.83L174.38,24.83L174.78,25.59L175.19,25.59L174.68,24.83C174.99,24.78 175.14,24.63 175.14,24.33L175.14,24.33ZM174.18,24.58L174.18,24.13L174.54,24.13C174.79,24.13 174.79,24.23 174.79,24.33C174.79,24.58 174.69,24.58 174.54,24.58L174.18,24.58Z" style="fill:white;fill-rule:nonzero;"/>
            <path d="M114.97,3.95C114.56,4.16 114.02,4.37 113.33,4.5C112.81,4.59 112.27,4.61 111.73,4.58C107.72,4.35 107.44,3.25 101.92,0.95C96.07,-1.48 90.1,1.07 91.05,4.99C88.86,6.05 88.9,8.19 89.74,9.82C89.75,9.84 89.76,9.86 89.76,9.88C89.48,12.9 91.33,14.76 92.32,15.29C93.23,14.68 93.58,13.01 93.59,13C94.26,13.94 95.29,14.06 95.29,14.06C95.66,13.7 95.77,12.79 95.81,12.31C95.81,12.27 95.8,12.01 95.8,12.01C95.8,12.01 95.97,12.19 96.01,12.24C96.22,12.45 96.46,12.62 96.68,12.74C96.82,12.84 97.31,13.03 97.53,13.09C97.59,12.67 97.59,12.21 97.57,11.79L97.57,11.78C97.51,10.79 97.25,9.94 97.01,9.34C96.36,8.95 96.15,8.4 96.15,8.4C97.21,9.52 98.76,9.53 99.69,8.9C99.42,8.05 98.41,7.51 98.39,7.49C100.64,8.39 102.1,7.27 102.1,7.27C101.81,7.12 101.45,6.73 101.33,6.43C103,7.35 105.05,6.9 105.79,6.3C105.11,5.72 104.67,4.92 104.67,4.92C104.67,4.92 104.66,4.9 104.66,4.9C104.66,4.9 106.58,6.91 110.19,7.15C113.75,7.41 115.68,5.68 116.01,3.44C116.02,3.35 116.03,3.26 116.04,3.16C115.7,3.52 115.31,3.78 114.97,3.95L114.97,3.95ZM91.8,10.71C91.8,10.71 91.53,10 91.02,9.86C90.71,9.95 90.48,9.87 90.48,9.87C91.31,9.34 91.07,8.33 91.07,8.33C91.07,8.33 91.54,8.77 91.31,9.47C91.5,9.6 91.96,10.22 91.8,10.7L91.8,10.71ZM92.72,5.51C93.08,5.28 93.49,4.61 93.39,4.13C93.24,3.99 93.14,3.8 93.12,3.54C93.12,3.54 93.52,4.03 94.1,3.94C94.48,3.88 94.64,3.67 94.7,3.52C94.58,3.36 94.54,3.18 94.54,3.18C95.27,3.55 96.05,3.18 95.97,2.36C95.97,2.36 95.97,2.36 95.98,2.36C96.07,2.41 96.18,2.46 96.31,2.48C97.11,2.65 97.56,2.35 97.88,1.99C97.79,2.72 96.89,3.16 96.19,2.99C96.14,3.25 96,3.54 95.6,3.69C95.38,3.77 95.2,3.78 95.06,3.75C94.85,4.17 94.36,4.48 93.86,4.36C93.7,4.93 93.31,5.42 92.72,5.51L92.72,5.51ZM95.67,7.08C95.44,7.12 95.26,7.1 95.12,7.05C94.79,7.3 94.41,7.43 93.97,7.31C93.97,7.31 94.59,7.24 94.83,6.84C94.66,6.63 94.66,6.37 94.66,6.37C95.3,6.86 96.28,6.69 96.66,6.03C96.66,6.03 96.67,6.92 95.66,7.08L95.67,7.08ZM99.13,4.8C98.9,4.83 98.71,4.82 98.56,4.78C98.2,5.26 97.44,5.43 96.87,5.14C96.55,5.46 96.11,5.65 95.67,5.5C95.97,5.47 96.41,5.23 96.59,4.91C96.49,4.8 96.43,4.65 96.41,4.48C96.71,4.73 97.55,4.98 98.13,4.49C97.91,4.21 97.91,3.84 97.91,3.84C98.7,4.55 99.89,4.3 100.36,3.36C100.36,3.36 100.33,4.62 99.14,4.8L99.13,4.8Z" style="fill:white;fill-rule:nonzero;"/>
            <path d="M113.31,3.91C113.6,3.85 113.86,3.79 114.1,3.71C114.26,3.37 114.36,2.35 114.04,1.59C113.54,2.74 111.91,3.64 110.04,3.81C110.53,3.89 111.07,3.95 111.71,3.99C112.25,4.02 112.78,4 113.31,3.91Z" style="fill:white;fill-rule:nonzero;"/>
            <path d="M98.35,18.21C98.11,17.95 97.94,17.91 97.94,17.91C95.34,20.03 92.19,21.56 89.4,23.84C88.7,24.4 88.04,25.04 87.39,25.66C83.28,29.73 82.96,28.66 77.9,28.8C77.82,28.8 77.75,28.85 77.73,28.93C77.7,29.01 77.68,29.13 77.68,29.31C77.68,29.5 77.71,29.64 77.74,29.73C77.76,29.8 77.83,29.85 77.9,29.85L82.29,29.85C85.07,29.85 87.24,27.13 89.33,25.27C89.61,25.01 89.89,24.77 90.19,24.54C92.92,22.34 95.94,20.87 98.51,18.79C98.57,18.73 98.6,18.65 98.57,18.57C98.53,18.48 98.47,18.35 98.35,18.21L98.35,18.21Z" style="fill:white;fill-rule:nonzero;"/>
            <path d="M78.21,28.23C78.32,28.26 78.45,28.27 78.59,28.27L82.09,28.27C84.26,28.27 86.42,25.63 88.45,23.86L85.09,16.71C84.4,18.25 83.55,20.13 82.52,22.35C81.67,24.17 81.11,24.84 79.16,25.51C78.3,25.8 77.68,26.61 77.68,27.4L77.68,27.54C77.68,27.85 77.83,28.13 78.21,28.23L78.21,28.23Z" style="fill:white;fill-rule:nonzero;"/>
            <path d="M96.24,18.41C98.24,17.04 97.11,15.1 96.66,14.36C96.54,14.16 96.32,13.75 96.17,13.55C96.02,14.74 95.72,14.99 95.72,14.99C95.68,14.99 95.63,14.97 95.58,14.96C95.1,14.84 94.39,14.45 93.79,13.77C93.48,15.66 92.48,16.34 92.48,16.34L92.17,16.17C92.06,16.11 91.28,15.67 90.54,14.73C90.33,14.46 90.11,14.08 89.91,13.64L85.98,14.19L89.58,22.95C91.75,21.31 94.16,19.84 96.24,18.41Z" style="fill:white;fill-rule:nonzero;"/>
            <path d="M85.45,16.06L88.73,23.65C88.88,23.53 89.03,23.41 89.17,23.3L85.76,15.26L85.45,16.06L85.45,16.06Z" style="fill:white;fill-rule:nonzero;"/>
            <path d="M85.8,12.8L85.84,13.48L87.37,13.32L89.68,13.13C89.61,12.96 89.55,12.78 89.49,12.6L85.8,12.8L85.8,12.8Z" style="fill:white;fill-rule:nonzero;"/>
            <path d="M88.97,9.47L85.61,11.31C85.72,11.71 85.74,11.98 85.77,12.36L89.4,12.2C89.22,11.5 89.18,10.98 89.16,10.41C89.16,10.25 89.17,10.11 89.17,9.96C89.1,9.79 89.03,9.63 88.97,9.47L88.97,9.47Z" style="fill:white;fill-rule:nonzero;"/>
            <path d="M84.77,9.55L88.65,7.79C88.64,7.45 88.66,7.12 88.7,6.81C88.72,6.73 88.74,6.65 88.76,6.56C89.03,5.72 89.66,5.19 90.52,4.67C90.48,4.44 90.43,4.04 90.5,3.59L83.42,7.2C83.42,7.2 84.07,8.36 84.57,9.22C84.64,9.32 84.7,9.44 84.77,9.55L84.77,9.55Z" style="fill:white;fill-rule:nonzero;"/>
            <path d="M88.67,8.22L85.05,10.08C85.18,10.31 85.29,10.53 85.38,10.68L88.78,8.85C88.73,8.64 88.69,8.43 88.67,8.22L88.67,8.22Z" style="fill:white;fill-rule:nonzero;"/>
        </g>
    </g>
</svg>
