<?xml version="1.0" encoding="UTF-8"?>
<svg id="Layer_2" data-name="Layer 2" xmlns="http://www.w3.org/2000/svg" viewBox="0 0 580 70.66">
  <defs>
    <style>
      .cls-1 {
        fill: #fff;
      }
    </style>
  </defs>
  <g id="Layer_1-2" data-name="Layer 1">
    <path class="cls-1" d="M168.7,8.28l-6.33,22.23h-17.33l6.33-22.23h-19.5l-16.84,58.82h19.46l6.71-23.19h17.34l-6.71,23.19h19.52l16.83-58.82h-19.49ZM221.19,55.12l-9.44.27c-2.37,0-4.56.1-6.32-1.77-1.17-1.25-1.96-3.33-1.52-5.42,1.26-5.96,8.11-6.85,13.77-6.85h7.51l-4.01,13.77ZM248,14.7c-1.48-2.75-4.2-4.71-8.32-5.99-3.15-.96-7.16-1.53-11.95-1.7-.17,0-17.35-.27-27.7,1.74l-3.3,11.68c10.43-1.18,20.33-1.52,24.6-1.39,4.63.15,6.84.76,7.87,2.15.89,1.2.97,3.01,0,6.19l-.64,2.31h-7.34c-20.49,0-32.58,2.62-36.33,16.4-1.44,5.3-.77,10.85,2.23,14.76,3.22,4.2,7.57,6.24,15.02,6.24h34.6l11.18-38.44c1.82-6.08,1.85-10.65.05-13.97M490.82,34.25l-2.04,7.09c-2.69,9.37-7.03,13.37-14.52,13.37-3.37,0-5.62-.81-6.88-2.47-1.64-2.15-1.68-5.69-.14-11.11l2.04-7.1c2.7-9.36,7.04-13.36,14.52-13.36,3.37,0,5.62.81,6.89,2.46,1.64,2.17,1.68,5.7.13,11.12M509.05,14.1c-3.62-4.78-10.71-7.19-21.07-7.19-20.09,0-32.84,8.95-37.89,26.59l-2.47,8.59c-2.39,8.36-1.92,14.81,1.4,19.18,3.62,4.77,10.71,7.19,21.08,7.19,20.09,0,32.83-8.95,37.88-26.59l2.47-8.59c2.4-8.35,1.93-14.8-1.4-19.18M422.82,34.25l-2.04,7.09c-2.7,9.37-7.03,13.37-14.52,13.37-3.37,0-5.62-.81-6.89-2.47-1.64-2.15-1.68-5.69-.13-11.11l2.04-7.1c2.7-9.36,7.03-13.36,14.52-13.36,3.37,0,5.62.81,6.89,2.46,1.64,2.17,1.68,5.7.13,11.12M441.06,14.1c-3.62-4.78-10.71-7.19-21.07-7.19-20.09,0-32.84,8.95-37.89,26.59l-2.47,8.59c-2.4,8.36-1.92,14.81,1.4,19.18,3.62,4.77,10.71,7.19,21.07,7.19,20.09,0,32.84-8.95,37.89-26.59l2.47-8.59c2.4-8.35,1.92-14.8-1.4-19.18M361.39,38.9l11.96,28.2h-20.15l-10.83-29.38-8.3,29.38h-19.37l16.91-58.83h19.35l-7.44,25.51s11.88-6.26,21.23-25.51h20.48c-9.83,21.08-23.84,30.63-23.84,30.63M315.3,25.14l-11.83,41.96h-19.36l10.72-38.03c.9-3.27,1.51-5.89.22-7.12-1.16-1.1-2.84-1.24-4.92-1.24l-10.05.3-13.24,46.09h-19.35l16.84-58.81c2.3-.12,19.5-.93,36.6-1.33,6.56-.16,11.07,1.31,13.46,4.38,2.36,3.04,2.67,7.69.92,13.8M556.16,38.9l11.96,28.2h-20.15l-10.83-29.38-8.3,29.38h-19.37l16.91-58.83h19.35l-7.44,25.51s11.88-6.26,21.23-25.51h20.48c-9.83,21.08-23.84,30.63-23.84,30.63"/>
    <path class="cls-1" d="M103.65,0c-2.16,20.63-14.69,38.23-32.38,47.63-.5.27-.96-.41-.53-.76,13.68-11.35,22.64-28.07,23.51-46.86h-17.35c-2.14,15.98-12.22,29.49-26.22,36.55-.49.25-.94-.4-.52-.77C60.24,26.87,66.84,14.2,67.66,0h-17.4c-1.23,7.25-4.95,13.54-9.73,18.77C28.79,31.63,9.81,33.06.6,32.34c0,0-.43-.07-.57.27-.15.37.27.6.27.6,15.31,8.59,27.5,16.73,49.69,33.05,5.45,4.01,10.6,5.17,16.01,3.9C100.6,62.06,120.73,26.28,120.95,0h-17.31Z"/>
  </g>
</svg>