<?xml version="1.0" encoding="UTF-8"?>
<svg id="Layer_2" data-name="Layer 2" xmlns="http://www.w3.org/2000/svg" viewBox="0 0 179.1 46.9">
  <defs>
    <style>
      .cls-1 {
        fill: #fff;
      }
    </style>
  </defs>
  <g id="Layer_1-2" data-name="Layer 1">
    <g>
      <g>
        <path class="cls-1" d="M169.4,0h-13.9c-5.3,0-9.7,4.3-9.7,9.7v5.1c0,5.3,4.4,9.7,9.7,9.7h13.9c5.3,0,9.7-4.4,9.7-9.7v-5.1C179.1,4.3,174.8,0,169.4,0ZM170.4,14.3c0,2.5-2,4.5-4.5,4.5h-6.9c-2.5,0-4.5-2-4.5-4.5v-4.3c0-2.5,2-4.5,4.5-4.5h6.9c2.5,0,4.5,2,4.5,4.5v4.3Z"/>
        <path class="cls-1" d="M56.3,14.4c0,2.5-2,4.5-4.5,4.5h-5.1c-2.5,0-4.5-2-4.5-4.5V.6h-8.7v14.1c0,5.3,4.4,9.7,9.7,9.7h12.1c5.3,0,9.7-4.3,9.7-9.7V.6h-8.7v13.8Z"/>
        <polygon class="cls-1" points="80.6 .6 69.1 .6 69.1 23.8 77.6 23.8 77.6 10.8 83.5 23.8 92.1 23.8 98 10.8 98 23.8 106.5 23.8 106.5 .6 95 .6 87.8 17.4 80.6 .6"/>
        <polygon class="cls-1" points="8.6 .6 0 .6 0 23.7 8.6 23.7 8.6 13.4 21.3 23.8 33.2 23.8 18.1 11.4 31.3 .6 20.7 .6 8.6 10.5 8.6 .6"/>
        <polygon class="cls-1" points="119.4 9 119.4 .6 110.8 .6 110.8 23.8 119.4 23.8 119.4 15.4 133.5 15.4 133.5 23.8 142.2 23.8 142.2 .6 133.5 .6 133.5 9 119.4 9"/>
      </g>
      <g>
        <polygon class="cls-1" points="96.2 34.3 104.8 34.3 104.8 46.9 111.2 46.9 111.2 34.3 119.8 34.3 119.8 29.5 96.2 29.5 96.2 34.3"/>
        <path class="cls-1" d="M154.7,35.4v-.3c0-3.6-2.2-5.6-6.1-5.6h-16.1v17.3h6.5v-5.8h4.4l4.4,5.8h7.2l-4.4-6c2.5-.6,4.1-2.5,4.1-5.4h0ZM146.5,36.9h-7.7v-3.3h7.7c.9,0,1.6.7,1.6,1.6.1,1-.7,1.7-1.6,1.7Z"/>
        <polygon class="cls-1" points="177.9 46.9 177.9 42.8 163.9 42.8 163.9 40.2 177.1 40.2 177.1 36.1 163.9 36.1 163.9 33.6 177.9 33.6 177.9 29.5 157.4 29.5 157.4 46.9 177.9 46.9"/>
        <path class="cls-1" d="M122.7,29.5h6.5v17.3h-6.5v-17.3Z"/>
      </g>
    </g>
  </g>
</svg>