<?xml version="1.0" encoding="UTF-8"?>
<svg id="Layer_2" data-name="Layer 2" xmlns="http://www.w3.org/2000/svg" viewBox="0 0 389.01 35.97">
  <defs>
    <style>
      .cls-1 {
        fill: #fff;
      }
    </style>
  </defs>
  <g id="Layer_1-2" data-name="Layer 1">
    <g id="surface13453">
      <path id="path3713" class="cls-1" d="M135.74,26.8v-6.13h14.77v-6.55h-14.77v-7.59h16.81V0h-27.14v26.19c0,6.73,3.11,9.72,10.09,9.72h17.6v-6.55h-14.45c-1.91,0-2.92-.89-2.92-2.57"/>
      <path id="path3715" class="cls-1" d="M203.14,26.8v-6.13h14.77v-6.55h-14.77v-7.59h16.81V0h-27.14v26.19c0,6.73,3.11,9.72,10.1,9.72h17.6v-6.55h-14.44c-1.91,0-2.92-.89-2.92-2.57"/>
      <path id="path3717" class="cls-1" d="M371.65,26.8v-6.13h14.77v-6.54h-14.77v-7.59h16.81V0h-27.14v26.19c0,6.72,3.11,9.72,10.09,9.72h17.6v-6.55h-14.45c-1.91,0-2.92-.89-2.92-2.57"/>
      <path id="path3719" class="cls-1" d="M307.61,35.92h10.01V0h-10.01v35.92Z"/>
      <path id="path3721" class="cls-1" d="M346.4,11.46c0,1.64-.61,2.9-1.69,3.54-1.17.7-3.07,1.02-5.97,1.02h-3.59V6.41h3.59c3.18,0,4.89.3,5.91,1.03,1.2.87,1.75,2.17,1.75,3.76v.26ZM348.32,19.77l.35-.1c.07-.02,7.37-1.77,7.37-8.87v-.5c0-.84-.27-8.28-9.68-9.87-1.67-.28-3.53-.43-5.84-.43h-15.52v35.92h10.15v-13.38h2.9c6.64,0,8,8.2,9.73,13.38h10.97c-.71-1.59-1.28-2.47-2.7-6.29-3.06-8.26-7.72-9.85-7.72-9.85"/>
      <path id="path3723" class="cls-1" d="M284.26,35.92h10.19V6.54h10.12V0h-31.2v6.54h10.89v29.38Z"/>
      <path id="path3725" class="cls-1" d="M101.32,5.2c-2.06-5.13-6.5-5.2-6.55-5.2h-6.56v35.92h8.31V10.44l.25.61c.04.11,4.77,10.71,7.8,18.43,2.2,5.6,4.5,6.4,7.4,6.44h7.51V0h-8.34v27.13l-9.82-21.93Z"/>
      <path id="path3727" class="cls-1" d="M238.42,5.2c-2.05-5.13-6.5-5.2-6.55-5.2h-6.55v35.92h8.3V10.44l.25.61c.04.11,4.77,10.71,7.81,18.43,2.2,5.6,4.49,6.4,7.4,6.44h7.5V0h-8.33v27.13l-9.83-21.93Z"/>
      <path id="path3729" class="cls-1" d="M178.91,17.07L191.39,0h-8.73c-1.69,0-2.91.77-4.19,2.65l-5.22,8.13-5.22-8.14c-1.28-1.88-2.5-2.65-4.19-2.65h-8.73l12.6,17.44-.05.08-12.88,18.4h7.27c2.36,0,3.58-.59,4.83-2.33l6.37-10.23.12.2,6.25,10.03c1.25,1.73,2.46,2.32,4.82,2.32h7.28l-12.86-18.77.05-.08Z"/>
      <path id="path3731" class="cls-1" d="M0,4.53h71.96V.06H0v4.48Z"/>
      <path id="path3733" class="cls-1" d="M0,35.97h71.96v-4.48H0v4.48Z"/>
      <path id="path3735" class="cls-1" d="M53.62,15.9v.29h-7.91v3.63h7.91v4.56h-9.93l-4.9-6.29,5.04-6.45h9.79v4.26ZM28.22,24.39h-9.89v-4.56h7.91v-3.63h-7.91v-4.55h9.77l5.03,6.45-4.91,6.29ZM67.09,8.01v15.15l-5.81-12.27c-.42-.95-.95-1.58-1.48-2.01-1.17-.94-2.33-.87-2.33-.87h-16.48s-5.03,6.45-5.03,6.45l-5.04-6.45h-14.17c-1.19,0-1.95.36-2.44.83-.88.84-.86,2.02-.86,2.02v12.3l-5.81-12.27c-.42-.95-.95-1.58-1.48-2.01-1.17-.94-2.33-.87-2.33-.87H0v20.01h4.87v-13.76s5.51,11.67,5.7,12.06c.13.26.51.92,1.45,1.34.47.21,1.07.36,1.86.37h17.17s4.91-6.29,4.91-6.29l4.91,6.29h14.33c1.19,0,1.95-.35,2.44-.82.88-.84.86-2.06.86-2.06v-10.9s5.51,11.67,5.7,12.06c.13.26.51.92,1.45,1.34.47.21.94.32,1.86.36,0,.01,1.01,0,2.08,0h2.37V8.01h-4.86Z"/>
    </g>
  </g>
</svg>