<?xml version="1.0" encoding="UTF-8"?>
<svg id="Layer_2" data-name="Layer 2" xmlns="http://www.w3.org/2000/svg" viewBox="0 0 483.57 51">
  <defs>
    <style>
      .cls-1 {
        fill: #fff;
        fill-rule: evenodd;
      }
    </style>
  </defs>
  <g id="Layer_1-2" data-name="Layer 1">
    <path class="cls-1" d="M293.53,1.27h21.16c-1.48,8.04-3.18,16.3-4.87,24.34-1.69,8.04-3.39,16.29-5.08,24.33h-21.59c1.69-8.04,3.6-16.29,5.29-24.33,1.7-8.04,3.39-16.3,5.08-24.34h0ZM318.5,1.27c-1.7,8.04-3.18,16.3-4.87,24.34-1.7,8.04-3.39,16.29-5.08,24.33h21.79l2.33-15.66,9.95,15.66h23.49l-13.76-18.41c21.59-2.75,28.36-28.78,1.06-30.05-1.7,0-4.87-.21-9.53-.21h-25.39s0,0,0,0ZM336.07,14.6h2.96c4.44,0,7.19.42,8.68,1.06,1.9.85,2.54,2.54,1.9,4.87-.85,3.81-4.87,4.45-10.58,4.87h-5.08l2.12-10.8h0ZM381.14,1.27l46.35.21-2.75,12.7h-27.73l-1.48,8.25h27.51l-2.11,9.95h-27.09l-1.91,6.35h28.78l-2.33,11.21h-48.46l11.21-48.67ZM74.92,17.35c-2.75,3.39-8.89,21.79,3.81,21.16,12.06-.64,11.85-15.03,10.79-20.32-1.27-6.14-11.43-4.66-14.6-.85h0ZM88.67,0C97.56,0,104.12,1.9,108.14,5.92c2.33,2.12,4.02,4.87,4.66,8.25.64,3.18.42,6.98-.63,11.22-1.06,3.6-2.54,6.98-4.44,9.95s-4.23,5.5-7.41,7.83c-6.98,5.29-15.66,7.83-26.24,7.83-9.52,0-16.51-2.11-20.95-6.56-2.33-2.11-3.81-4.87-4.44-8.04-.64-3.18-.42-6.77.64-10.79.85-3.18,2.12-5.93,3.6-8.68,1.48-2.52,3.33-4.81,5.5-6.77C65.6,3.39,75.55,0,88.67,0h0ZM187.93,17.35c-2.75,3.39-8.89,21.79,4.02,21.16,11.85-.64,11.64-15.03,10.58-20.32-1.06-6.14-11.22-4.66-14.6-.85ZM201.68,0C210.57,0,217.13,1.9,221.15,5.92c2.54,2.12,4.02,4.87,4.66,8.25.64,3.18.42,6.98-.64,11.22-.85,3.6-2.33,6.98-4.23,9.95s-4.45,5.5-7.41,7.83c-7.2,5.29-15.87,7.83-26.45,7.83-9.52,0-16.51-2.11-20.95-6.56-2.33-2.11-3.81-4.87-4.45-8.04-.64-3.18-.42-6.77.64-10.79.85-3.18,2.12-5.93,3.6-8.68,1.48-2.53,3.33-4.81,5.5-6.77,7.19-6.77,17.35-10.16,30.26-10.16h0ZM112.38,1.48l5.71,15.24c1.9,5.08,3.81,10.16,5.71,15.45l-10.16,17.14h22.43L173.54,1.48h-21.59c-1.74,2.17-3.37,4.43-4.87,6.77-1.69,2.11-3.18,4.44-4.87,6.56-1.48,2.33-2.75,4.44-3.39,6.14h-.42c.21-1.06,0-3.17-.42-5.71l-1.27-6.98c-.21-2.33-.64-4.45-1.06-6.77-7.83,0-15.45,0-23.28,0h0ZM3.39,1.27c-.64,2.11-1.06,4.23-1.69,6.35-.64,2.12-1.06,4.23-1.69,6.56h13.33c-1.48,5.93-2.96,11.85-4.66,17.78-1.48,5.93-3.18,12.07-4.66,17.99h21.38c1.69-5.92,3.18-12.06,4.66-17.99,1.48-5.93,3.17-11.85,4.66-17.78h13.12c.42-2.33,1.06-4.44,1.48-6.56.64-2.11,1.06-4.23,1.69-6.35,0,0-47.62,0-47.62,0ZM240.41,1.27c-.63,2.11-1.27,4.23-1.69,6.35-.64,2.12-1.06,4.23-1.69,6.56h13.33c-1.48,5.93-3.17,11.85-4.66,17.78-1.48,5.93-3.17,12.07-4.66,17.99h21.38c1.69-5.92,3.18-12.06,4.66-17.99,1.48-5.93,3.18-11.85,4.66-17.78h13.12c.42-2.33,1.06-4.44,1.48-6.56.64-2.11,1.05-4.23,1.69-6.35h-47.62ZM481.03,33.86c.42-4.23-.64-6.35-3.39-8.89-2.75-2.54-4.44-3.81-9.73-3.81-4.66,0-14.82,1.27-17.99-1.69-4.23-4.02-.42-7.2,4.24-7.2,5.08,0,6.56.21,11.64.21s10.16-.21,15.24-.21c.21-2.54,2.33-8.47,2.54-11.22-5.71.21-11.22.21-16.93.21s-11.22,0-16.72.21c-5.08,0-9.52,1.27-13.12,3.81-3.6,2.54-5.92,5.71-6.77,9.95-.85,3.81-.42,9.31,2.33,11.64,2.75,2.54,6.35,3.81,10.79,3.81h7.19c6.35,0,9.53-.21,8.89,4.02-.64,5.29-11.64,4.24-15.45,4.24h-15.45c-.74,3.69-1.59,7.36-2.53,11h38.51c4.87,0,16.3-11.64,16.73-16.09Z"/>
  </g>
</svg>