<?xml version="1.0" encoding="UTF-8"?>
<svg id="Layer_2" data-name="Layer 2" xmlns="http://www.w3.org/2000/svg" viewBox="0 0 470.18 67.03">
  <defs>
    <style>
      .cls-1 {
        fill: #fff;
      }
    </style>
  </defs>
  <g id="Layer_1-2" data-name="Layer 1">
    <polygon class="cls-1" points="144.67 8.14 134.18 29.52 123.75 8.14 113.64 8.14 129.62 38.7 129.62 57.38 138.77 57.38 138.77 38.7 154.75 8.14 144.67 8.14"/>
    <polygon class="cls-1" points="370.4 22.49 370.4 57.38 361.13 57.38 361.13 8.14 373.57 8.14 386.38 43.41 398.96 8.14 411.43 8.14 411.43 57.38 402.13 57.38 402.13 22.49 389.66 57.38 382.86 57.38 370.4 22.49"/>
    <polygon class="cls-1" points="209.17 36.23 224.8 57.38 235.38 57.38 216.7 31.64 234.45 8.14 223.5 8.14 209.17 28.36 209.17 8.14 200.25 8.14 200.25 57.38 209.17 57.38 209.17 36.23"/>
    <polygon class="cls-1" points="287.65 27.52 304.68 27.52 304.71 8.14 313.65 8.14 313.65 57.38 304.71 57.38 304.71 36.81 287.71 36.81 287.68 57.38 278.73 57.38 278.73 8.14 287.68 8.14 287.65 27.52"/>
    <path class="cls-1" d="M429.56,35.27l5.23-13.74,5.38,13.77h-10.61v-.03ZM438.27,8.14h-7.41l-19.12,49.25h9.3l4.94-12.9h17.43l4.91,12.9h9.38l-19.44-49.25Z"/>
    <path class="cls-1" d="M74.67,24.81l-2.3-2.15L95.04.03h-6.28l-19.55,19.44-2.21-2.15L84.26.06h-6.25l-14.21,14.03-2.27-2.18L73.45,0h-6.25l-8.72,8.72L49.77,0h-6.45l33.5,33.53-33.18,33.5h6.39L116.66.03h-6.28l-30.36,30.28-2.24-2.21L105.85.03h-6.28l-24.9,24.78ZM38.79.03l33.59,33.5-33.21,33.5h-6.39l33.18-33.5L32.43.03h6.39-.03ZM27.98.03l33.53,33.5-33.15,33.5h-6.39l33.18-33.5L21.62.03h6.39-.03ZM17.17.03l33.53,33.5-33.15,33.5h-6.39l33.18-33.5L10.81.03h6.36ZM6.36.03l33.53,33.5L6.74,67.03H.35l33.18-33.5L0,.03h6.39-.03Z"/>
    <path class="cls-1" d="M332.19,35.27l5.23-13.74,5.38,13.74h-10.61ZM340.91,8.14h-7.41l-19.26,49.25h9.38l4.94-12.9h17.43l4.91,12.9h9.38l-19.38-49.25Z"/>
    <path class="cls-1" d="M251.82,49.51c-9.09-.22-16.29-7.76-16.1-16.85-.53-8.89,6.24-16.53,15.13-17.06,8.89-.53,16.53,6.24,17.06,15.13.04.64.04,1.29,0,1.94.19,9.09-7,16.63-16.1,16.85M251.82,6.74c-14.12.22-25.39,11.85-25.16,25.97,0,0,0,0,0,0-.47,13.89,10.4,25.53,24.29,26,13.89.47,25.53-10.4,26-24.29.02-.57.02-1.14,0-1.71.23-14.11-11.02-25.74-25.13-25.98"/>
    <path class="cls-1" d="M173.43,49.51c-9.09-.22-16.29-7.76-16.1-16.85-.53-8.89,6.24-16.53,15.13-17.06,8.89-.53,16.53,6.24,17.06,15.13.04.64.04,1.29,0,1.94.19,9.09-7,16.63-16.1,16.85M173.43,6.74c-14.12.22-25.39,11.85-25.16,25.97h0c-.47,13.9,10.4,25.54,24.29,26.01,13.89.47,25.53-10.4,26-24.29.02-.57.02-1.14,0-1.71.23-14.12-11.04-25.75-25.16-25.98,0,0,0,0,0,0"/>
    <path class="cls-1" d="M466.46,51.92c-.27.17-.58.25-.9.23h-1.86v-2.09h1.98c.22-.05.45-.05.67,0,.33.18.51.53.46.9.04.32-.08.63-.32.84M467.53,54.97c-.02-.17-.02-.35,0-.52v-.81c0-.28-.06-.55-.2-.78-.15-.17-.34-.3-.55-.38.26-.13.48-.33.64-.58.13-.29.17-.62.12-.93.06-.61-.28-1.2-.84-1.45-.36-.14-.75-.21-1.13-.2h-2.91v6.16h.84v-2.61h1.83c.24-.05.49-.05.73,0,.29.17.46.48.44.81v1.02c-.01.16-.01.33,0,.49,0,.07,0,.14,0,.2h1.02c-.14-.08-.24-.22-.26-.38"/>
    <path class="cls-1" d="M465.24,56.77c-2.37,0-4.3-1.93-4.3-4.3,0-2.37,1.93-4.3,4.3-4.3,2.37,0,4.3,1.93,4.3,4.3h0c-.02,2.37-1.93,4.28-4.3,4.3M465.24,47.51c-2.73,0-4.94,2.21-4.94,4.94,0,2.73,2.21,4.94,4.94,4.94,2.73,0,4.94-2.21,4.94-4.94h0c-.02-2.72-2.22-4.92-4.94-4.94"/>
  </g>
</svg>